<ttFont>
    <TTGlyph name="A" xMin="-2" yMin="-32" xMax="1126" yMax="1439">
      <contour>
        <pt x="1126" y="71" on="1"/>
        <pt x="1126" y="60" on="0"/>
        <pt x="1114" y="39" on="0"/>
        <pt x="1096" y="22" on="0"/>
        <pt x="1074" y="11" on="0"/>
        <pt x="1064" y="11" on="1"/>
        <pt x="1057" y="11" on="0"/>
        <pt x="1043" y="13" on="0"/>
        <pt x="1036" y="13" on="1"/>
        <pt x="1027" y="13" on="0"/>
        <pt x="1021" y="2" on="0"/>
        <pt x="1016" y="-10" on="0"/>
        <pt x="1006" y="-21" on="0"/>
        <pt x="993" y="-21" on="1"/>
        <pt x="985" y="-21" on="0"/>
        <pt x="967" y="-17" on="0"/>
        <pt x="958" y="-17" on="1"/>
        <pt x="939" y="-17" on="0"/>
        <pt x="904" y="-32" on="0"/>
        <pt x="884" y="-32" on="1"/>
        <pt x="867" y="-32" on="0"/>
        <pt x="799" y="-21" on="0"/>
        <pt x="730" y="2" on="0"/>
        <pt x="678" y="35" on="0"/>
        <pt x="678" y="57" on="1"/>
        <pt x="678" y="74" on="0"/>
        <pt x="717" y="109" on="0"/>
        <pt x="765" y="152" on="0"/>
        <pt x="804" y="206" on="0"/>
        <pt x="804" y="242" on="1"/>
        <pt x="804" y="263" on="0"/>
        <pt x="787" y="303" on="0"/>
        <pt x="761" y="338" on="0"/>
        <pt x="728" y="368" on="0"/>
        <pt x="713" y="381" on="1"/>
        <pt x="708" y="383" on="0"/>
        <pt x="698" y="383" on="1"/>
        <pt x="671" y="383" on="0"/>
        <pt x="617" y="372" on="0"/>
        <pt x="590" y="372" on="1"/>
        <pt x="576" y="372" on="0"/>
        <pt x="547" y="380" on="0"/>
        <pt x="542" y="396" on="1"/>
        <pt x="516" y="383" on="0"/>
        <pt x="464" y="360" on="0"/>
        <pt x="437" y="351" on="1"/>
        <pt x="420" y="345" on="0"/>
        <pt x="405" y="339" on="0"/>
        <pt x="398" y="331" on="0"/>
        <pt x="395" y="315" on="0"/>
        <pt x="389" y="300" on="1"/>
        <pt x="385" y="290" on="0"/>
        <pt x="385" y="274" on="0"/>
        <pt x="385" y="264" on="1"/>
        <pt x="385" y="251" on="0"/>
        <pt x="375" y="236" on="0"/>
        <pt x="364" y="223" on="0"/>
        <pt x="354" y="209" on="0"/>
        <pt x="354" y="198" on="1"/>
        <pt x="354" y="189" on="0"/>
        <pt x="357" y="182" on="1"/>
        <pt x="356" y="177" on="1"/>
        <pt x="356" y="162" on="0"/>
        <pt x="372" y="145" on="0"/>
        <pt x="395" y="136" on="0"/>
        <pt x="421" y="128" on="0"/>
        <pt x="431" y="122" on="1"/>
        <pt x="441" y="116" on="0"/>
        <pt x="460" y="89" on="0"/>
        <pt x="475" y="58" on="0"/>
        <pt x="485" y="27" on="0"/>
        <pt x="485" y="16" on="1"/>
        <pt x="485" y="11" on="1"/>
        <pt x="472" y="11" on="1"/>
        <pt x="432" y="11" on="0"/>
        <pt x="353" y="4" on="0"/>
        <pt x="275" y="-5" on="0"/>
        <pt x="196" y="-12" on="0"/>
        <pt x="156" y="-12" on="1"/>
        <pt x="142" y="-12" on="0"/>
        <pt x="89" y="-10" on="0"/>
        <pt x="37" y="-1" on="0"/>
        <pt x="-2" y="20" on="0"/>
        <pt x="-2" y="40" on="1"/>
        <pt x="-2" y="61" on="0"/>
        <pt x="17" y="89" on="0"/>
        <pt x="48" y="108" on="0"/>
        <pt x="87" y="121" on="0"/>
        <pt x="126" y="133" on="0"/>
        <pt x="161" y="145" on="0"/>
        <pt x="173" y="155" on="1"/>
        <pt x="185" y="165" on="0"/>
        <pt x="201" y="210" on="0"/>
        <pt x="211" y="262" on="0"/>
        <pt x="219" y="313" on="0"/>
        <pt x="222" y="328" on="1"/>
        <pt x="223" y="333" on="0"/>
        <pt x="224" y="348" on="0"/>
        <pt x="225" y="364" on="0"/>
        <pt x="226" y="378" on="0"/>
        <pt x="228" y="381" on="1"/>
        <pt x="238" y="398" on="0"/>
        <pt x="249" y="404" on="0"/>
        <pt x="254" y="408" on="0"/>
        <pt x="255" y="425" on="0"/>
        <pt x="255" y="452" on="1"/>
        <pt x="255" y="464" on="0"/>
        <pt x="265" y="477" on="0"/>
        <pt x="276" y="487" on="0"/>
        <pt x="286" y="496" on="0"/>
        <pt x="286" y="504" on="1"/>
        <pt x="286" y="518" on="0"/>
        <pt x="270" y="541" on="0"/>
        <pt x="270" y="555" on="1"/>
        <pt x="270" y="563" on="0"/>
        <pt x="278" y="575" on="0"/>
        <pt x="289" y="585" on="0"/>
        <pt x="297" y="596" on="0"/>
        <pt x="297" y="604" on="1"/>
        <pt x="297" y="615" on="0"/>
        <pt x="288" y="637" on="0"/>
        <pt x="288" y="648" on="1"/>
        <pt x="288" y="656" on="0"/>
        <pt x="299" y="663" on="0"/>
        <pt x="312" y="667" on="0"/>
        <pt x="323" y="670" on="0"/>
        <pt x="323" y="673" on="1"/>
        <pt x="320" y="679" on="0"/>
        <pt x="312" y="679" on="1"/>
        <pt x="300" y="679" on="0"/>
        <pt x="300" y="666" on="1"/>
        <pt x="293" y="671" on="0"/>
        <pt x="283" y="684" on="0"/>
        <pt x="283" y="692" on="1"/>
        <pt x="283" y="702" on="0"/>
        <pt x="293" y="719" on="0"/>
        <pt x="306" y="741" on="0"/>
        <pt x="316" y="769" on="0"/>
        <pt x="316" y="789" on="1"/>
        <pt x="316" y="810" on="0"/>
        <pt x="304" y="849" on="0"/>
        <pt x="304" y="869" on="1"/>
        <pt x="304" y="879" on="0"/>
        <pt x="313" y="899" on="0"/>
        <pt x="326" y="918" on="0"/>
        <pt x="339" y="937" on="0"/>
        <pt x="342" y="948" on="1"/>
        <pt x="348" y="967" on="0"/>
        <pt x="349" y="1009" on="0"/>
        <pt x="350" y="1051" on="0"/>
        <pt x="355" y="1092" on="0"/>
        <pt x="365" y="1110" on="1"/>
        <pt x="374" y="1126" on="0"/>
        <pt x="384" y="1146" on="0"/>
        <pt x="392" y="1165" on="0"/>
        <pt x="398" y="1188" on="0"/>
        <pt x="401" y="1207" on="1"/>
        <pt x="406" y="1236" on="0"/>
        <pt x="427" y="1290" on="0"/>
        <pt x="431" y="1319" on="1"/>
        <pt x="433" y="1341" on="0"/>
        <pt x="434" y="1372" on="0"/>
        <pt x="443" y="1396" on="0"/>
        <pt x="466" y="1414" on="0"/>
        <pt x="490" y="1423" on="1"/>
        <pt x="516" y="1432" on="0"/>
        <pt x="568" y="1439" on="0"/>
        <pt x="594" y="1439" on="1"/>
        <pt x="624" y="1439" on="0"/>
        <pt x="656" y="1436" on="1"/>
        <pt x="659" y="1419" on="0"/>
        <pt x="679" y="1392" on="0"/>
        <pt x="702" y="1366" on="0"/>
        <pt x="723" y="1339" on="0"/>
        <pt x="727" y="1322" on="1"/>
        <pt x="732" y="1299" on="0"/>
        <pt x="735" y="1258" on="0"/>
        <pt x="750" y="1238" on="1"/>
        <pt x="757" y="1227" on="0"/>
        <pt x="757" y="1212" on="1"/>
        <pt x="757" y="1189" on="0"/>
        <pt x="745" y="1147" on="0"/>
        <pt x="745" y="1125" on="1"/>
        <pt x="745" y="1112" on="0"/>
        <pt x="761" y="1052" on="0"/>
        <pt x="783" y="983" on="0"/>
        <pt x="803" y="918" on="0"/>
        <pt x="808" y="900" on="1"/>
        <pt x="817" y="862" on="0"/>
        <pt x="818" y="782" on="0"/>
        <pt x="830" y="744" on="1"/>
        <pt x="842" y="704" on="0"/>
        <pt x="860" y="625" on="0"/>
        <pt x="863" y="583" on="1"/>
        <pt x="865" y="544" on="0"/>
        <pt x="881" y="471" on="0"/>
        <pt x="899" y="398" on="0"/>
        <pt x="914" y="324" on="0"/>
        <pt x="914" y="284" on="1"/>
        <pt x="914" y="269" on="0"/>
        <pt x="909" y="237" on="0"/>
        <pt x="898" y="225" on="1"/>
        <pt x="919" y="200" on="0"/>
        <pt x="972" y="142" on="0"/>
        <pt x="998" y="125" on="1"/>
        <pt x="1008" y="119" on="0"/>
        <pt x="1050" y="113" on="0"/>
        <pt x="1093" y="104" on="0"/>
        <pt x="1126" y="87" on="0"/>
        <pt x="1126" y="71" on="1"/>
      </contour>
      <contour>
        <pt x="707" y="610" on="1"/>
        <pt x="707" y="619" on="0"/>
        <pt x="693" y="648" on="0"/>
        <pt x="676" y="684" on="0"/>
        <pt x="662" y="726" on="0"/>
        <pt x="662" y="749" on="1"/>
        <pt x="662" y="776" on="0"/>
        <pt x="646" y="829" on="0"/>
        <pt x="643" y="856" on="1"/>
        <pt x="641" y="878" on="0"/>
        <pt x="636" y="931" on="0"/>
        <pt x="620" y="978" on="0"/>
        <pt x="587" y="1009" on="0"/>
        <pt x="556" y="1009" on="1"/>
        <pt x="554" y="1001" on="0"/>
        <pt x="544" y="994" on="0"/>
        <pt x="531" y="989" on="0"/>
        <pt x="517" y="985" on="0"/>
        <pt x="513" y="980" on="1"/>
        <pt x="514" y="977" on="0"/>
        <pt x="514" y="971" on="1"/>
        <pt x="514" y="953" on="0"/>
        <pt x="499" y="922" on="0"/>
        <pt x="493" y="906" on="1"/>
        <pt x="486" y="889" on="0"/>
        <pt x="481" y="852" on="0"/>
        <pt x="481" y="834" on="1"/>
        <pt x="481" y="818" on="0"/>
        <pt x="483" y="788" on="0"/>
        <pt x="483" y="773" on="1"/>
        <pt x="483" y="750" on="0"/>
        <pt x="475" y="717" on="0"/>
        <pt x="465" y="689" on="0"/>
        <pt x="457" y="664" on="0"/>
        <pt x="457" y="650" on="1"/>
        <pt x="457" y="620" on="0"/>
        <pt x="461" y="576" on="0"/>
        <pt x="475" y="547" on="0"/>
        <pt x="501" y="532" on="0"/>
        <pt x="524" y="532" on="1"/>
        <pt x="540" y="532" on="0"/>
        <pt x="601" y="540" on="0"/>
        <pt x="662" y="559" on="0"/>
        <pt x="707" y="589" on="0"/>
      </contour>
    </TTGlyph>
    <TTGlyph name="AE" xMin="-25" yMin="-32" xMax="1768" yMax="1444">
      <contour>
        <pt x="1768" y="998" on="1"/>
        <pt x="1768" y="994" on="0"/>
        <pt x="1758" y="970" on="0"/>
        <pt x="1745" y="942" on="0"/>
        <pt x="1731" y="918" on="0"/>
        <pt x="1727" y="914" on="1"/>
        <pt x="1729" y="913" on="1"/>
        <pt x="1727" y="913" on="0"/>
        <pt x="1725" y="912" on="1"/>
        <pt x="1720" y="912" on="1"/>
        <pt x="1716" y="911" on="0"/>
        <pt x="1707" y="911" on="0"/>
        <pt x="1702" y="911" on="1"/>
        <pt x="1706" y="912" on="1"/>
        <pt x="1683" y="913" on="0"/>
        <pt x="1646" y="928" on="0"/>
        <pt x="1634" y="949" on="1"/>
        <pt x="1632" y="953" on="0"/>
        <pt x="1624" y="974" on="0"/>
        <pt x="1616" y="998" on="0"/>
        <pt x="1611" y="1019" on="0"/>
        <pt x="1611" y="1024" on="1"/>
        <pt x="1611" y="1032" on="0"/>
        <pt x="1614" y="1050" on="0"/>
        <pt x="1614" y="1058" on="1"/>
        <pt x="1614" y="1089" on="0"/>
        <pt x="1602" y="1149" on="0"/>
        <pt x="1602" y="1180" on="1"/>
        <pt x="1602" y="1200" on="0"/>
        <pt x="1612" y="1238" on="0"/>
        <pt x="1625" y="1254" on="1"/>
        <pt x="1620" y="1254" on="1"/>
        <pt x="1608" y="1254" on="0"/>
        <pt x="1594" y="1269" on="0"/>
        <pt x="1578" y="1269" on="1"/>
        <pt x="1540" y="1269" on="0"/>
        <pt x="1468" y="1251" on="0"/>
        <pt x="1428" y="1251" on="1"/>
        <pt x="1412" y="1251" on="0"/>
        <pt x="1380" y="1252" on="0"/>
        <pt x="1363" y="1252" on="1"/>
        <pt x="1332" y="1252" on="0"/>
        <pt x="1272" y="1238" on="0"/>
        <pt x="1244" y="1238" on="1"/>
        <pt x="1241" y="1238" on="0"/>
        <pt x="1241" y="1239" on="1"/>
        <pt x="1241" y="1241" on="0"/>
        <pt x="1255" y="1248" on="0"/>
        <pt x="1255" y="1250" on="1"/>
        <pt x="1255" y="1254" on="0"/>
        <pt x="1242" y="1254" on="0"/>
        <pt x="1240" y="1254" on="1"/>
        <pt x="1232" y="1254" on="0"/>
        <pt x="1221" y="1238" on="0"/>
        <pt x="1210" y="1235" on="1"/>
        <pt x="1195" y="1231" on="0"/>
        <pt x="1161" y="1231" on="0"/>
        <pt x="1145" y="1231" on="1"/>
        <pt x="1135" y="1231" on="0"/>
        <pt x="1097" y="1233" on="0"/>
        <pt x="1059" y="1240" on="0"/>
        <pt x="1028" y="1255" on="0"/>
        <pt x="1026" y="1269" on="1"/>
        <pt x="1015" y="1266" on="0"/>
        <pt x="1008" y="1251" on="0"/>
        <pt x="1003" y="1235" on="0"/>
        <pt x="993" y="1222" on="0"/>
        <pt x="978" y="1221" on="1"/>
        <pt x="950" y="1219" on="0"/>
        <pt x="934" y="1187" on="0"/>
        <pt x="934" y="1167" on="1"/>
        <pt x="934" y="1156" on="0"/>
        <pt x="936" y="1134" on="0"/>
        <pt x="936" y="1123" on="1"/>
        <pt x="936" y="1083" on="0"/>
        <pt x="933" y="1004" on="0"/>
        <pt x="933" y="964" on="1"/>
        <pt x="933" y="947" on="0"/>
        <pt x="934" y="890" on="0"/>
        <pt x="941" y="835" on="0"/>
        <pt x="955" y="792" on="0"/>
        <pt x="968" y="789" on="1"/>
        <pt x="976" y="787" on="0"/>
        <pt x="994" y="786" on="0"/>
        <pt x="1003" y="786" on="1"/>
        <pt x="1038" y="786" on="0"/>
        <pt x="1105" y="802" on="0"/>
        <pt x="1140" y="802" on="1"/>
        <pt x="1154" y="802" on="0"/>
        <pt x="1179" y="794" on="0"/>
        <pt x="1192" y="794" on="1"/>
        <pt x="1211" y="794" on="0"/>
        <pt x="1232" y="831" on="0"/>
        <pt x="1241" y="880" on="0"/>
        <pt x="1243" y="930" on="0"/>
        <pt x="1243" y="942" on="1"/>
        <pt x="1243" y="954" on="0"/>
        <pt x="1243" y="967" on="0"/>
        <pt x="1242" y="978" on="0"/>
        <pt x="1242" y="991" on="0"/>
        <pt x="1242" y="1003" on="1"/>
        <pt x="1246" y="1041" on="1"/>
        <pt x="1247" y="1053" on="0"/>
        <pt x="1262" y="1066" on="0"/>
        <pt x="1284" y="1070" on="0"/>
        <pt x="1310" y="1070" on="0"/>
        <pt x="1322" y="1070" on="1"/>
        <pt x="1324" y="1070" on="0"/>
        <pt x="1333" y="1056" on="0"/>
        <pt x="1343" y="1039" on="0"/>
        <pt x="1352" y="1026" on="0"/>
        <pt x="1354" y="1026" on="1"/>
        <pt x="1354" y="1006" on="0"/>
        <pt x="1368" y="966" on="0"/>
        <pt x="1368" y="945" on="1"/>
        <pt x="1368" y="919" on="0"/>
        <pt x="1340" y="912" on="1"/>
        <pt x="1348" y="898" on="0"/>
        <pt x="1358" y="870" on="0"/>
        <pt x="1358" y="855" on="1"/>
        <pt x="1358" y="844" on="0"/>
        <pt x="1354" y="823" on="0"/>
        <pt x="1354" y="812" on="1"/>
        <pt x="1354" y="802" on="0"/>
        <pt x="1367" y="791" on="0"/>
        <pt x="1367" y="784" on="1"/>
        <pt x="1367" y="772" on="0"/>
        <pt x="1348" y="736" on="0"/>
        <pt x="1348" y="717" on="1"/>
        <pt x="1348" y="695" on="0"/>
        <pt x="1356" y="647" on="0"/>
        <pt x="1366" y="595" on="0"/>
        <pt x="1374" y="542" on="0"/>
        <pt x="1374" y="515" on="1"/>
        <pt x="1374" y="499" on="0"/>
        <pt x="1371" y="465" on="0"/>
        <pt x="1360" y="434" on="0"/>
        <pt x="1341" y="408" on="0"/>
        <pt x="1326" y="399" on="1"/>
        <pt x="1307" y="401" on="0"/>
        <pt x="1281" y="420" on="0"/>
        <pt x="1264" y="447" on="0"/>
        <pt x="1255" y="480" on="0"/>
        <pt x="1253" y="497" on="1"/>
        <pt x="1249" y="523" on="0"/>
        <pt x="1249" y="567" on="0"/>
        <pt x="1230" y="598" on="0"/>
        <pt x="1177" y="616" on="0"/>
        <pt x="1121" y="616" on="1"/>
        <pt x="1107" y="616" on="0"/>
        <pt x="1060" y="612" on="0"/>
        <pt x="1009" y="601" on="0"/>
        <pt x="964" y="583" on="0"/>
        <pt x="953" y="568" on="1"/>
        <pt x="951" y="552" on="0"/>
        <pt x="950" y="521" on="0"/>
        <pt x="950" y="505" on="1"/>
        <pt x="950" y="499" on="1"/>
        <pt x="950" y="493" on="1"/>
        <pt x="950" y="463" on="0"/>
        <pt x="954" y="403" on="0"/>
        <pt x="953" y="372" on="1"/>
        <pt x="954" y="367" on="0"/>
        <pt x="954" y="356" on="0"/>
        <pt x="954" y="351" on="1"/>
        <pt x="954" y="339" on="0"/>
        <pt x="950" y="315" on="0"/>
        <pt x="948" y="303" on="1"/>
        <pt x="945" y="284" on="1"/>
        <pt x="942" y="270" on="1"/>
        <pt x="939" y="253" on="0"/>
        <pt x="939" y="237" on="1"/>
        <pt x="939" y="205" on="0"/>
        <pt x="970" y="168" on="0"/>
        <pt x="1018" y="149" on="0"/>
        <pt x="1074" y="143" on="0"/>
        <pt x="1098" y="143" on="1"/>
        <pt x="1146" y="143" on="0"/>
        <pt x="1242" y="155" on="0"/>
        <pt x="1290" y="155" on="1"/>
        <pt x="1320" y="155" on="0"/>
        <pt x="1380" y="149" on="0"/>
        <pt x="1410" y="149" on="1"/>
        <pt x="1433" y="149" on="0"/>
        <pt x="1489" y="152" on="0"/>
        <pt x="1540" y="168" on="0"/>
        <pt x="1577" y="199" on="0"/>
        <pt x="1582" y="228" on="1"/>
        <pt x="1583" y="236" on="0"/>
        <pt x="1592" y="243" on="0"/>
        <pt x="1603" y="248" on="0"/>
        <pt x="1611" y="254" on="0"/>
        <pt x="1611" y="261" on="1"/>
        <pt x="1611" y="269" on="0"/>
        <pt x="1599" y="290" on="0"/>
        <pt x="1597" y="299" on="1"/>
        <pt x="1593" y="318" on="0"/>
        <pt x="1592" y="357" on="0"/>
        <pt x="1592" y="376" on="1"/>
        <pt x="1592" y="406" on="0"/>
        <pt x="1611" y="451" on="0"/>
        <pt x="1611" y="478" on="1"/>
        <pt x="1611" y="486" on="0"/>
        <pt x="1610" y="500" on="0"/>
        <pt x="1610" y="508" on="1"/>
        <pt x="1610" y="514" on="0"/>
        <pt x="1628" y="526" on="0"/>
        <pt x="1652" y="535" on="0"/>
        <pt x="1676" y="541" on="0"/>
        <pt x="1682" y="541" on="1"/>
        <pt x="1707" y="541" on="0"/>
        <pt x="1739" y="506" on="0"/>
        <pt x="1756" y="456" on="0"/>
        <pt x="1762" y="402" on="0"/>
        <pt x="1762" y="383" on="1"/>
        <pt x="1762" y="352" on="0"/>
        <pt x="1752" y="274" on="0"/>
        <pt x="1735" y="192" on="0"/>
        <pt x="1713" y="115" on="0"/>
        <pt x="1702" y="86" on="1"/>
        <pt x="1696" y="72" on="0"/>
        <pt x="1685" y="58" on="0"/>
        <pt x="1672" y="49" on="0"/>
        <pt x="1657" y="40" on="0"/>
        <pt x="1648" y="30" on="1"/>
        <pt x="1640" y="21" on="0"/>
        <pt x="1595" y="15" on="0"/>
        <pt x="1570" y="15" on="1"/>
        <pt x="1551" y="15" on="0"/>
        <pt x="1517" y="17" on="0"/>
        <pt x="1508" y="17" on="1"/>
        <pt x="1475" y="17" on="0"/>
        <pt x="1434" y="1" on="0"/>
        <pt x="1416" y="1" on="1"/>
        <pt x="1403" y="1" on="0"/>
        <pt x="1395" y="12" on="0"/>
        <pt x="1387" y="12" on="1"/>
        <pt x="1380" y="12" on="0"/>
        <pt x="1368" y="0" on="0"/>
        <pt x="1356" y="0" on="1"/>
        <pt x="1344" y="0" on="0"/>
        <pt x="1319" y="1" on="0"/>
        <pt x="1306" y="1" on="1"/>
        <pt x="1231" y="1" on="0"/>
        <pt x="1083" y="-8" on="0"/>
        <pt x="1008" y="-10" on="1"/>
        <pt x="1002" y="-10" on="0"/>
        <pt x="991" y="-11" on="0"/>
        <pt x="986" y="-11" on="1"/>
        <pt x="978" y="-21" on="0"/>
        <pt x="962" y="-21" on="1"/>
        <pt x="956" y="-21" on="0"/>
        <pt x="943" y="-18" on="0"/>
        <pt x="937" y="-17" on="1"/>
        <pt x="888" y="-25" on="1"/>
        <pt x="879" y="-27" on="0"/>
        <pt x="860" y="-32" on="0"/>
        <pt x="851" y="-32" on="1"/>
        <pt x="847" y="-32" on="0"/>
        <pt x="840" y="-31" on="0"/>
        <pt x="835" y="-31" on="1"/>
        <pt x="827" y="-31" on="0"/>
        <pt x="813" y="-32" on="0"/>
        <pt x="806" y="-32" on="1"/>
        <pt x="791" y="-32" on="0"/>
        <pt x="754" y="-27" on="0"/>
        <pt x="718" y="-15" on="0"/>
        <pt x="687" y="4" on="0"/>
        <pt x="679" y="19" on="1"/>
        <pt x="659" y="37" on="0"/>
        <pt x="663" y="57" on="1"/>
        <pt x="665" y="67" on="0"/>
        <pt x="681" y="85" on="0"/>
        <pt x="694" y="96" on="1"/>
        <pt x="709" y="113" on="0"/>
        <pt x="752" y="142" on="0"/>
        <pt x="772" y="156" on="1"/>
        <pt x="783" y="167" on="0"/>
        <pt x="804" y="189" on="0"/>
        <pt x="812" y="203" on="1"/>
        <pt x="812" y="214" on="1"/>
        <pt x="812" y="229" on="0"/>
        <pt x="813" y="259" on="0"/>
        <pt x="818" y="274" on="1"/>
        <pt x="819" y="277" on="0"/>
        <pt x="823" y="284" on="0"/>
        <pt x="825" y="289" on="1"/>
        <pt x="817" y="316" on="0"/>
        <pt x="782" y="363" on="0"/>
        <pt x="764" y="381" on="1"/>
        <pt x="759" y="383" on="0"/>
        <pt x="749" y="383" on="1"/>
        <pt x="722" y="383" on="0"/>
        <pt x="666" y="372" on="0"/>
        <pt x="639" y="372" on="1"/>
        <pt x="625" y="372" on="0"/>
        <pt x="598" y="380" on="0"/>
        <pt x="596" y="396" on="1"/>
        <pt x="567" y="383" on="0"/>
        <pt x="511" y="360" on="0"/>
        <pt x="482" y="351" on="1"/>
        <pt x="464" y="345" on="0"/>
        <pt x="447" y="339" on="0"/>
        <pt x="439" y="331" on="0"/>
        <pt x="432" y="315" on="0"/>
        <pt x="423" y="300" on="1"/>
        <pt x="418" y="290" on="0"/>
        <pt x="414" y="274" on="0"/>
        <pt x="412" y="264" on="1"/>
        <pt x="409" y="251" on="0"/>
        <pt x="396" y="236" on="0"/>
        <pt x="382" y="223" on="0"/>
        <pt x="370" y="209" on="0"/>
        <pt x="368" y="198" on="1"/>
        <pt x="365" y="190" on="0"/>
        <pt x="367" y="182" on="1"/>
        <pt x="365" y="177" on="1"/>
        <pt x="362" y="162" on="0"/>
        <pt x="375" y="145" on="0"/>
        <pt x="396" y="136" on="0"/>
        <pt x="421" y="128" on="0"/>
        <pt x="429" y="122" on="1"/>
        <pt x="438" y="116" on="0"/>
        <pt x="452" y="89" on="0"/>
        <pt x="461" y="58" on="0"/>
        <pt x="464" y="27" on="0"/>
        <pt x="461" y="16" on="1"/>
        <pt x="460" y="11" on="1"/>
        <pt x="447" y="11" on="1"/>
        <pt x="407" y="11" on="0"/>
        <pt x="327" y="4" on="0"/>
        <pt x="247" y="-5" on="0"/>
        <pt x="167" y="-12" on="0"/>
        <pt x="127" y="-12" on="1"/>
        <pt x="113" y="-12" on="0"/>
        <pt x="61" y="-10" on="0"/>
        <pt x="10" y="-1" on="0"/>
        <pt x="-25" y="20" on="0"/>
        <pt x="-21" y="40" on="1"/>
        <pt x="-15" y="71" on="0"/>
        <pt x="34" y="104" on="0"/>
        <pt x="95" y="125" on="0"/>
        <pt x="157" y="141" on="0"/>
        <pt x="178" y="155" on="1"/>
        <pt x="192" y="165" on="0"/>
        <pt x="217" y="210" on="0"/>
        <pt x="238" y="262" on="0"/>
        <pt x="256" y="313" on="0"/>
        <pt x="262" y="328" on="1"/>
        <pt x="266" y="338" on="0"/>
        <pt x="274" y="375" on="0"/>
        <pt x="279" y="381" on="1"/>
        <pt x="292" y="398" on="0"/>
        <pt x="304" y="404" on="0"/>
        <pt x="310" y="408" on="0"/>
        <pt x="314" y="425" on="0"/>
        <pt x="320" y="452" on="1"/>
        <pt x="323" y="464" on="0"/>
        <pt x="335" y="477" on="0"/>
        <pt x="349" y="487" on="0"/>
        <pt x="360" y="496" on="0"/>
        <pt x="362" y="504" on="1"/>
        <pt x="365" y="518" on="0"/>
        <pt x="354" y="541" on="0"/>
        <pt x="356" y="555" on="1"/>
        <pt x="358" y="563" on="0"/>
        <pt x="369" y="575" on="0"/>
        <pt x="381" y="585" on="0"/>
        <pt x="391" y="596" on="0"/>
        <pt x="393" y="604" on="1"/>
        <pt x="395" y="615" on="0"/>
        <pt x="391" y="637" on="0"/>
        <pt x="393" y="648" on="1"/>
        <pt x="395" y="656" on="0"/>
        <pt x="408" y="663" on="0"/>
        <pt x="421" y="667" on="0"/>
        <pt x="433" y="670" on="0"/>
        <pt x="433" y="673" on="1"/>
        <pt x="431" y="679" on="0"/>
        <pt x="424" y="679" on="1"/>
        <pt x="412" y="679" on="0"/>
        <pt x="409" y="666" on="1"/>
        <pt x="403" y="671" on="0"/>
        <pt x="395" y="684" on="0"/>
        <pt x="397" y="692" on="1"/>
        <pt x="399" y="702" on="0"/>
        <pt x="413" y="719" on="0"/>
        <pt x="430" y="741" on="0"/>
        <pt x="446" y="769" on="0"/>
        <pt x="450" y="789" on="1"/>
        <pt x="455" y="810" on="0"/>
        <pt x="450" y="849" on="0"/>
        <pt x="454" y="869" on="1"/>
        <pt x="459" y="890" on="0"/>
        <pt x="497" y="927" on="0"/>
        <pt x="508" y="948" on="1"/>
        <pt x="518" y="967" on="0"/>
        <pt x="528" y="1009" on="0"/>
        <pt x="538" y="1051" on="0"/>
        <pt x="551" y="1092" on="0"/>
        <pt x="564" y="1110" on="1"/>
        <pt x="576" y="1126" on="0"/>
        <pt x="591" y="1146" on="0"/>
        <pt x="603" y="1165" on="0"/>
        <pt x="613" y="1188" on="0"/>
        <pt x="620" y="1207" on="1"/>
        <pt x="631" y="1236" on="0"/>
        <pt x="663" y="1290" on="0"/>
        <pt x="673" y="1319" on="1"/>
        <pt x="680" y="1341" on="0"/>
        <pt x="687" y="1372" on="0"/>
        <pt x="701" y="1396" on="0"/>
        <pt x="727" y="1414" on="0"/>
        <pt x="753" y="1423" on="1"/>
        <pt x="781" y="1432" on="0"/>
        <pt x="834" y="1439" on="0"/>
        <pt x="860" y="1439" on="1"/>
        <pt x="868" y="1439" on="0"/>
        <pt x="883" y="1439" on="0"/>
        <pt x="891" y="1438" on="1"/>
        <pt x="917" y="1443" on="1"/>
        <pt x="927" y="1444" on="0"/>
        <pt x="955" y="1442" on="0"/>
        <pt x="985" y="1437" on="0"/>
        <pt x="1013" y="1433" on="0"/>
        <pt x="1023" y="1433" on="1"/>
        <pt x="1042" y="1433" on="0"/>
        <pt x="1071" y="1422" on="0"/>
        <pt x="1096" y="1409" on="0"/>
        <pt x="1124" y="1398" on="0"/>
        <pt x="1144" y="1398" on="1"/>
        <pt x="1186" y="1398" on="0"/>
        <pt x="1267" y="1414" on="0"/>
        <pt x="1309" y="1414" on="1"/>
        <pt x="1347" y="1414" on="0"/>
        <pt x="1421" y="1397" on="0"/>
        <pt x="1457" y="1397" on="1"/>
        <pt x="1492" y="1397" on="0"/>
        <pt x="1560" y="1414" on="0"/>
        <pt x="1595" y="1414" on="1"/>
        <pt x="1610" y="1414" on="0"/>
        <pt x="1625" y="1411" on="1"/>
        <pt x="1647" y="1387" on="0"/>
        <pt x="1684" y="1355" on="0"/>
        <pt x="1711" y="1322" on="0"/>
        <pt x="1728" y="1278" on="0"/>
        <pt x="1731" y="1242" on="1"/>
        <pt x="1732" y="1229" on="0"/>
        <pt x="1732" y="1192" on="0"/>
        <pt x="1734" y="1157" on="0"/>
        <pt x="1743" y="1129" on="0"/>
        <pt x="1753" y="1126" on="1"/>
        <pt x="1753" y="1112" on="0"/>
        <pt x="1739" y="1112" on="1"/>
        <pt x="1740" y="1098" on="0"/>
        <pt x="1750" y="1069" on="0"/>
        <pt x="1760" y="1040" on="0"/>
        <pt x="1768" y="1011" on="0"/>
      </contour>
      <contour>
        <pt x="805" y="610" on="1"/>
        <pt x="807" y="619" on="0"/>
        <pt x="798" y="648" on="0"/>
        <pt x="789" y="684" on="0"/>
        <pt x="783" y="726" on="0"/>
        <pt x="788" y="749" on="1"/>
        <pt x="793" y="776" on="0"/>
        <pt x="788" y="829" on="0"/>
        <pt x="791" y="856" on="1"/>
        <pt x="793" y="878" on="0"/>
        <pt x="799" y="931" on="0"/>
        <pt x="793" y="978" on="0"/>
        <pt x="766" y="1009" on="0"/>
        <pt x="735" y="1009" on="1"/>
        <pt x="732" y="1001" on="0"/>
        <pt x="720" y="994" on="0"/>
        <pt x="706" y="989" on="0"/>
        <pt x="692" y="985" on="0"/>
        <pt x="686" y="980" on="1"/>
        <pt x="686" y="974" on="0"/>
        <pt x="685" y="971" on="1"/>
        <pt x="681" y="953" on="0"/>
        <pt x="660" y="922" on="0"/>
        <pt x="651" y="906" on="1"/>
        <pt x="640" y="889" on="0"/>
        <pt x="628" y="852" on="0"/>
        <pt x="624" y="834" on="1"/>
        <pt x="621" y="818" on="0"/>
        <pt x="617" y="788" on="0"/>
        <pt x="614" y="773" on="1"/>
        <pt x="609" y="750" on="0"/>
        <pt x="594" y="717" on="0"/>
        <pt x="579" y="689" on="0"/>
        <pt x="566" y="664" on="0"/>
        <pt x="563" y="650" on="1"/>
        <pt x="557" y="620" on="0"/>
        <pt x="552" y="576" on="0"/>
        <pt x="560" y="547" on="0"/>
        <pt x="583" y="532" on="0"/>
        <pt x="606" y="532" on="1"/>
        <pt x="622" y="532" on="0"/>
        <pt x="685" y="540" on="0"/>
        <pt x="749" y="559" on="0"/>
        <pt x="800" y="589" on="0"/>
      </contour>
      <contour>
        <pt x="902" y="752" on="1"/>
        <pt x="896" y="752" on="0"/>
        <pt x="886" y="748" on="0"/>
        <pt x="884" y="741" on="1"/>
        <pt x="922" y="719" on="0"/>
        <pt x="967" y="680" on="0"/>
        <pt x="992" y="656" on="0"/>
        <pt x="1004" y="653" on="0"/>
        <pt x="1010" y="667" on="1"/>
        <pt x="1018" y="685" on="0"/>
        <pt x="997" y="717" on="0"/>
        <pt x="960" y="739" on="0"/>
        <pt x="917" y="752" on="0"/>
      </contour>
    </TTGlyph>
    <TTGlyph name="AEacute" xMin="-25" yMin="-32" xMax="1768" yMax="1851">
      <component glyphName="AE" x="0" y="0" flags="0x204"/>
      <component glyphName="acute" x="926" y="364" flags="0x4"/>
    </TTGlyph>
    <TTGlyph name="Aacute" xMin="-2" yMin="-32" xMax="1126" yMax="1834">
      <component glyphName="A" x="0" y="0" flags="0x204"/>
      <component glyphName="acute" x="527" y="347" flags="0x4"/>
    </TTGlyph>
    <TTGlyph name="Abreve" xMin="-2" yMin="-32" xMax="1126" yMax="1822">
      <component glyphName="A" x="0" y="0" flags="0x204"/>
      <component glyphName="breve" x="301" y="296" flags="0x4"/>
    </TTGlyph>
    <TTGlyph name="Acircumflex" xMin="-2" yMin="-32" xMax="1126" yMax="1817">
      <component glyphName="A" x="0" y="0" flags="0x204"/>
      <component glyphName="circumflex" x="273" y="291" flags="0x4"/>
    </TTGlyph>
    <TTGlyph name="Adieresis" xMin="-2" yMin="-32" xMax="1126" yMax="1772">
      <component glyphName="A" x="0" y="0" flags="0x204"/>
      <component glyphName="dieresis" x="242" y="236" flags="0x4"/>
    </TTGlyph>
    <TTGlyph name="Agrave" xMin="-2" yMin="-32" xMax="1126" yMax="1841">
      <component glyphName="A" x="0" y="0" flags="0x204"/>
      <component glyphName="grave" x="159" y="305" flags="0x4"/>
    </TTGlyph>
    <TTGlyph name="Amacron" xMin="-2" yMin="-32" xMax="1126" yMax="1657">
      <component glyphName="A" x="0" y="0" flags="0x204"/>
      <component glyphName="macron" x="309" y="229" flags="0x4"/>
    </TTGlyph>
    <TTGlyph name="Aogonek" xMin="-2" yMin="-281" xMax="1205" yMax="1439">
      <contour>
        <pt x="1205" y="-136" on="1"/>
        <pt x="1205" y="-156" on="0"/>
        <pt x="1183" y="-181" on="0"/>
        <pt x="1150" y="-197" on="0"/>
        <pt x="1113" y="-208" on="0"/>
        <pt x="1098" y="-213" on="1"/>
        <pt x="1069" y="-224" on="0"/>
        <pt x="1033" y="-248" on="0"/>
        <pt x="997" y="-268" on="0"/>
        <pt x="953" y="-281" on="0"/>
        <pt x="916" y="-281" on="1"/>
        <pt x="905" y="-281" on="0"/>
        <pt x="892" y="-276" on="0"/>
        <pt x="882" y="-269" on="0"/>
        <pt x="871" y="-260" on="0"/>
        <pt x="863" y="-256" on="1"/>
        <pt x="855" y="-253" on="0"/>
        <pt x="838" y="-251" on="0"/>
        <pt x="830" y="-246" on="1"/>
        <pt x="820" y="-241" on="0"/>
        <pt x="799" y="-219" on="0"/>
        <pt x="782" y="-192" on="0"/>
        <pt x="771" y="-164" on="0"/>
        <pt x="771" y="-152" on="1"/>
        <pt x="771" y="-136" on="0"/>
        <pt x="777" y="-108" on="0"/>
        <pt x="777" y="-92" on="1"/>
        <pt x="773" y="-72" on="0"/>
        <pt x="773" y="-49" on="1"/>
        <pt x="773" y="-33" on="0"/>
        <pt x="785" y="-16" on="1"/>
        <pt x="765" y="-10" on="0"/>
        <pt x="726" y="4" on="0"/>
        <pt x="696" y="22" on="0"/>
        <pt x="678" y="44" on="0"/>
        <pt x="678" y="57" on="1"/>
        <pt x="678" y="74" on="0"/>
        <pt x="717" y="109" on="0"/>
        <pt x="765" y="152" on="0"/>
        <pt x="804" y="206" on="0"/>
        <pt x="804" y="242" on="1"/>
        <pt x="804" y="263" on="0"/>
        <pt x="787" y="303" on="0"/>
        <pt x="761" y="338" on="0"/>
        <pt x="728" y="368" on="0"/>
        <pt x="713" y="381" on="1"/>
        <pt x="708" y="383" on="0"/>
        <pt x="698" y="383" on="1"/>
        <pt x="671" y="383" on="0"/>
        <pt x="617" y="372" on="0"/>
        <pt x="590" y="372" on="1"/>
        <pt x="576" y="372" on="0"/>
        <pt x="547" y="380" on="0"/>
        <pt x="542" y="396" on="1"/>
        <pt x="516" y="383" on="0"/>
        <pt x="464" y="360" on="0"/>
        <pt x="437" y="351" on="1"/>
        <pt x="420" y="345" on="0"/>
        <pt x="405" y="339" on="0"/>
        <pt x="398" y="331" on="0"/>
        <pt x="395" y="315" on="0"/>
        <pt x="389" y="300" on="1"/>
        <pt x="385" y="290" on="0"/>
        <pt x="385" y="274" on="0"/>
        <pt x="385" y="264" on="1"/>
        <pt x="385" y="251" on="0"/>
        <pt x="375" y="236" on="0"/>
        <pt x="364" y="223" on="0"/>
        <pt x="354" y="209" on="0"/>
        <pt x="354" y="198" on="1"/>
        <pt x="354" y="189" on="0"/>
        <pt x="357" y="182" on="1"/>
        <pt x="356" y="177" on="1"/>
        <pt x="356" y="162" on="0"/>
        <pt x="372" y="145" on="0"/>
        <pt x="395" y="136" on="0"/>
        <pt x="421" y="128" on="0"/>
        <pt x="431" y="122" on="1"/>
        <pt x="441" y="116" on="0"/>
        <pt x="460" y="89" on="0"/>
        <pt x="475" y="58" on="0"/>
        <pt x="485" y="27" on="0"/>
        <pt x="485" y="16" on="1"/>
        <pt x="485" y="11" on="1"/>
        <pt x="472" y="11" on="1"/>
        <pt x="432" y="11" on="0"/>
        <pt x="353" y="4" on="0"/>
        <pt x="275" y="-5" on="0"/>
        <pt x="196" y="-12" on="0"/>
        <pt x="156" y="-12" on="1"/>
        <pt x="142" y="-12" on="0"/>
        <pt x="89" y="-10" on="0"/>
        <pt x="37" y="-1" on="0"/>
        <pt x="-2" y="20" on="0"/>
        <pt x="-2" y="40" on="1"/>
        <pt x="-2" y="61" on="0"/>
        <pt x="17" y="89" on="0"/>
        <pt x="48" y="108" on="0"/>
        <pt x="87" y="121" on="0"/>
        <pt x="126" y="133" on="0"/>
        <pt x="161" y="145" on="0"/>
        <pt x="173" y="155" on="1"/>
        <pt x="185" y="165" on="0"/>
        <pt x="201" y="210" on="0"/>
        <pt x="211" y="262" on="0"/>
        <pt x="219" y="313" on="0"/>
        <pt x="222" y="328" on="1"/>
        <pt x="223" y="333" on="0"/>
        <pt x="224" y="348" on="0"/>
        <pt x="225" y="364" on="0"/>
        <pt x="226" y="378" on="0"/>
        <pt x="228" y="381" on="1"/>
        <pt x="238" y="398" on="0"/>
        <pt x="249" y="404" on="0"/>
        <pt x="254" y="408" on="0"/>
        <pt x="255" y="425" on="0"/>
        <pt x="255" y="452" on="1"/>
        <pt x="255" y="464" on="0"/>
        <pt x="265" y="477" on="0"/>
        <pt x="276" y="487" on="0"/>
        <pt x="286" y="496" on="0"/>
        <pt x="286" y="504" on="1"/>
        <pt x="286" y="518" on="0"/>
        <pt x="270" y="541" on="0"/>
        <pt x="270" y="555" on="1"/>
        <pt x="270" y="563" on="0"/>
        <pt x="278" y="575" on="0"/>
        <pt x="289" y="585" on="0"/>
        <pt x="297" y="596" on="0"/>
        <pt x="297" y="604" on="1"/>
        <pt x="297" y="615" on="0"/>
        <pt x="288" y="637" on="0"/>
        <pt x="288" y="648" on="1"/>
        <pt x="288" y="656" on="0"/>
        <pt x="299" y="663" on="0"/>
        <pt x="312" y="667" on="0"/>
        <pt x="323" y="670" on="0"/>
        <pt x="323" y="673" on="1"/>
        <pt x="320" y="679" on="0"/>
        <pt x="312" y="679" on="1"/>
        <pt x="300" y="679" on="0"/>
        <pt x="300" y="666" on="1"/>
        <pt x="293" y="671" on="0"/>
        <pt x="283" y="684" on="0"/>
        <pt x="283" y="692" on="1"/>
        <pt x="283" y="702" on="0"/>
        <pt x="293" y="719" on="0"/>
        <pt x="306" y="741" on="0"/>
        <pt x="316" y="769" on="0"/>
        <pt x="316" y="789" on="1"/>
        <pt x="316" y="810" on="0"/>
        <pt x="304" y="849" on="0"/>
        <pt x="304" y="869" on="1"/>
        <pt x="304" y="879" on="0"/>
        <pt x="313" y="899" on="0"/>
        <pt x="326" y="918" on="0"/>
        <pt x="339" y="937" on="0"/>
        <pt x="342" y="948" on="1"/>
        <pt x="348" y="967" on="0"/>
        <pt x="349" y="1009" on="0"/>
        <pt x="350" y="1051" on="0"/>
        <pt x="355" y="1092" on="0"/>
        <pt x="365" y="1110" on="1"/>
        <pt x="374" y="1126" on="0"/>
        <pt x="384" y="1146" on="0"/>
        <pt x="392" y="1165" on="0"/>
        <pt x="398" y="1188" on="0"/>
        <pt x="401" y="1207" on="1"/>
        <pt x="406" y="1236" on="0"/>
        <pt x="427" y="1290" on="0"/>
        <pt x="431" y="1319" on="1"/>
        <pt x="433" y="1341" on="0"/>
        <pt x="434" y="1372" on="0"/>
        <pt x="443" y="1396" on="0"/>
        <pt x="466" y="1414" on="0"/>
        <pt x="490" y="1423" on="1"/>
        <pt x="516" y="1432" on="0"/>
        <pt x="568" y="1439" on="0"/>
        <pt x="594" y="1439" on="1"/>
        <pt x="624" y="1439" on="0"/>
        <pt x="656" y="1436" on="1"/>
        <pt x="659" y="1419" on="0"/>
        <pt x="679" y="1392" on="0"/>
        <pt x="702" y="1366" on="0"/>
        <pt x="723" y="1339" on="0"/>
        <pt x="727" y="1322" on="1"/>
        <pt x="732" y="1299" on="0"/>
        <pt x="735" y="1258" on="0"/>
        <pt x="750" y="1238" on="1"/>
        <pt x="757" y="1227" on="0"/>
        <pt x="757" y="1212" on="1"/>
        <pt x="757" y="1189" on="0"/>
        <pt x="745" y="1147" on="0"/>
        <pt x="745" y="1125" on="1"/>
        <pt x="745" y="1112" on="0"/>
        <pt x="761" y="1052" on="0"/>
        <pt x="783" y="983" on="0"/>
        <pt x="803" y="918" on="0"/>
        <pt x="808" y="900" on="1"/>
        <pt x="817" y="862" on="0"/>
        <pt x="818" y="782" on="0"/>
        <pt x="830" y="744" on="1"/>
        <pt x="842" y="704" on="0"/>
        <pt x="860" y="625" on="0"/>
        <pt x="863" y="583" on="1"/>
        <pt x="865" y="544" on="0"/>
        <pt x="881" y="471" on="0"/>
        <pt x="899" y="398" on="0"/>
        <pt x="914" y="324" on="0"/>
        <pt x="914" y="284" on="1"/>
        <pt x="914" y="269" on="0"/>
        <pt x="909" y="237" on="0"/>
        <pt x="898" y="225" on="1"/>
        <pt x="919" y="200" on="0"/>
        <pt x="972" y="142" on="0"/>
        <pt x="998" y="125" on="1"/>
        <pt x="1008" y="119" on="0"/>
        <pt x="1050" y="113" on="0"/>
        <pt x="1093" y="104" on="0"/>
        <pt x="1126" y="87" on="0"/>
        <pt x="1126" y="71" on="1"/>
        <pt x="1126" y="60" on="0"/>
        <pt x="1114" y="39" on="0"/>
        <pt x="1096" y="22" on="0"/>
        <pt x="1074" y="11" on="0"/>
        <pt x="1064" y="11" on="1"/>
        <pt x="1057" y="11" on="0"/>
        <pt x="1043" y="13" on="0"/>
        <pt x="1036" y="13" on="1"/>
        <pt x="1027" y="13" on="0"/>
        <pt x="1021" y="2" on="0"/>
        <pt x="1016" y="-10" on="0"/>
        <pt x="1006" y="-21" on="0"/>
        <pt x="993" y="-21" on="1"/>
        <pt x="985" y="-21" on="0"/>
        <pt x="967" y="-17" on="0"/>
        <pt x="958" y="-17" on="1"/>
        <pt x="944" y="-17" on="0"/>
        <pt x="929" y="-22" on="1"/>
        <pt x="923" y="-29" on="0"/>
        <pt x="906" y="-41" on="0"/>
        <pt x="891" y="-55" on="0"/>
        <pt x="881" y="-74" on="0"/>
        <pt x="881" y="-88" on="1"/>
        <pt x="881" y="-100" on="0"/>
        <pt x="891" y="-111" on="0"/>
        <pt x="905" y="-116" on="0"/>
        <pt x="922" y="-118" on="0"/>
        <pt x="930" y="-121" on="1"/>
        <pt x="935" y="-123" on="0"/>
        <pt x="945" y="-129" on="0"/>
        <pt x="951" y="-129" on="1"/>
        <pt x="965" y="-129" on="0"/>
        <pt x="988" y="-114" on="0"/>
        <pt x="1002" y="-111" on="1"/>
        <pt x="1008" y="-109" on="0"/>
        <pt x="1021" y="-109" on="0"/>
        <pt x="1027" y="-107" on="1"/>
        <pt x="1043" y="-103" on="0"/>
        <pt x="1071" y="-87" on="0"/>
        <pt x="1100" y="-70" on="0"/>
        <pt x="1130" y="-58" on="0"/>
        <pt x="1148" y="-58" on="1"/>
        <pt x="1165" y="-58" on="0"/>
        <pt x="1187" y="-72" on="0"/>
        <pt x="1200" y="-94" on="0"/>
        <pt x="1205" y="-122" on="0"/>
      </contour>
      <contour>
        <pt x="707" y="610" on="1"/>
        <pt x="707" y="619" on="0"/>
        <pt x="693" y="648" on="0"/>
        <pt x="676" y="684" on="0"/>
        <pt x="662" y="726" on="0"/>
        <pt x="662" y="749" on="1"/>
        <pt x="662" y="776" on="0"/>
        <pt x="646" y="829" on="0"/>
        <pt x="643" y="856" on="1"/>
        <pt x="641" y="878" on="0"/>
        <pt x="636" y="931" on="0"/>
        <pt x="620" y="978" on="0"/>
        <pt x="587" y="1009" on="0"/>
        <pt x="556" y="1009" on="1"/>
        <pt x="554" y="1001" on="0"/>
        <pt x="544" y="994" on="0"/>
        <pt x="531" y="989" on="0"/>
        <pt x="517" y="985" on="0"/>
        <pt x="513" y="980" on="1"/>
        <pt x="514" y="977" on="0"/>
        <pt x="514" y="971" on="1"/>
        <pt x="514" y="953" on="0"/>
        <pt x="499" y="922" on="0"/>
        <pt x="493" y="906" on="1"/>
        <pt x="486" y="889" on="0"/>
        <pt x="481" y="852" on="0"/>
        <pt x="481" y="834" on="1"/>
        <pt x="481" y="818" on="0"/>
        <pt x="483" y="788" on="0"/>
        <pt x="483" y="773" on="1"/>
        <pt x="483" y="750" on="0"/>
        <pt x="475" y="717" on="0"/>
        <pt x="465" y="689" on="0"/>
        <pt x="457" y="664" on="0"/>
        <pt x="457" y="650" on="1"/>
        <pt x="457" y="620" on="0"/>
        <pt x="461" y="576" on="0"/>
        <pt x="475" y="547" on="0"/>
        <pt x="501" y="532" on="0"/>
        <pt x="524" y="532" on="1"/>
        <pt x="540" y="532" on="0"/>
        <pt x="601" y="540" on="0"/>
        <pt x="662" y="559" on="0"/>
        <pt x="707" y="589" on="0"/>
      </contour>
    </TTGlyph>
    <TTGlyph name="Aring" xMin="-2" yMin="-32" xMax="1126" yMax="1782">
      <contour>
        <pt x="707" y="610" on="1"/>
        <pt x="707" y="619" on="0"/>
        <pt x="693" y="648" on="0"/>
        <pt x="676" y="684" on="0"/>
        <pt x="662" y="726" on="0"/>
        <pt x="662" y="749" on="1"/>
        <pt x="662" y="776" on="0"/>
        <pt x="646" y="829" on="0"/>
        <pt x="643" y="856" on="1"/>
        <pt x="641" y="878" on="0"/>
        <pt x="636" y="931" on="0"/>
        <pt x="620" y="978" on="0"/>
        <pt x="587" y="1009" on="0"/>
        <pt x="556" y="1009" on="1"/>
        <pt x="554" y="1001" on="0"/>
        <pt x="544" y="994" on="0"/>
        <pt x="531" y="989" on="0"/>
        <pt x="517" y="985" on="0"/>
        <pt x="513" y="980" on="1"/>
        <pt x="514" y="977" on="0"/>
        <pt x="514" y="971" on="1"/>
        <pt x="514" y="953" on="0"/>
        <pt x="499" y="922" on="0"/>
        <pt x="493" y="906" on="1"/>
        <pt x="486" y="889" on="0"/>
        <pt x="481" y="852" on="0"/>
        <pt x="481" y="834" on="1"/>
        <pt x="481" y="818" on="0"/>
        <pt x="483" y="788" on="0"/>
        <pt x="483" y="773" on="1"/>
        <pt x="483" y="750" on="0"/>
        <pt x="475" y="717" on="0"/>
        <pt x="465" y="689" on="0"/>
        <pt x="457" y="664" on="0"/>
        <pt x="457" y="650" on="1"/>
        <pt x="457" y="620" on="0"/>
        <pt x="461" y="576" on="0"/>
        <pt x="475" y="547" on="0"/>
        <pt x="501" y="532" on="0"/>
        <pt x="524" y="532" on="1"/>
        <pt x="540" y="532" on="0"/>
        <pt x="601" y="540" on="0"/>
        <pt x="662" y="559" on="0"/>
        <pt x="707" y="589" on="0"/>
      </contour>
      <contour>
        <pt x="675" y="1533" on="1"/>
        <pt x="675" y="1547" on="0"/>
        <pt x="664" y="1589" on="0"/>
        <pt x="653" y="1598" on="1"/>
        <pt x="648" y="1603" on="0"/>
        <pt x="635" y="1610" on="0"/>
        <pt x="630" y="1615" on="1"/>
        <pt x="620" y="1635" on="1"/>
        <pt x="615" y="1639" on="0"/>
        <pt x="597" y="1644" on="0"/>
        <pt x="576" y="1647" on="0"/>
        <pt x="556" y="1649" on="0"/>
        <pt x="550" y="1649" on="1"/>
        <pt x="536" y="1649" on="0"/>
        <pt x="497" y="1640" on="0"/>
        <pt x="489" y="1625" on="1"/>
        <pt x="486" y="1617" on="0"/>
        <pt x="487" y="1599" on="0"/>
        <pt x="485" y="1590" on="1"/>
        <pt x="483" y="1581" on="0"/>
        <pt x="477" y="1570" on="0"/>
        <pt x="472" y="1560" on="0"/>
        <pt x="468" y="1546" on="0"/>
        <pt x="468" y="1533" on="1"/>
        <pt x="468" y="1525" on="0"/>
        <pt x="458" y="1511" on="0"/>
        <pt x="458" y="1502" on="1"/>
        <pt x="458" y="1488" on="0"/>
        <pt x="480" y="1458" on="0"/>
        <pt x="512" y="1434" on="0"/>
        <pt x="547" y="1418" on="0"/>
        <pt x="560" y="1418" on="1"/>
        <pt x="571" y="1418" on="0"/>
        <pt x="585" y="1425" on="0"/>
        <pt x="596" y="1436" on="0"/>
        <pt x="607" y="1450" on="0"/>
        <pt x="614" y="1457" on="1"/>
        <pt x="622" y="1466" on="0"/>
        <pt x="643" y="1481" on="0"/>
        <pt x="662" y="1498" on="0"/>
        <pt x="675" y="1519" on="0"/>
      </contour>
      <contour>
        <pt x="782" y="1543" on="1"/>
        <pt x="782" y="1526" on="0"/>
        <pt x="778" y="1489" on="0"/>
        <pt x="773" y="1473" on="1"/>
        <pt x="771" y="1467" on="0"/>
        <pt x="765" y="1458" on="0"/>
        <pt x="763" y="1453" on="1"/>
        <pt x="761" y="1447" on="0"/>
        <pt x="761" y="1434" on="0"/>
        <pt x="759" y="1428" on="1"/>
        <pt x="750" y="1400" on="0"/>
        <pt x="731" y="1384" on="0"/>
        <pt x="720" y="1373" on="0"/>
        <pt x="719" y="1353" on="0"/>
        <pt x="727" y="1322" on="1"/>
        <pt x="732" y="1299" on="0"/>
        <pt x="735" y="1258" on="0"/>
        <pt x="750" y="1238" on="1"/>
        <pt x="757" y="1227" on="0"/>
        <pt x="757" y="1212" on="1"/>
        <pt x="757" y="1189" on="0"/>
        <pt x="745" y="1147" on="0"/>
        <pt x="745" y="1125" on="1"/>
        <pt x="745" y="1112" on="0"/>
        <pt x="761" y="1052" on="0"/>
        <pt x="783" y="983" on="0"/>
        <pt x="803" y="918" on="0"/>
        <pt x="808" y="900" on="1"/>
        <pt x="817" y="862" on="0"/>
        <pt x="818" y="782" on="0"/>
        <pt x="830" y="744" on="1"/>
        <pt x="842" y="704" on="0"/>
        <pt x="860" y="625" on="0"/>
        <pt x="863" y="583" on="1"/>
        <pt x="865" y="544" on="0"/>
        <pt x="881" y="471" on="0"/>
        <pt x="899" y="398" on="0"/>
        <pt x="914" y="324" on="0"/>
        <pt x="914" y="284" on="1"/>
        <pt x="914" y="269" on="0"/>
        <pt x="909" y="237" on="0"/>
        <pt x="898" y="225" on="1"/>
        <pt x="919" y="200" on="0"/>
        <pt x="972" y="142" on="0"/>
        <pt x="998" y="125" on="1"/>
        <pt x="1008" y="119" on="0"/>
        <pt x="1050" y="113" on="0"/>
        <pt x="1093" y="104" on="0"/>
        <pt x="1126" y="87" on="0"/>
        <pt x="1126" y="71" on="1"/>
        <pt x="1126" y="60" on="0"/>
        <pt x="1114" y="39" on="0"/>
        <pt x="1096" y="22" on="0"/>
        <pt x="1074" y="11" on="0"/>
        <pt x="1064" y="11" on="1"/>
        <pt x="1057" y="11" on="0"/>
        <pt x="1043" y="13" on="0"/>
        <pt x="1036" y="13" on="1"/>
        <pt x="1027" y="13" on="0"/>
        <pt x="1021" y="2" on="0"/>
        <pt x="1016" y="-10" on="0"/>
        <pt x="1006" y="-21" on="0"/>
        <pt x="993" y="-21" on="1"/>
        <pt x="985" y="-21" on="0"/>
        <pt x="967" y="-17" on="0"/>
        <pt x="958" y="-17" on="1"/>
        <pt x="939" y="-17" on="0"/>
        <pt x="904" y="-32" on="0"/>
        <pt x="884" y="-32" on="1"/>
        <pt x="867" y="-32" on="0"/>
        <pt x="799" y="-21" on="0"/>
        <pt x="730" y="2" on="0"/>
        <pt x="678" y="35" on="0"/>
        <pt x="678" y="57" on="1"/>
        <pt x="678" y="74" on="0"/>
        <pt x="717" y="109" on="0"/>
        <pt x="765" y="152" on="0"/>
        <pt x="804" y="206" on="0"/>
        <pt x="804" y="242" on="1"/>
        <pt x="804" y="263" on="0"/>
        <pt x="787" y="303" on="0"/>
        <pt x="761" y="338" on="0"/>
        <pt x="728" y="368" on="0"/>
        <pt x="713" y="381" on="1"/>
        <pt x="708" y="383" on="0"/>
        <pt x="698" y="383" on="1"/>
        <pt x="671" y="383" on="0"/>
        <pt x="617" y="372" on="0"/>
        <pt x="590" y="372" on="1"/>
        <pt x="576" y="372" on="0"/>
        <pt x="547" y="380" on="0"/>
        <pt x="542" y="396" on="1"/>
        <pt x="516" y="383" on="0"/>
        <pt x="464" y="360" on="0"/>
        <pt x="437" y="351" on="1"/>
        <pt x="420" y="345" on="0"/>
        <pt x="405" y="339" on="0"/>
        <pt x="398" y="331" on="0"/>
        <pt x="395" y="315" on="0"/>
        <pt x="389" y="300" on="1"/>
        <pt x="385" y="290" on="0"/>
        <pt x="385" y="274" on="0"/>
        <pt x="385" y="264" on="1"/>
        <pt x="385" y="251" on="0"/>
        <pt x="375" y="236" on="0"/>
        <pt x="364" y="223" on="0"/>
        <pt x="354" y="209" on="0"/>
        <pt x="354" y="198" on="1"/>
        <pt x="354" y="189" on="0"/>
        <pt x="357" y="182" on="1"/>
        <pt x="356" y="177" on="1"/>
        <pt x="356" y="162" on="0"/>
        <pt x="372" y="145" on="0"/>
        <pt x="395" y="136" on="0"/>
        <pt x="421" y="128" on="0"/>
        <pt x="431" y="122" on="1"/>
        <pt x="441" y="116" on="0"/>
        <pt x="460" y="89" on="0"/>
        <pt x="475" y="58" on="0"/>
        <pt x="485" y="27" on="0"/>
        <pt x="485" y="16" on="1"/>
        <pt x="485" y="11" on="1"/>
        <pt x="472" y="11" on="1"/>
        <pt x="432" y="11" on="0"/>
        <pt x="353" y="4" on="0"/>
        <pt x="275" y="-5" on="0"/>
        <pt x="196" y="-12" on="0"/>
        <pt x="156" y="-12" on="1"/>
        <pt x="142" y="-12" on="0"/>
        <pt x="89" y="-10" on="0"/>
        <pt x="37" y="-1" on="0"/>
        <pt x="-2" y="20" on="0"/>
        <pt x="-2" y="40" on="1"/>
        <pt x="-2" y="61" on="0"/>
        <pt x="17" y="89" on="0"/>
        <pt x="48" y="108" on="0"/>
        <pt x="87" y="121" on="0"/>
        <pt x="126" y="133" on="0"/>
        <pt x="161" y="145" on="0"/>
        <pt x="173" y="155" on="1"/>
        <pt x="185" y="165" on="0"/>
        <pt x="201" y="210" on="0"/>
        <pt x="211" y="262" on="0"/>
        <pt x="219" y="313" on="0"/>
        <pt x="222" y="328" on="1"/>
        <pt x="223" y="333" on="0"/>
        <pt x="224" y="348" on="0"/>
        <pt x="225" y="364" on="0"/>
        <pt x="226" y="378" on="0"/>
        <pt x="228" y="381" on="1"/>
        <pt x="238" y="398" on="0"/>
        <pt x="249" y="404" on="0"/>
        <pt x="254" y="408" on="0"/>
        <pt x="255" y="425" on="0"/>
        <pt x="255" y="452" on="1"/>
        <pt x="255" y="464" on="0"/>
        <pt x="265" y="477" on="0"/>
        <pt x="276" y="487" on="0"/>
        <pt x="286" y="496" on="0"/>
        <pt x="286" y="504" on="1"/>
        <pt x="286" y="518" on="0"/>
        <pt x="270" y="541" on="0"/>
        <pt x="270" y="555" on="1"/>
        <pt x="270" y="563" on="0"/>
        <pt x="278" y="575" on="0"/>
        <pt x="289" y="585" on="0"/>
        <pt x="297" y="596" on="0"/>
        <pt x="297" y="604" on="1"/>
        <pt x="297" y="615" on="0"/>
        <pt x="288" y="637" on="0"/>
        <pt x="288" y="648" on="1"/>
        <pt x="288" y="656" on="0"/>
        <pt x="299" y="663" on="0"/>
        <pt x="312" y="667" on="0"/>
        <pt x="323" y="670" on="0"/>
        <pt x="323" y="673" on="1"/>
        <pt x="320" y="679" on="0"/>
        <pt x="312" y="679" on="1"/>
        <pt x="300" y="679" on="0"/>
        <pt x="300" y="666" on="1"/>
        <pt x="293" y="671" on="0"/>
        <pt x="283" y="684" on="0"/>
        <pt x="283" y="692" on="1"/>
        <pt x="283" y="702" on="0"/>
        <pt x="293" y="719" on="0"/>
        <pt x="306" y="741" on="0"/>
        <pt x="316" y="769" on="0"/>
        <pt x="316" y="789" on="1"/>
        <pt x="316" y="810" on="0"/>
        <pt x="304" y="849" on="0"/>
        <pt x="304" y="869" on="1"/>
        <pt x="304" y="879" on="0"/>
        <pt x="313" y="899" on="0"/>
        <pt x="326" y="918" on="0"/>
        <pt x="339" y="937" on="0"/>
        <pt x="342" y="948" on="1"/>
        <pt x="348" y="967" on="0"/>
        <pt x="349" y="1009" on="0"/>
        <pt x="350" y="1051" on="0"/>
        <pt x="355" y="1092" on="0"/>
        <pt x="365" y="1110" on="1"/>
        <pt x="374" y="1126" on="0"/>
        <pt x="384" y="1146" on="0"/>
        <pt x="392" y="1165" on="0"/>
        <pt x="398" y="1188" on="0"/>
        <pt x="401" y="1207" on="1"/>
        <pt x="406" y="1236" on="0"/>
        <pt x="427" y="1290" on="0"/>
        <pt x="431" y="1319" on="1"/>
        <pt x="433" y="1333" on="0"/>
        <pt x="441" y="1362" on="0"/>
        <pt x="427" y="1373" on="1"/>
        <pt x="418" y="1379" on="0"/>
        <pt x="398" y="1387" on="0"/>
        <pt x="390" y="1395" on="1"/>
        <pt x="372" y="1412" on="0"/>
        <pt x="353" y="1455" on="0"/>
        <pt x="344" y="1503" on="0"/>
        <pt x="343" y="1553" on="0"/>
        <pt x="343" y="1576" on="1"/>
        <pt x="343" y="1597" on="0"/>
        <pt x="354" y="1621" on="0"/>
        <pt x="371" y="1639" on="0"/>
        <pt x="390" y="1656" on="0"/>
        <pt x="399" y="1670" on="1"/>
        <pt x="404" y="1678" on="0"/>
        <pt x="408" y="1694" on="0"/>
        <pt x="413" y="1701" on="1"/>
        <pt x="418" y="1707" on="0"/>
        <pt x="431" y="1711" on="0"/>
        <pt x="437" y="1717" on="1"/>
        <pt x="442" y="1722" on="0"/>
        <pt x="444" y="1735" on="0"/>
        <pt x="450" y="1741" on="1"/>
        <pt x="455" y="1746" on="0"/>
        <pt x="472" y="1750" on="0"/>
        <pt x="478" y="1752" on="1"/>
        <pt x="495" y="1759" on="0"/>
        <pt x="519" y="1770" on="0"/>
        <pt x="543" y="1778" on="0"/>
        <pt x="570" y="1782" on="0"/>
        <pt x="589" y="1782" on="1"/>
        <pt x="598" y="1782" on="0"/>
        <pt x="625" y="1773" on="0"/>
        <pt x="652" y="1760" on="0"/>
        <pt x="675" y="1743" on="0"/>
        <pt x="679" y="1735" on="1"/>
        <pt x="682" y="1729" on="0"/>
        <pt x="682" y="1718" on="0"/>
        <pt x="687" y="1713" on="1"/>
        <pt x="690" y="1707" on="0"/>
        <pt x="704" y="1701" on="0"/>
        <pt x="710" y="1696" on="1"/>
        <pt x="712" y="1694" on="0"/>
        <pt x="729" y="1671" on="0"/>
        <pt x="749" y="1644" on="0"/>
        <pt x="767" y="1619" on="0"/>
        <pt x="771" y="1615" on="1"/>
        <pt x="774" y="1598" on="0"/>
        <pt x="782" y="1560" on="0"/>
      </contour>
    </TTGlyph>
    <TTGlyph name="Atilde" xMin="-2" yMin="-32" xMax="1126" yMax="1707">
      <component glyphName="A" x="0" y="0" flags="0x204"/>
      <component glyphName="tilde" x="271" y="273" flags="0x4"/>
    </TTGlyph>
    <TTGlyph name="B" xMin="60" yMin="-12" xMax="1139" yMax="1440">
      <contour>
        <pt x="1138" y="414" on="1"/>
        <pt x="1138" y="407" on="0"/>
        <pt x="1139" y="384" on="0"/>
        <pt x="1138" y="361" on="0"/>
        <pt x="1135" y="342" on="0"/>
        <pt x="1131" y="338" on="1"/>
        <pt x="1122" y="329" on="0"/>
        <pt x="1102" y="324" on="0"/>
        <pt x="1081" y="323" on="0"/>
        <pt x="1060" y="320" on="0"/>
        <pt x="1050" y="314" on="1"/>
        <pt x="1052" y="304" on="0"/>
        <pt x="1067" y="299" on="0"/>
        <pt x="1084" y="296" on="0"/>
        <pt x="1097" y="287" on="0"/>
        <pt x="1097" y="274" on="1"/>
        <pt x="1097" y="253" on="0"/>
        <pt x="1084" y="226" on="0"/>
        <pt x="1066" y="205" on="0"/>
        <pt x="1048" y="183" on="0"/>
        <pt x="1043" y="166" on="1"/>
        <pt x="1037" y="148" on="0"/>
        <pt x="1019" y="132" on="0"/>
        <pt x="998" y="123" on="0"/>
        <pt x="976" y="113" on="0"/>
        <pt x="966" y="100" on="1"/>
        <pt x="955" y="88" on="0"/>
        <pt x="948" y="88" on="1"/>
        <pt x="945" y="88" on="0"/>
        <pt x="937" y="90" on="0"/>
        <pt x="931" y="90" on="1"/>
        <pt x="926" y="90" on="0"/>
        <pt x="917" y="83" on="0"/>
        <pt x="917" y="78" on="1"/>
        <pt x="917" y="76" on="0"/>
        <pt x="921" y="76" on="0"/>
        <pt x="920" y="75" on="1"/>
        <pt x="908" y="64" on="0"/>
        <pt x="846" y="35" on="0"/>
        <pt x="766" y="10" on="0"/>
        <pt x="679" y="-7" on="0"/>
        <pt x="640" y="-7" on="1"/>
        <pt x="572" y="-7" on="0"/>
        <pt x="439" y="0" on="0"/>
        <pt x="370" y="0" on="1"/>
        <pt x="237" y="0" on="1"/>
        <pt x="234" y="0" on="0"/>
        <pt x="223" y="-12" on="0"/>
        <pt x="216" y="-12" on="1"/>
        <pt x="205" y="-12" on="0"/>
        <pt x="170" y="-6" on="0"/>
        <pt x="136" y="8" on="0"/>
        <pt x="111" y="29" on="0"/>
        <pt x="111" y="43" on="1"/>
        <pt x="111" y="48" on="0"/>
        <pt x="113" y="55" on="0"/>
        <pt x="114" y="60" on="1"/>
        <pt x="123" y="88" on="0"/>
        <pt x="155" y="117" on="0"/>
        <pt x="192" y="138" on="0"/>
        <pt x="231" y="160" on="0"/>
        <pt x="262" y="200" on="0"/>
        <pt x="282" y="268" on="0"/>
        <pt x="282" y="325" on="1"/>
        <pt x="282" y="377" on="0"/>
        <pt x="269" y="479" on="0"/>
        <pt x="269" y="531" on="1"/>
        <pt x="270" y="627" on="0"/>
        <pt x="277" y="815" on="0"/>
        <pt x="278" y="911" on="1"/>
        <pt x="279" y="1068" on="1"/>
        <pt x="279" y="1093" on="0"/>
        <pt x="276" y="1159" on="0"/>
        <pt x="259" y="1220" on="0"/>
        <pt x="222" y="1263" on="0"/>
        <pt x="188" y="1266" on="1"/>
        <pt x="171" y="1267" on="0"/>
        <pt x="127" y="1283" on="0"/>
        <pt x="88" y="1310" on="0"/>
        <pt x="60" y="1344" on="0"/>
        <pt x="60" y="1364" on="1"/>
        <pt x="60" y="1381" on="0"/>
        <pt x="80" y="1404" on="0"/>
        <pt x="108" y="1419" on="0"/>
        <pt x="141" y="1426" on="0"/>
        <pt x="155" y="1426" on="1"/>
        <pt x="187" y="1426" on="0"/>
        <pt x="249" y="1413" on="0"/>
        <pt x="282" y="1413" on="1"/>
        <pt x="323" y="1413" on="0"/>
        <pt x="406" y="1421" on="0"/>
        <pt x="488" y="1432" on="0"/>
        <pt x="571" y="1440" on="0"/>
        <pt x="613" y="1440" on="1"/>
        <pt x="648" y="1440" on="0"/>
        <pt x="718" y="1435" on="0"/>
        <pt x="753" y="1433" on="1"/>
        <pt x="759" y="1425" on="0"/>
        <pt x="789" y="1415" on="0"/>
        <pt x="824" y="1407" on="0"/>
        <pt x="858" y="1402" on="0"/>
        <pt x="867" y="1400" on="1"/>
        <pt x="891" y="1395" on="0"/>
        <pt x="926" y="1384" on="0"/>
        <pt x="951" y="1365" on="0"/>
        <pt x="970" y="1335" on="0"/>
        <pt x="978" y="1311" on="1"/>
        <pt x="979" y="1308" on="0"/>
        <pt x="996" y="1296" on="0"/>
        <pt x="1018" y="1284" on="0"/>
        <pt x="1038" y="1272" on="0"/>
        <pt x="1042" y="1268" on="1"/>
        <pt x="1055" y="1255" on="0"/>
        <pt x="1082" y="1202" on="0"/>
        <pt x="1104" y="1142" on="0"/>
        <pt x="1118" y="1084" on="0"/>
        <pt x="1118" y="1066" on="1"/>
        <pt x="1118" y="1029" on="0"/>
        <pt x="1097" y="955" on="0"/>
        <pt x="1086" y="920" on="1"/>
        <pt x="1079" y="899" on="0"/>
        <pt x="1052" y="861" on="0"/>
        <pt x="1026" y="822" on="0"/>
        <pt x="1007" y="782" on="0"/>
        <pt x="1007" y="760" on="1"/>
        <pt x="1007" y="729" on="0"/>
        <pt x="1033" y="667" on="0"/>
        <pt x="1050" y="641" on="1"/>
        <pt x="1057" y="629" on="0"/>
        <pt x="1076" y="607" on="0"/>
        <pt x="1095" y="586" on="0"/>
        <pt x="1111" y="563" on="0"/>
        <pt x="1117" y="549" on="1"/>
        <pt x="1130" y="517" on="0"/>
        <pt x="1138" y="448" on="0"/>
      </contour>
      <contour>
        <pt x="949" y="1025" on="1"/>
        <pt x="949" y="1036" on="0"/>
        <pt x="943" y="1066" on="0"/>
        <pt x="935" y="1097" on="0"/>
        <pt x="927" y="1128" on="0"/>
        <pt x="925" y="1140" on="1"/>
        <pt x="922" y="1155" on="0"/>
        <pt x="910" y="1174" on="0"/>
        <pt x="894" y="1187" on="0"/>
        <pt x="874" y="1200" on="0"/>
        <pt x="864" y="1209" on="1"/>
        <pt x="839" y="1231" on="0"/>
        <pt x="793" y="1257" on="0"/>
        <pt x="743" y="1271" on="0"/>
        <pt x="687" y="1276" on="0"/>
        <pt x="653" y="1276" on="1"/>
        <pt x="631" y="1276" on="0"/>
        <pt x="584" y="1274" on="0"/>
        <pt x="565" y="1269" on="1"/>
        <pt x="561" y="1267" on="0"/>
        <pt x="559" y="1261" on="0"/>
        <pt x="552" y="1255" on="0"/>
        <pt x="534" y="1250" on="0"/>
        <pt x="515" y="1250" on="1"/>
        <pt x="486" y="1250" on="0"/>
        <pt x="449" y="1234" on="0"/>
        <pt x="428" y="1205" on="0"/>
        <pt x="420" y="1164" on="0"/>
        <pt x="419" y="1138" on="1"/>
        <pt x="418" y="1105" on="0"/>
        <pt x="417" y="1035" on="0"/>
        <pt x="411" y="966" on="0"/>
        <pt x="396" y="900" on="0"/>
        <pt x="380" y="869" on="1"/>
        <pt x="436" y="855" on="0"/>
        <pt x="552" y="839" on="0"/>
        <pt x="608" y="839" on="1"/>
        <pt x="647" y="839" on="0"/>
        <pt x="726" y="845" on="0"/>
        <pt x="764" y="852" on="1"/>
        <pt x="778" y="855" on="0"/>
        <pt x="825" y="871" on="0"/>
        <pt x="870" y="895" on="0"/>
        <pt x="905" y="925" on="0"/>
        <pt x="907" y="941" on="1"/>
        <pt x="909" y="953" on="0"/>
        <pt x="922" y="973" on="0"/>
        <pt x="937" y="992" on="0"/>
        <pt x="949" y="1012" on="0"/>
      </contour>
      <contour>
        <pt x="982" y="357" on="1"/>
        <pt x="982" y="383" on="0"/>
        <pt x="969" y="435" on="0"/>
        <pt x="965" y="461" on="1"/>
        <pt x="962" y="485" on="0"/>
        <pt x="957" y="513" on="0"/>
        <pt x="946" y="534" on="0"/>
        <pt x="926" y="554" on="0"/>
        <pt x="907" y="570" on="1"/>
        <pt x="902" y="592" on="0"/>
        <pt x="891" y="600" on="0"/>
        <pt x="885" y="600" on="1"/>
        <pt x="880" y="600" on="0"/>
        <pt x="869" y="599" on="0"/>
        <pt x="864" y="599" on="1"/>
        <pt x="850" y="627" on="1"/>
        <pt x="831" y="640" on="0"/>
        <pt x="802" y="654" on="0"/>
        <pt x="779" y="656" on="1"/>
        <pt x="759" y="658" on="0"/>
        <pt x="720" y="670" on="0"/>
        <pt x="699" y="670" on="1"/>
        <pt x="690" y="670" on="0"/>
        <pt x="680" y="656" on="0"/>
        <pt x="677" y="656" on="1"/>
        <pt x="671" y="656" on="0"/>
        <pt x="655" y="661" on="0"/>
        <pt x="637" y="666" on="0"/>
        <pt x="618" y="671" on="0"/>
        <pt x="610" y="671" on="1"/>
        <pt x="565" y="671" on="0"/>
        <pt x="480" y="652" on="0"/>
        <pt x="437" y="641" on="1"/>
        <pt x="429" y="620" on="0"/>
        <pt x="414" y="570" on="0"/>
        <pt x="402" y="518" on="0"/>
        <pt x="394" y="467" on="0"/>
        <pt x="394" y="445" on="1"/>
        <pt x="394" y="434" on="0"/>
        <pt x="398" y="421" on="0"/>
        <pt x="404" y="411" on="0"/>
        <pt x="408" y="401" on="0"/>
        <pt x="408" y="394" on="1"/>
        <pt x="408" y="354" on="0"/>
        <pt x="391" y="277" on="0"/>
        <pt x="391" y="237" on="1"/>
        <pt x="391" y="211" on="0"/>
        <pt x="405" y="163" on="0"/>
        <pt x="422" y="143" on="1"/>
        <pt x="442" y="143" on="0"/>
        <pt x="478" y="128" on="0"/>
        <pt x="498" y="128" on="1"/>
        <pt x="512" y="128" on="0"/>
        <pt x="539" y="142" on="0"/>
        <pt x="547" y="142" on="1"/>
        <pt x="555" y="142" on="0"/>
        <pt x="564" y="128" on="0"/>
        <pt x="575" y="128" on="1"/>
        <pt x="579" y="128" on="1"/>
        <pt x="582" y="133" on="0"/>
        <pt x="598" y="140" on="0"/>
        <pt x="619" y="143" on="0"/>
        <pt x="643" y="144" on="0"/>
        <pt x="654" y="144" on="1"/>
        <pt x="675" y="144" on="0"/>
        <pt x="698" y="142" on="0"/>
        <pt x="713" y="142" on="1"/>
        <pt x="755" y="151" on="0"/>
        <pt x="793" y="164" on="1"/>
        <pt x="825" y="175" on="0"/>
        <pt x="892" y="209" on="0"/>
        <pt x="911" y="232" on="1"/>
        <pt x="921" y="242" on="0"/>
        <pt x="946" y="272" on="0"/>
        <pt x="967" y="305" on="0"/>
        <pt x="982" y="340" on="0"/>
      </contour>
    </TTGlyph>
    <TTGlyph name="C" xMin="95" yMin="-26" xMax="1086" yMax="1432">
      <contour>
        <pt x="1086" y="534" on="1"/>
        <pt x="1086" y="514" on="0"/>
        <pt x="1083" y="473" on="0"/>
        <pt x="1078" y="453" on="1"/>
        <pt x="1074" y="436" on="0"/>
        <pt x="1061" y="407" on="0"/>
        <pt x="1059" y="390" on="1"/>
        <pt x="1057" y="380" on="0"/>
        <pt x="1053" y="357" on="0"/>
        <pt x="1040" y="357" on="1"/>
        <pt x="1032" y="358" on="1"/>
        <pt x="1016" y="358" on="0"/>
        <pt x="1000" y="333" on="0"/>
        <pt x="991" y="298" on="0"/>
        <pt x="986" y="262" on="0"/>
        <pt x="983" y="251" on="1"/>
        <pt x="980" y="240" on="0"/>
        <pt x="979" y="223" on="0"/>
        <pt x="978" y="210" on="0"/>
        <pt x="970" y="196" on="0"/>
        <pt x="960" y="188" on="1"/>
        <pt x="944" y="176" on="0"/>
        <pt x="914" y="154" on="0"/>
        <pt x="902" y="139" on="1"/>
        <pt x="893" y="128" on="0"/>
        <pt x="887" y="112" on="0"/>
        <pt x="881" y="98" on="0"/>
        <pt x="868" y="87" on="0"/>
        <pt x="853" y="82" on="1"/>
        <pt x="830" y="74" on="0"/>
        <pt x="788" y="54" on="0"/>
        <pt x="766" y="46" on="1"/>
        <pt x="740" y="36" on="0"/>
        <pt x="694" y="11" on="0"/>
        <pt x="646" y="-11" on="0"/>
        <pt x="595" y="-26" on="0"/>
        <pt x="566" y="-26" on="1"/>
        <pt x="540" y="-26" on="0"/>
        <pt x="489" y="-10" on="0"/>
        <pt x="467" y="4" on="1"/>
        <pt x="446" y="6" on="0"/>
        <pt x="424" y="32" on="0"/>
        <pt x="417" y="50" on="1"/>
        <pt x="411" y="64" on="0"/>
        <pt x="400" y="76" on="0"/>
        <pt x="387" y="81" on="0"/>
        <pt x="371" y="85" on="0"/>
        <pt x="360" y="92" on="1"/>
        <pt x="315" y="121" on="0"/>
        <pt x="241" y="208" on="0"/>
        <pt x="209" y="252" on="1"/>
        <pt x="202" y="262" on="0"/>
        <pt x="195" y="289" on="0"/>
        <pt x="189" y="316" on="0"/>
        <pt x="182" y="341" on="0"/>
        <pt x="175" y="348" on="1"/>
        <pt x="162" y="361" on="0"/>
        <pt x="142" y="363" on="0"/>
        <pt x="129" y="370" on="0"/>
        <pt x="122" y="397" on="0"/>
        <pt x="122" y="434" on="1"/>
        <pt x="122" y="457" on="0"/>
        <pt x="114" y="507" on="0"/>
        <pt x="103" y="560" on="0"/>
        <pt x="95" y="615" on="0"/>
        <pt x="95" y="642" on="1"/>
        <pt x="95" y="671" on="0"/>
        <pt x="102" y="729" on="0"/>
        <pt x="112" y="787" on="0"/>
        <pt x="122" y="844" on="0"/>
        <pt x="124" y="873" on="1"/>
        <pt x="126" y="900" on="0"/>
        <pt x="127" y="956" on="0"/>
        <pt x="130" y="1012" on="0"/>
        <pt x="138" y="1066" on="0"/>
        <pt x="148" y="1092" on="1"/>
        <pt x="158" y="1120" on="0"/>
        <pt x="189" y="1170" on="0"/>
        <pt x="219" y="1220" on="0"/>
        <pt x="245" y="1272" on="0"/>
        <pt x="252" y="1302" on="1"/>
        <pt x="256" y="1321" on="0"/>
        <pt x="298" y="1354" on="0"/>
        <pt x="360" y="1383" on="0"/>
        <pt x="433" y="1406" on="0"/>
        <pt x="505" y="1423" on="0"/>
        <pt x="566" y="1432" on="0"/>
        <pt x="585" y="1432" on="1"/>
        <pt x="635" y="1432" on="0"/>
        <pt x="723" y="1407" on="0"/>
        <pt x="768" y="1387" on="1"/>
        <pt x="788" y="1378" on="0"/>
        <pt x="835" y="1367" on="0"/>
        <pt x="856" y="1367" on="1"/>
        <pt x="877" y="1367" on="0"/>
        <pt x="898" y="1382" on="0"/>
        <pt x="910" y="1403" on="0"/>
        <pt x="918" y="1422" on="0"/>
        <pt x="926" y="1427" on="1"/>
        <pt x="923" y="1426" on="1"/>
        <pt x="925" y="1428" on="0"/>
        <pt x="935" y="1429" on="0"/>
        <pt x="941" y="1429" on="1"/>
        <pt x="949" y="1428" on="0"/>
        <pt x="972" y="1422" on="0"/>
        <pt x="996" y="1414" on="0"/>
        <pt x="1017" y="1405" on="0"/>
        <pt x="1022" y="1401" on="1"/>
        <pt x="1025" y="1399" on="0"/>
        <pt x="1039" y="1377" on="0"/>
        <pt x="1054" y="1351" on="0"/>
        <pt x="1065" y="1329" on="0"/>
        <pt x="1065" y="1326" on="1"/>
        <pt x="1065" y="1301" on="0"/>
        <pt x="1080" y="1257" on="0"/>
        <pt x="1080" y="1232" on="1"/>
        <pt x="1080" y="1206" on="0"/>
        <pt x="1065" y="1156" on="0"/>
        <pt x="1065" y="1130" on="1"/>
        <pt x="1065" y="1098" on="0"/>
        <pt x="1068" y="1037" on="0"/>
        <pt x="1068" y="1005" on="1"/>
        <pt x="1068" y="976" on="0"/>
        <pt x="1063" y="919" on="0"/>
        <pt x="1057" y="891" on="1"/>
        <pt x="1055" y="883" on="0"/>
        <pt x="1051" y="861" on="0"/>
        <pt x="1044" y="841" on="0"/>
        <pt x="1033" y="827" on="0"/>
        <pt x="1024" y="827" on="1"/>
        <pt x="1015" y="827" on="0"/>
        <pt x="1008" y="830" on="1"/>
        <pt x="1003" y="829" on="0"/>
        <pt x="995" y="828" on="0"/>
        <pt x="990" y="828" on="1"/>
        <pt x="981" y="828" on="0"/>
        <pt x="977" y="834" on="0"/>
        <pt x="977" y="843" on="0"/>
        <pt x="974" y="854" on="0"/>
        <pt x="965" y="859" on="1"/>
        <pt x="959" y="863" on="0"/>
        <pt x="939" y="865" on="0"/>
        <pt x="920" y="868" on="0"/>
        <pt x="906" y="877" on="0"/>
        <pt x="906" y="887" on="1"/>
        <pt x="906" y="898" on="0"/>
        <pt x="915" y="899" on="0"/>
        <pt x="928" y="891" on="0"/>
        <pt x="944" y="884" on="0"/>
        <pt x="951" y="887" on="1"/>
        <pt x="937" y="903" on="0"/>
        <pt x="916" y="938" on="0"/>
        <pt x="895" y="974" on="0"/>
        <pt x="873" y="1010" on="0"/>
        <pt x="859" y="1025" on="1"/>
        <pt x="847" y="1038" on="0"/>
        <pt x="831" y="1072" on="0"/>
        <pt x="816" y="1107" on="0"/>
        <pt x="799" y="1138" on="0"/>
        <pt x="786" y="1148" on="1"/>
        <pt x="740" y="1183" on="0"/>
        <pt x="629" y="1236" on="0"/>
        <pt x="569" y="1236" on="1"/>
        <pt x="527" y="1236" on="0"/>
        <pt x="456" y="1211" on="0"/>
        <pt x="421" y="1190" on="1"/>
        <pt x="407" y="1182" on="0"/>
        <pt x="382" y="1170" on="0"/>
        <pt x="359" y="1155" on="0"/>
        <pt x="342" y="1134" on="0"/>
        <pt x="338" y="1116" on="1"/>
        <pt x="333" y="1098" on="0"/>
        <pt x="334" y="1060" on="0"/>
        <pt x="324" y="1044" on="1"/>
        <pt x="319" y="1036" on="0"/>
        <pt x="298" y="1026" on="0"/>
        <pt x="295" y="1016" on="1"/>
        <pt x="287" y="993" on="0"/>
        <pt x="284" y="943" on="0"/>
        <pt x="283" y="891" on="0"/>
        <pt x="281" y="838" on="0"/>
        <pt x="274" y="814" on="1"/>
        <pt x="268" y="794" on="0"/>
        <pt x="263" y="754" on="0"/>
        <pt x="263" y="734" on="1"/>
        <pt x="263" y="696" on="0"/>
        <pt x="268" y="623" on="0"/>
        <pt x="268" y="586" on="1"/>
        <pt x="268" y="541" on="0"/>
        <pt x="277" y="455" on="0"/>
        <pt x="289" y="412" on="1"/>
        <pt x="298" y="380" on="0"/>
        <pt x="330" y="321" on="0"/>
        <pt x="338" y="289" on="1"/>
        <pt x="342" y="272" on="0"/>
        <pt x="363" y="234" on="0"/>
        <pt x="392" y="202" on="0"/>
        <pt x="428" y="181" on="0"/>
        <pt x="447" y="181" on="1"/>
        <pt x="461" y="181" on="0"/>
        <pt x="487" y="188" on="0"/>
        <pt x="501" y="188" on="1"/>
        <pt x="516" y="188" on="0"/>
        <pt x="546" y="183" on="0"/>
        <pt x="561" y="183" on="1"/>
        <pt x="588" y="183" on="0"/>
        <pt x="647" y="197" on="0"/>
        <pt x="667" y="218" on="1"/>
        <pt x="681" y="233" on="0"/>
        <pt x="717" y="245" on="0"/>
        <pt x="754" y="253" on="0"/>
        <pt x="788" y="266" on="0"/>
        <pt x="801" y="283" on="1"/>
        <pt x="809" y="294" on="0"/>
        <pt x="826" y="340" on="0"/>
        <pt x="844" y="390" on="0"/>
        <pt x="863" y="431" on="0"/>
        <pt x="873" y="436" on="1"/>
        <pt x="882" y="441" on="0"/>
        <pt x="887" y="482" on="0"/>
        <pt x="887" y="510" on="1"/>
        <pt x="887" y="556" on="1"/>
        <pt x="887" y="576" on="0"/>
        <pt x="889" y="614" on="0"/>
        <pt x="896" y="644" on="0"/>
        <pt x="910" y="662" on="0"/>
        <pt x="922" y="662" on="1"/>
        <pt x="933" y="662" on="0"/>
        <pt x="946" y="647" on="0"/>
        <pt x="956" y="647" on="1"/>
        <pt x="966" y="647" on="0"/>
        <pt x="985" y="660" on="0"/>
        <pt x="996" y="660" on="1"/>
        <pt x="1011" y="660" on="0"/>
        <pt x="1036" y="634" on="0"/>
        <pt x="1057" y="602" on="0"/>
        <pt x="1070" y="575" on="0"/>
        <pt x="1073" y="574" on="1"/>
        <pt x="1083" y="572" on="0"/>
        <pt x="1086" y="543" on="0"/>
      </contour>
    </TTGlyph>
    <TTGlyph name="Cacute" xMin="95" yMin="-26" xMax="1086" yMax="1843">
      <component glyphName="C" x="0" y="0" flags="0x204"/>
      <component glyphName="acute" x="539" y="356" flags="0x4"/>
    </TTGlyph>
    <TTGlyph name="Ccaron" xMin="95" yMin="-26" xMax="1086" yMax="1879">
      <component glyphName="C" x="0" y="0" flags="0x204"/>
      <component glyphName="caron" x="304" y="353" flags="0x4"/>
    </TTGlyph>
    <TTGlyph name="Ccedilla" xMin="95" yMin="-295" xMax="1086" yMax="1432">
      <contour>
        <pt x="705" y="-166" on="1"/>
        <pt x="705" y="-178" on="0"/>
        <pt x="694" y="-206" on="0"/>
        <pt x="677" y="-233" on="0"/>
        <pt x="656" y="-255" on="0"/>
        <pt x="646" y="-260" on="1"/>
        <pt x="638" y="-265" on="0"/>
        <pt x="621" y="-267" on="0"/>
        <pt x="613" y="-270" on="1"/>
        <pt x="604" y="-274" on="0"/>
        <pt x="594" y="-283" on="0"/>
        <pt x="584" y="-290" on="0"/>
        <pt x="571" y="-295" on="0"/>
        <pt x="560" y="-295" on="1"/>
        <pt x="523" y="-295" on="0"/>
        <pt x="478" y="-282" on="0"/>
        <pt x="443" y="-262" on="0"/>
        <pt x="406" y="-238" on="0"/>
        <pt x="377" y="-227" on="1"/>
        <pt x="362" y="-222" on="0"/>
        <pt x="326" y="-211" on="0"/>
        <pt x="293" y="-195" on="0"/>
        <pt x="271" y="-170" on="0"/>
        <pt x="271" y="-150" on="1"/>
        <pt x="271" y="-136" on="0"/>
        <pt x="276" y="-108" on="0"/>
        <pt x="289" y="-86" on="0"/>
        <pt x="311" y="-72" on="0"/>
        <pt x="328" y="-72" on="1"/>
        <pt x="346" y="-72" on="0"/>
        <pt x="376" y="-84" on="0"/>
        <pt x="404" y="-101" on="0"/>
        <pt x="432" y="-117" on="0"/>
        <pt x="449" y="-121" on="1"/>
        <pt x="455" y="-123" on="0"/>
        <pt x="467" y="-123" on="0"/>
        <pt x="474" y="-125" on="1"/>
        <pt x="488" y="-128" on="0"/>
        <pt x="511" y="-143" on="0"/>
        <pt x="525" y="-143" on="1"/>
        <pt x="531" y="-143" on="0"/>
        <pt x="540" y="-137" on="0"/>
        <pt x="545" y="-135" on="1"/>
        <pt x="553" y="-132" on="0"/>
        <pt x="570" y="-130" on="0"/>
        <pt x="585" y="-125" on="0"/>
        <pt x="594" y="-114" on="0"/>
        <pt x="594" y="-102" on="1"/>
        <pt x="594" y="-86" on="0"/>
        <pt x="579" y="-64" on="0"/>
        <pt x="561" y="-48" on="0"/>
        <pt x="543" y="-34" on="0"/>
        <pt x="540" y="-24" on="1"/>
        <pt x="502" y="-18" on="0"/>
        <pt x="467" y="4" on="1"/>
        <pt x="446" y="6" on="0"/>
        <pt x="424" y="32" on="0"/>
        <pt x="417" y="50" on="1"/>
        <pt x="411" y="64" on="0"/>
        <pt x="400" y="76" on="0"/>
        <pt x="387" y="81" on="0"/>
        <pt x="371" y="85" on="0"/>
        <pt x="360" y="92" on="1"/>
        <pt x="315" y="121" on="0"/>
        <pt x="241" y="208" on="0"/>
        <pt x="209" y="252" on="1"/>
        <pt x="202" y="262" on="0"/>
        <pt x="195" y="289" on="0"/>
        <pt x="189" y="316" on="0"/>
        <pt x="182" y="341" on="0"/>
        <pt x="175" y="348" on="1"/>
        <pt x="162" y="361" on="0"/>
        <pt x="142" y="363" on="0"/>
        <pt x="129" y="370" on="0"/>
        <pt x="122" y="397" on="0"/>
        <pt x="122" y="434" on="1"/>
        <pt x="122" y="457" on="0"/>
        <pt x="114" y="507" on="0"/>
        <pt x="103" y="560" on="0"/>
        <pt x="95" y="615" on="0"/>
        <pt x="95" y="642" on="1"/>
        <pt x="95" y="671" on="0"/>
        <pt x="102" y="729" on="0"/>
        <pt x="112" y="787" on="0"/>
        <pt x="122" y="844" on="0"/>
        <pt x="124" y="873" on="1"/>
        <pt x="126" y="900" on="0"/>
        <pt x="127" y="956" on="0"/>
        <pt x="130" y="1012" on="0"/>
        <pt x="138" y="1066" on="0"/>
        <pt x="148" y="1092" on="1"/>
        <pt x="158" y="1120" on="0"/>
        <pt x="189" y="1170" on="0"/>
        <pt x="219" y="1220" on="0"/>
        <pt x="245" y="1272" on="0"/>
        <pt x="252" y="1302" on="1"/>
        <pt x="256" y="1321" on="0"/>
        <pt x="298" y="1354" on="0"/>
        <pt x="360" y="1383" on="0"/>
        <pt x="433" y="1406" on="0"/>
        <pt x="505" y="1423" on="0"/>
        <pt x="566" y="1432" on="0"/>
        <pt x="585" y="1432" on="1"/>
        <pt x="635" y="1432" on="0"/>
        <pt x="723" y="1407" on="0"/>
        <pt x="768" y="1387" on="1"/>
        <pt x="788" y="1378" on="0"/>
        <pt x="835" y="1367" on="0"/>
        <pt x="856" y="1367" on="1"/>
        <pt x="877" y="1367" on="0"/>
        <pt x="898" y="1382" on="0"/>
        <pt x="910" y="1403" on="0"/>
        <pt x="918" y="1422" on="0"/>
        <pt x="926" y="1427" on="1"/>
        <pt x="923" y="1426" on="1"/>
        <pt x="925" y="1428" on="0"/>
        <pt x="935" y="1429" on="0"/>
        <pt x="941" y="1429" on="1"/>
        <pt x="949" y="1428" on="0"/>
        <pt x="972" y="1422" on="0"/>
        <pt x="996" y="1414" on="0"/>
        <pt x="1017" y="1405" on="0"/>
        <pt x="1022" y="1401" on="1"/>
        <pt x="1025" y="1399" on="0"/>
        <pt x="1039" y="1377" on="0"/>
        <pt x="1054" y="1351" on="0"/>
        <pt x="1065" y="1329" on="0"/>
        <pt x="1065" y="1326" on="1"/>
        <pt x="1065" y="1301" on="0"/>
        <pt x="1080" y="1257" on="0"/>
        <pt x="1080" y="1232" on="1"/>
        <pt x="1080" y="1206" on="0"/>
        <pt x="1065" y="1156" on="0"/>
        <pt x="1065" y="1130" on="1"/>
        <pt x="1065" y="1098" on="0"/>
        <pt x="1068" y="1037" on="0"/>
        <pt x="1068" y="1005" on="1"/>
        <pt x="1068" y="976" on="0"/>
        <pt x="1063" y="919" on="0"/>
        <pt x="1057" y="891" on="1"/>
        <pt x="1055" y="883" on="0"/>
        <pt x="1051" y="861" on="0"/>
        <pt x="1044" y="841" on="0"/>
        <pt x="1033" y="827" on="0"/>
        <pt x="1024" y="827" on="1"/>
        <pt x="1015" y="827" on="0"/>
        <pt x="1008" y="830" on="1"/>
        <pt x="1003" y="829" on="0"/>
        <pt x="995" y="828" on="0"/>
        <pt x="990" y="828" on="1"/>
        <pt x="981" y="828" on="0"/>
        <pt x="977" y="834" on="0"/>
        <pt x="977" y="843" on="0"/>
        <pt x="974" y="854" on="0"/>
        <pt x="965" y="859" on="1"/>
        <pt x="959" y="863" on="0"/>
        <pt x="939" y="865" on="0"/>
        <pt x="920" y="868" on="0"/>
        <pt x="906" y="877" on="0"/>
        <pt x="906" y="887" on="1"/>
        <pt x="906" y="898" on="0"/>
        <pt x="915" y="899" on="0"/>
        <pt x="928" y="891" on="0"/>
        <pt x="944" y="884" on="0"/>
        <pt x="951" y="887" on="1"/>
        <pt x="937" y="903" on="0"/>
        <pt x="916" y="938" on="0"/>
        <pt x="895" y="974" on="0"/>
        <pt x="873" y="1010" on="0"/>
        <pt x="859" y="1025" on="1"/>
        <pt x="847" y="1038" on="0"/>
        <pt x="831" y="1072" on="0"/>
        <pt x="816" y="1107" on="0"/>
        <pt x="799" y="1138" on="0"/>
        <pt x="786" y="1148" on="1"/>
        <pt x="740" y="1183" on="0"/>
        <pt x="629" y="1236" on="0"/>
        <pt x="569" y="1236" on="1"/>
        <pt x="527" y="1236" on="0"/>
        <pt x="456" y="1211" on="0"/>
        <pt x="421" y="1190" on="1"/>
        <pt x="407" y="1182" on="0"/>
        <pt x="382" y="1170" on="0"/>
        <pt x="359" y="1155" on="0"/>
        <pt x="342" y="1134" on="0"/>
        <pt x="338" y="1116" on="1"/>
        <pt x="333" y="1098" on="0"/>
        <pt x="334" y="1060" on="0"/>
        <pt x="324" y="1044" on="1"/>
        <pt x="319" y="1036" on="0"/>
        <pt x="298" y="1026" on="0"/>
        <pt x="295" y="1016" on="1"/>
        <pt x="287" y="993" on="0"/>
        <pt x="284" y="943" on="0"/>
        <pt x="283" y="891" on="0"/>
        <pt x="281" y="838" on="0"/>
        <pt x="274" y="814" on="1"/>
        <pt x="268" y="794" on="0"/>
        <pt x="263" y="754" on="0"/>
        <pt x="263" y="734" on="1"/>
        <pt x="263" y="696" on="0"/>
        <pt x="268" y="623" on="0"/>
        <pt x="268" y="586" on="1"/>
        <pt x="268" y="541" on="0"/>
        <pt x="277" y="455" on="0"/>
        <pt x="289" y="412" on="1"/>
        <pt x="298" y="380" on="0"/>
        <pt x="330" y="321" on="0"/>
        <pt x="338" y="289" on="1"/>
        <pt x="342" y="272" on="0"/>
        <pt x="363" y="234" on="0"/>
        <pt x="392" y="202" on="0"/>
        <pt x="428" y="181" on="0"/>
        <pt x="447" y="181" on="1"/>
        <pt x="461" y="181" on="0"/>
        <pt x="487" y="188" on="0"/>
        <pt x="501" y="188" on="1"/>
        <pt x="516" y="188" on="0"/>
        <pt x="546" y="183" on="0"/>
        <pt x="561" y="183" on="1"/>
        <pt x="588" y="183" on="0"/>
        <pt x="647" y="197" on="0"/>
        <pt x="667" y="218" on="1"/>
        <pt x="681" y="233" on="0"/>
        <pt x="717" y="245" on="0"/>
        <pt x="754" y="253" on="0"/>
        <pt x="788" y="266" on="0"/>
        <pt x="801" y="283" on="1"/>
        <pt x="809" y="294" on="0"/>
        <pt x="826" y="340" on="0"/>
        <pt x="844" y="390" on="0"/>
        <pt x="863" y="431" on="0"/>
        <pt x="873" y="436" on="1"/>
        <pt x="882" y="441" on="0"/>
        <pt x="887" y="482" on="0"/>
        <pt x="887" y="510" on="1"/>
        <pt x="887" y="556" on="1"/>
        <pt x="887" y="576" on="0"/>
        <pt x="889" y="614" on="0"/>
        <pt x="896" y="644" on="0"/>
        <pt x="910" y="662" on="0"/>
        <pt x="922" y="662" on="1"/>
        <pt x="933" y="662" on="0"/>
        <pt x="946" y="647" on="0"/>
        <pt x="956" y="647" on="1"/>
        <pt x="966" y="647" on="0"/>
        <pt x="985" y="660" on="0"/>
        <pt x="996" y="660" on="1"/>
        <pt x="1011" y="660" on="0"/>
        <pt x="1036" y="634" on="0"/>
        <pt x="1057" y="602" on="0"/>
        <pt x="1070" y="575" on="0"/>
        <pt x="1073" y="574" on="1"/>
        <pt x="1083" y="572" on="0"/>
        <pt x="1086" y="543" on="0"/>
        <pt x="1086" y="534" on="1"/>
        <pt x="1086" y="514" on="0"/>
        <pt x="1083" y="473" on="0"/>
        <pt x="1078" y="453" on="1"/>
        <pt x="1074" y="436" on="0"/>
        <pt x="1061" y="407" on="0"/>
        <pt x="1059" y="390" on="1"/>
        <pt x="1057" y="380" on="0"/>
        <pt x="1053" y="357" on="0"/>
        <pt x="1040" y="357" on="1"/>
        <pt x="1032" y="358" on="1"/>
        <pt x="1016" y="358" on="0"/>
        <pt x="1000" y="333" on="0"/>
        <pt x="991" y="298" on="0"/>
        <pt x="986" y="262" on="0"/>
        <pt x="983" y="251" on="1"/>
        <pt x="980" y="240" on="0"/>
        <pt x="979" y="223" on="0"/>
        <pt x="978" y="210" on="0"/>
        <pt x="970" y="196" on="0"/>
        <pt x="960" y="188" on="1"/>
        <pt x="944" y="176" on="0"/>
        <pt x="914" y="154" on="0"/>
        <pt x="902" y="139" on="1"/>
        <pt x="893" y="128" on="0"/>
        <pt x="887" y="112" on="0"/>
        <pt x="881" y="98" on="0"/>
        <pt x="868" y="87" on="0"/>
        <pt x="853" y="82" on="1"/>
        <pt x="830" y="74" on="0"/>
        <pt x="788" y="54" on="0"/>
        <pt x="766" y="46" on="1"/>
        <pt x="738" y="35" on="0"/>
        <pt x="689" y="8" on="0"/>
        <pt x="663" y="-3" on="1"/>
        <pt x="680" y="-16" on="0"/>
        <pt x="703" y="-47" on="0"/>
        <pt x="703" y="-63" on="1"/>
        <pt x="703" y="-86" on="0"/>
        <pt x="699" y="-106" on="1"/>
        <pt x="699" y="-122" on="0"/>
        <pt x="705" y="-150" on="0"/>
      </contour>
    </TTGlyph>
    <TTGlyph name="Ccircumflex" xMin="95" yMin="-26" xMax="1086" yMax="1822">
      <component glyphName="C" x="0" y="0" flags="0x204"/>
      <component glyphName="circumflex" x="285" y="296" flags="0x4"/>
    </TTGlyph>
    <TTGlyph name="Cdotaccent" xMin="95" yMin="-26" xMax="1086" yMax="1759">
      <component glyphName="C" x="0" y="0" flags="0x204"/>
      <component glyphName="dotaccent" x="458" y="268" flags="0x4"/>
    </TTGlyph>
    <TTGlyph name="D" xMin="74" yMin="-33" xMax="1185" yMax="1459">
      <contour>
        <pt x="1185" y="643" on="1"/>
        <pt x="1185" y="613" on="0"/>
        <pt x="1173" y="534" on="0"/>
        <pt x="1152" y="447" on="0"/>
        <pt x="1125" y="355" on="0"/>
        <pt x="1095" y="270" on="0"/>
        <pt x="1064" y="197" on="0"/>
        <pt x="1050" y="172" on="1"/>
        <pt x="1044" y="162" on="0"/>
        <pt x="1019" y="141" on="0"/>
        <pt x="993" y="118" on="0"/>
        <pt x="973" y="96" on="0"/>
        <pt x="973" y="86" on="1"/>
        <pt x="965" y="85" on="0"/>
        <pt x="931" y="78" on="0"/>
        <pt x="894" y="67" on="0"/>
        <pt x="863" y="54" on="0"/>
        <pt x="860" y="48" on="1"/>
        <pt x="849" y="27" on="0"/>
        <pt x="844" y="13" on="0"/>
        <pt x="838" y="10" on="0"/>
        <pt x="821" y="11" on="0"/>
        <pt x="797" y="6" on="1"/>
        <pt x="788" y="4" on="0"/>
        <pt x="761" y="-4" on="0"/>
        <pt x="732" y="-12" on="0"/>
        <pt x="706" y="-17" on="0"/>
        <pt x="698" y="-17" on="1"/>
        <pt x="676" y="-17" on="0"/>
        <pt x="635" y="-3" on="0"/>
        <pt x="613" y="-3" on="1"/>
        <pt x="599" y="-3" on="0"/>
        <pt x="588" y="-7" on="1"/>
        <pt x="551" y="-21" on="0"/>
        <pt x="484" y="-33" on="0"/>
        <pt x="444" y="-33" on="1"/>
        <pt x="303" y="-14" on="1"/>
        <pt x="287" y="-18" on="0"/>
        <pt x="255" y="-21" on="0"/>
        <pt x="239" y="-21" on="1"/>
        <pt x="219" y="-21" on="0"/>
        <pt x="180" y="-17" on="0"/>
        <pt x="160" y="-14" on="1"/>
        <pt x="157" y="1" on="0"/>
        <pt x="144" y="28" on="0"/>
        <pt x="132" y="56" on="0"/>
        <pt x="122" y="85" on="0"/>
        <pt x="122" y="100" on="1"/>
        <pt x="122" y="126" on="0"/>
        <pt x="148" y="149" on="0"/>
        <pt x="188" y="158" on="0"/>
        <pt x="233" y="163" on="0"/>
        <pt x="273" y="181" on="0"/>
        <pt x="299" y="219" on="0"/>
        <pt x="299" y="257" on="1"/>
        <pt x="299" y="280" on="0"/>
        <pt x="292" y="326" on="0"/>
        <pt x="283" y="373" on="0"/>
        <pt x="276" y="419" on="0"/>
        <pt x="276" y="442" on="1"/>
        <pt x="276" y="459" on="0"/>
        <pt x="282" y="492" on="0"/>
        <pt x="282" y="509" on="1"/>
        <pt x="282" y="540" on="0"/>
        <pt x="273" y="601" on="0"/>
        <pt x="273" y="632" on="1"/>
        <pt x="273" y="668" on="0"/>
        <pt x="281" y="739" on="0"/>
        <pt x="281" y="775" on="1"/>
        <pt x="281" y="809" on="0"/>
        <pt x="268" y="874" on="0"/>
        <pt x="268" y="909" on="1"/>
        <pt x="268" y="928" on="0"/>
        <pt x="270" y="966" on="0"/>
        <pt x="270" y="985" on="1"/>
        <pt x="270" y="1007" on="0"/>
        <pt x="266" y="1048" on="0"/>
        <pt x="260" y="1069" on="1"/>
        <pt x="253" y="1094" on="0"/>
        <pt x="251" y="1142" on="0"/>
        <pt x="241" y="1181" on="0"/>
        <pt x="213" y="1210" on="0"/>
        <pt x="180" y="1217" on="1"/>
        <pt x="169" y="1219" on="0"/>
        <pt x="158" y="1228" on="0"/>
        <pt x="148" y="1237" on="0"/>
        <pt x="133" y="1245" on="0"/>
        <pt x="118" y="1247" on="1"/>
        <pt x="74" y="1253" on="0"/>
        <pt x="74" y="1296" on="1"/>
        <pt x="74" y="1320" on="0"/>
        <pt x="92" y="1357" on="0"/>
        <pt x="120" y="1387" on="0"/>
        <pt x="155" y="1412" on="0"/>
        <pt x="172" y="1425" on="1"/>
        <pt x="198" y="1445" on="0"/>
        <pt x="244" y="1454" on="0"/>
        <pt x="270" y="1454" on="1"/>
        <pt x="313" y="1454" on="1"/>
        <pt x="342" y="1454" on="0"/>
        <pt x="399" y="1459" on="0"/>
        <pt x="428" y="1459" on="1"/>
        <pt x="445" y="1459" on="0"/>
        <pt x="480" y="1455" on="0"/>
        <pt x="497" y="1450" on="1"/>
        <pt x="506" y="1447" on="0"/>
        <pt x="523" y="1440" on="0"/>
        <pt x="532" y="1440" on="1"/>
        <pt x="546" y="1440" on="0"/>
        <pt x="566" y="1457" on="0"/>
        <pt x="574" y="1457" on="1"/>
        <pt x="576" y="1457" on="0"/>
        <pt x="576" y="1455" on="1"/>
        <pt x="576" y="1453" on="0"/>
        <pt x="575" y="1448" on="0"/>
        <pt x="575" y="1446" on="1"/>
        <pt x="575" y="1440" on="0"/>
        <pt x="583" y="1440" on="1"/>
        <pt x="588" y="1440" on="0"/>
        <pt x="593" y="1452" on="0"/>
        <pt x="602" y="1454" on="1"/>
        <pt x="609" y="1451" on="0"/>
        <pt x="617" y="1444" on="0"/>
        <pt x="624" y="1438" on="0"/>
        <pt x="635" y="1434" on="0"/>
        <pt x="644" y="1434" on="1"/>
        <pt x="665" y="1434" on="0"/>
        <pt x="707" y="1441" on="0"/>
        <pt x="728" y="1441" on="1"/>
        <pt x="755" y="1441" on="0"/>
        <pt x="801" y="1423" on="0"/>
        <pt x="842" y="1396" on="0"/>
        <pt x="880" y="1362" on="0"/>
        <pt x="899" y="1346" on="1"/>
        <pt x="913" y="1334" on="0"/>
        <pt x="942" y="1321" on="0"/>
        <pt x="968" y="1308" on="0"/>
        <pt x="992" y="1289" on="0"/>
        <pt x="1001" y="1270" on="1"/>
        <pt x="1011" y="1249" on="0"/>
        <pt x="1038" y="1210" on="0"/>
        <pt x="1065" y="1173" on="0"/>
        <pt x="1091" y="1134" on="0"/>
        <pt x="1101" y="1112" on="1"/>
        <pt x="1126" y="1055" on="0"/>
        <pt x="1147" y="930" on="0"/>
        <pt x="1158" y="869" on="1"/>
        <pt x="1163" y="843" on="0"/>
        <pt x="1175" y="790" on="0"/>
        <pt x="1175" y="764" on="1"/>
        <pt x="1175" y="750" on="0"/>
        <pt x="1165" y="724" on="0"/>
        <pt x="1165" y="710" on="1"/>
        <pt x="1165" y="701" on="0"/>
        <pt x="1171" y="687" on="0"/>
        <pt x="1179" y="673" on="0"/>
        <pt x="1185" y="655" on="0"/>
      </contour>
      <contour>
        <pt x="1018" y="710" on="1"/>
        <pt x="1018" y="749" on="0"/>
        <pt x="996" y="823" on="0"/>
        <pt x="973" y="855" on="1"/>
        <pt x="984" y="866" on="0"/>
        <pt x="990" y="896" on="0"/>
        <pt x="990" y="910" on="1"/>
        <pt x="990" y="925" on="0"/>
        <pt x="987" y="955" on="0"/>
        <pt x="987" y="969" on="1"/>
        <pt x="987" y="977" on="0"/>
        <pt x="976" y="989" on="0"/>
        <pt x="963" y="1000" on="0"/>
        <pt x="949" y="1011" on="0"/>
        <pt x="946" y="1019" on="1"/>
        <pt x="942" y="1029" on="0"/>
        <pt x="939" y="1044" on="0"/>
        <pt x="937" y="1058" on="0"/>
        <pt x="931" y="1074" on="0"/>
        <pt x="924" y="1085" on="1"/>
        <pt x="919" y="1093" on="0"/>
        <pt x="913" y="1108" on="0"/>
        <pt x="913" y="1119" on="1"/>
        <pt x="913" y="1129" on="0"/>
        <pt x="916" y="1140" on="1"/>
        <pt x="912" y="1148" on="0"/>
        <pt x="894" y="1159" on="0"/>
        <pt x="883" y="1162" on="1"/>
        <pt x="871" y="1166" on="0"/>
        <pt x="856" y="1168" on="1"/>
        <pt x="841" y="1168" on="0"/>
        <pt x="808" y="1186" on="0"/>
        <pt x="772" y="1208" on="0"/>
        <pt x="735" y="1226" on="0"/>
        <pt x="716" y="1226" on="1"/>
        <pt x="687" y="1226" on="0"/>
        <pt x="631" y="1216" on="0"/>
        <pt x="602" y="1212" on="1"/>
        <pt x="580" y="1209" on="0"/>
        <pt x="528" y="1208" on="0"/>
        <pt x="483" y="1198" on="0"/>
        <pt x="453" y="1171" on="0"/>
        <pt x="453" y="1142" on="1"/>
        <pt x="453" y="1107" on="0"/>
        <pt x="462" y="1035" on="0"/>
        <pt x="462" y="997" on="1"/>
        <pt x="462" y="918" on="0"/>
        <pt x="449" y="761" on="0"/>
        <pt x="449" y="681" on="1"/>
        <pt x="449" y="644" on="0"/>
        <pt x="457" y="571" on="0"/>
        <pt x="457" y="533" on="1"/>
        <pt x="457" y="484" on="0"/>
        <pt x="442" y="388" on="0"/>
        <pt x="442" y="339" on="1"/>
        <pt x="442" y="319" on="0"/>
        <pt x="442" y="273" on="0"/>
        <pt x="450" y="231" on="0"/>
        <pt x="472" y="197" on="0"/>
        <pt x="494" y="189" on="1"/>
        <pt x="525" y="178" on="0"/>
        <pt x="586" y="157" on="0"/>
        <pt x="620" y="157" on="1"/>
        <pt x="640" y="157" on="0"/>
        <pt x="678" y="176" on="0"/>
        <pt x="698" y="182" on="1"/>
        <pt x="711" y="186" on="0"/>
        <pt x="744" y="193" on="0"/>
        <pt x="776" y="202" on="0"/>
        <pt x="805" y="217" on="0"/>
        <pt x="815" y="228" on="1"/>
        <pt x="830" y="245" on="0"/>
        <pt x="858" y="271" on="0"/>
        <pt x="883" y="276" on="1"/>
        <pt x="895" y="278" on="0"/>
        <pt x="902" y="291" on="0"/>
        <pt x="905" y="308" on="0"/>
        <pt x="911" y="327" on="0"/>
        <pt x="921" y="334" on="1"/>
        <pt x="937" y="346" on="0"/>
        <pt x="954" y="378" on="0"/>
        <pt x="962" y="414" on="0"/>
        <pt x="967" y="451" on="0"/>
        <pt x="972" y="469" on="1"/>
        <pt x="983" y="509" on="0"/>
        <pt x="1012" y="591" on="0"/>
        <pt x="1012" y="633" on="1"/>
        <pt x="1012" y="644" on="0"/>
        <pt x="1002" y="661" on="0"/>
        <pt x="1002" y="672" on="1"/>
        <pt x="1002" y="678" on="0"/>
        <pt x="1007" y="681" on="0"/>
        <pt x="1013" y="686" on="0"/>
        <pt x="1018" y="696" on="0"/>
      </contour>
    </TTGlyph>
    <TTGlyph name="Dcaron" xMin="74" yMin="-33" xMax="1185" yMax="1891">
      <component glyphName="D" x="0" y="0" flags="0x204"/>
      <component glyphName="caron" x="349" y="365" flags="0x4"/>
    </TTGlyph>
    <TTGlyph name="Dcroat" xMin="74" yMin="-33" xMax="1186" yMax="1459">
      <contour>
        <pt x="1186" y="643" on="1"/>
        <pt x="1186" y="613" on="0"/>
        <pt x="1174" y="534" on="0"/>
        <pt x="1153" y="447" on="0"/>
        <pt x="1126" y="355" on="0"/>
        <pt x="1096" y="270" on="0"/>
        <pt x="1065" y="197" on="0"/>
        <pt x="1051" y="172" on="1"/>
        <pt x="1045" y="162" on="0"/>
        <pt x="1020" y="140" on="0"/>
        <pt x="994" y="118" on="0"/>
        <pt x="974" y="96" on="0"/>
        <pt x="974" y="86" on="1"/>
        <pt x="966" y="85" on="0"/>
        <pt x="932" y="78" on="0"/>
        <pt x="895" y="67" on="0"/>
        <pt x="864" y="54" on="0"/>
        <pt x="861" y="48" on="1"/>
        <pt x="853" y="34" on="0"/>
        <pt x="847" y="19" on="0"/>
        <pt x="844" y="12" on="0"/>
        <pt x="840" y="11" on="0"/>
        <pt x="836" y="11" on="1"/>
        <pt x="832" y="11" on="0"/>
        <pt x="800" y="2" on="0"/>
        <pt x="758" y="-8" on="0"/>
        <pt x="715" y="-17" on="0"/>
        <pt x="699" y="-17" on="1"/>
        <pt x="677" y="-17" on="0"/>
        <pt x="636" y="-3" on="0"/>
        <pt x="614" y="-3" on="1"/>
        <pt x="600" y="-3" on="0"/>
        <pt x="589" y="-7" on="1"/>
        <pt x="552" y="-21" on="0"/>
        <pt x="485" y="-33" on="0"/>
        <pt x="445" y="-33" on="1"/>
        <pt x="304" y="-14" on="1"/>
        <pt x="288" y="-18" on="0"/>
        <pt x="256" y="-21" on="0"/>
        <pt x="240" y="-21" on="1"/>
        <pt x="220" y="-21" on="0"/>
        <pt x="181" y="-17" on="0"/>
        <pt x="161" y="-14" on="1"/>
        <pt x="158" y="1" on="0"/>
        <pt x="145" y="28" on="0"/>
        <pt x="133" y="56" on="0"/>
        <pt x="123" y="85" on="0"/>
        <pt x="123" y="100" on="1"/>
        <pt x="123" y="126" on="0"/>
        <pt x="149" y="149" on="0"/>
        <pt x="189" y="158" on="0"/>
        <pt x="234" y="163" on="0"/>
        <pt x="274" y="181" on="0"/>
        <pt x="300" y="219" on="0"/>
        <pt x="300" y="257" on="1"/>
        <pt x="300" y="280" on="0"/>
        <pt x="293" y="326" on="0"/>
        <pt x="284" y="373" on="0"/>
        <pt x="277" y="419" on="0"/>
        <pt x="277" y="442" on="1"/>
        <pt x="277" y="459" on="0"/>
        <pt x="283" y="492" on="0"/>
        <pt x="283" y="509" on="1"/>
        <pt x="283" y="536" on="0"/>
        <pt x="276" y="589" on="0"/>
        <pt x="274" y="616" on="1"/>
        <pt x="265" y="614" on="0"/>
        <pt x="259" y="600" on="0"/>
        <pt x="254" y="594" on="1"/>
        <pt x="237" y="597" on="0"/>
        <pt x="223" y="597" on="1"/>
        <pt x="208" y="597" on="0"/>
        <pt x="177" y="592" on="0"/>
        <pt x="158" y="588" on="1"/>
        <pt x="132" y="598" on="0"/>
        <pt x="100" y="636" on="0"/>
        <pt x="81" y="684" on="0"/>
        <pt x="74" y="737" on="0"/>
        <pt x="74" y="763" on="1"/>
        <pt x="74" y="780" on="1"/>
        <pt x="82" y="786" on="0"/>
        <pt x="104" y="792" on="0"/>
        <pt x="127" y="797" on="0"/>
        <pt x="148" y="805" on="0"/>
        <pt x="154" y="813" on="1"/>
        <pt x="169" y="796" on="0"/>
        <pt x="220" y="769" on="0"/>
        <pt x="244" y="769" on="1"/>
        <pt x="262" y="769" on="0"/>
        <pt x="293" y="790" on="0"/>
        <pt x="293" y="810" on="1"/>
        <pt x="293" y="821" on="0"/>
        <pt x="285" y="846" on="0"/>
        <pt x="276" y="871" on="0"/>
        <pt x="269" y="897" on="0"/>
        <pt x="269" y="909" on="1"/>
        <pt x="269" y="928" on="0"/>
        <pt x="271" y="966" on="0"/>
        <pt x="271" y="985" on="1"/>
        <pt x="271" y="1007" on="0"/>
        <pt x="267" y="1048" on="0"/>
        <pt x="261" y="1069" on="1"/>
        <pt x="254" y="1094" on="0"/>
        <pt x="252" y="1142" on="0"/>
        <pt x="242" y="1181" on="0"/>
        <pt x="214" y="1210" on="0"/>
        <pt x="181" y="1217" on="1"/>
        <pt x="170" y="1219" on="0"/>
        <pt x="159" y="1228" on="0"/>
        <pt x="149" y="1237" on="0"/>
        <pt x="134" y="1245" on="0"/>
        <pt x="119" y="1247" on="1"/>
        <pt x="75" y="1253" on="0"/>
        <pt x="75" y="1296" on="1"/>
        <pt x="75" y="1332" on="0"/>
        <pt x="119" y="1391" on="0"/>
        <pt x="180" y="1432" on="0"/>
        <pt x="247" y="1454" on="0"/>
        <pt x="271" y="1454" on="1"/>
        <pt x="314" y="1454" on="1"/>
        <pt x="343" y="1454" on="0"/>
        <pt x="400" y="1459" on="0"/>
        <pt x="429" y="1459" on="1"/>
        <pt x="446" y="1459" on="0"/>
        <pt x="481" y="1455" on="0"/>
        <pt x="498" y="1450" on="1"/>
        <pt x="507" y="1447" on="0"/>
        <pt x="524" y="1440" on="0"/>
        <pt x="533" y="1440" on="1"/>
        <pt x="547" y="1440" on="0"/>
        <pt x="567" y="1457" on="0"/>
        <pt x="575" y="1457" on="1"/>
        <pt x="577" y="1457" on="0"/>
        <pt x="577" y="1455" on="1"/>
        <pt x="577" y="1453" on="0"/>
        <pt x="576" y="1448" on="0"/>
        <pt x="576" y="1446" on="1"/>
        <pt x="576" y="1440" on="0"/>
        <pt x="584" y="1440" on="1"/>
        <pt x="589" y="1440" on="0"/>
        <pt x="594" y="1452" on="0"/>
        <pt x="603" y="1454" on="1"/>
        <pt x="610" y="1451" on="0"/>
        <pt x="618" y="1444" on="0"/>
        <pt x="625" y="1438" on="0"/>
        <pt x="636" y="1434" on="0"/>
        <pt x="645" y="1434" on="1"/>
        <pt x="666" y="1434" on="0"/>
        <pt x="708" y="1441" on="0"/>
        <pt x="729" y="1441" on="1"/>
        <pt x="756" y="1441" on="0"/>
        <pt x="802" y="1423" on="0"/>
        <pt x="843" y="1396" on="0"/>
        <pt x="881" y="1362" on="0"/>
        <pt x="900" y="1346" on="1"/>
        <pt x="914" y="1334" on="0"/>
        <pt x="943" y="1321" on="0"/>
        <pt x="969" y="1308" on="0"/>
        <pt x="993" y="1289" on="0"/>
        <pt x="1002" y="1270" on="1"/>
        <pt x="1012" y="1249" on="0"/>
        <pt x="1039" y="1210" on="0"/>
        <pt x="1066" y="1173" on="0"/>
        <pt x="1092" y="1134" on="0"/>
        <pt x="1102" y="1112" on="1"/>
        <pt x="1127" y="1055" on="0"/>
        <pt x="1148" y="930" on="0"/>
        <pt x="1159" y="869" on="1"/>
        <pt x="1164" y="843" on="0"/>
        <pt x="1176" y="790" on="0"/>
        <pt x="1176" y="764" on="1"/>
        <pt x="1176" y="750" on="0"/>
        <pt x="1166" y="724" on="0"/>
        <pt x="1166" y="710" on="1"/>
        <pt x="1166" y="701" on="0"/>
        <pt x="1172" y="687" on="0"/>
        <pt x="1180" y="673" on="0"/>
        <pt x="1186" y="655" on="0"/>
      </contour>
      <contour>
        <pt x="779" y="639" on="1"/>
        <pt x="776" y="633" on="0"/>
        <pt x="762" y="612" on="0"/>
        <pt x="746" y="592" on="0"/>
        <pt x="731" y="578" on="0"/>
        <pt x="727" y="578" on="1"/>
        <pt x="721" y="578" on="0"/>
        <pt x="701" y="582" on="0"/>
        <pt x="678" y="588" on="0"/>
        <pt x="654" y="592" on="0"/>
        <pt x="644" y="592" on="1"/>
        <pt x="631" y="592" on="0"/>
        <pt x="626" y="587" on="1"/>
        <pt x="587" y="593" on="0"/>
        <pt x="522" y="620" on="0"/>
        <pt x="499" y="620" on="1"/>
        <pt x="479" y="620" on="0"/>
        <pt x="458" y="584" on="0"/>
        <pt x="458" y="533" on="1"/>
        <pt x="458" y="476" on="0"/>
        <pt x="443" y="364" on="0"/>
        <pt x="443" y="306" on="1"/>
        <pt x="443" y="288" on="0"/>
        <pt x="446" y="252" on="0"/>
        <pt x="456" y="220" on="0"/>
        <pt x="477" y="195" on="0"/>
        <pt x="495" y="189" on="1"/>
        <pt x="526" y="178" on="0"/>
        <pt x="587" y="157" on="0"/>
        <pt x="621" y="157" on="1"/>
        <pt x="641" y="157" on="0"/>
        <pt x="679" y="176" on="0"/>
        <pt x="699" y="182" on="1"/>
        <pt x="712" y="186" on="0"/>
        <pt x="745" y="193" on="0"/>
        <pt x="777" y="202" on="0"/>
        <pt x="806" y="217" on="0"/>
        <pt x="816" y="228" on="1"/>
        <pt x="831" y="245" on="0"/>
        <pt x="859" y="271" on="0"/>
        <pt x="884" y="276" on="1"/>
        <pt x="896" y="278" on="0"/>
        <pt x="903" y="291" on="0"/>
        <pt x="906" y="308" on="0"/>
        <pt x="912" y="327" on="0"/>
        <pt x="922" y="334" on="1"/>
        <pt x="938" y="346" on="0"/>
        <pt x="955" y="378" on="0"/>
        <pt x="963" y="414" on="0"/>
        <pt x="968" y="451" on="0"/>
        <pt x="973" y="469" on="1"/>
        <pt x="984" y="509" on="0"/>
        <pt x="1013" y="591" on="0"/>
        <pt x="1013" y="633" on="1"/>
        <pt x="1013" y="644" on="0"/>
        <pt x="1003" y="661" on="0"/>
        <pt x="1003" y="672" on="1"/>
        <pt x="1003" y="678" on="0"/>
        <pt x="1008" y="681" on="0"/>
        <pt x="1014" y="686" on="0"/>
        <pt x="1019" y="696" on="0"/>
        <pt x="1019" y="710" on="1"/>
        <pt x="1019" y="749" on="0"/>
        <pt x="997" y="823" on="0"/>
        <pt x="974" y="855" on="1"/>
        <pt x="985" y="866" on="0"/>
        <pt x="991" y="896" on="0"/>
        <pt x="991" y="910" on="1"/>
        <pt x="991" y="925" on="0"/>
        <pt x="988" y="955" on="0"/>
        <pt x="988" y="969" on="1"/>
        <pt x="988" y="977" on="0"/>
        <pt x="977" y="989" on="0"/>
        <pt x="964" y="1000" on="0"/>
        <pt x="950" y="1011" on="0"/>
        <pt x="947" y="1019" on="1"/>
        <pt x="943" y="1029" on="0"/>
        <pt x="940" y="1044" on="0"/>
        <pt x="938" y="1058" on="0"/>
        <pt x="932" y="1074" on="0"/>
        <pt x="925" y="1085" on="1"/>
        <pt x="920" y="1093" on="0"/>
        <pt x="914" y="1108" on="0"/>
        <pt x="914" y="1119" on="1"/>
        <pt x="914" y="1129" on="0"/>
        <pt x="917" y="1140" on="1"/>
        <pt x="913" y="1148" on="0"/>
        <pt x="895" y="1159" on="0"/>
        <pt x="884" y="1162" on="1"/>
        <pt x="872" y="1166" on="0"/>
        <pt x="857" y="1168" on="1"/>
        <pt x="842" y="1168" on="0"/>
        <pt x="809" y="1186" on="0"/>
        <pt x="773" y="1208" on="0"/>
        <pt x="736" y="1226" on="0"/>
        <pt x="717" y="1226" on="1"/>
        <pt x="688" y="1226" on="0"/>
        <pt x="632" y="1216" on="0"/>
        <pt x="603" y="1212" on="1"/>
        <pt x="581" y="1209" on="0"/>
        <pt x="529" y="1208" on="0"/>
        <pt x="484" y="1198" on="0"/>
        <pt x="454" y="1171" on="0"/>
        <pt x="454" y="1142" on="1"/>
        <pt x="454" y="1107" on="0"/>
        <pt x="463" y="1035" on="0"/>
        <pt x="463" y="997" on="1"/>
        <pt x="463" y="978" on="0"/>
        <pt x="454" y="938" on="0"/>
        <pt x="442" y="897" on="0"/>
        <pt x="433" y="856" on="0"/>
        <pt x="433" y="838" on="1"/>
        <pt x="433" y="813" on="0"/>
        <pt x="460" y="772" on="0"/>
        <pt x="498" y="772" on="1"/>
        <pt x="515" y="772" on="0"/>
        <pt x="554" y="777" on="0"/>
        <pt x="571" y="777" on="1"/>
        <pt x="584" y="777" on="0"/>
        <pt x="595" y="774" on="1"/>
        <pt x="600" y="787" on="0"/>
        <pt x="617" y="803" on="0"/>
        <pt x="628" y="809" on="1"/>
        <pt x="647" y="800" on="0"/>
        <pt x="692" y="787" on="0"/>
        <pt x="732" y="770" on="0"/>
        <pt x="763" y="745" on="0"/>
        <pt x="769" y="723" on="1"/>
        <pt x="766" y="713" on="0"/>
        <pt x="761" y="713" on="1"/>
        <pt x="756" y="713" on="0"/>
        <pt x="746" y="719" on="0"/>
        <pt x="738" y="719" on="1"/>
        <pt x="734" y="719" on="1"/>
        <pt x="734" y="711" on="0"/>
        <pt x="744" y="706" on="0"/>
        <pt x="757" y="704" on="0"/>
        <pt x="768" y="702" on="0"/>
        <pt x="769" y="696" on="1"/>
        <pt x="768" y="692" on="0"/>
        <pt x="768" y="685" on="0"/>
        <pt x="768" y="682" on="1"/>
        <pt x="768" y="656" on="0"/>
      </contour>
      <contour>
        <pt x="203" y="758" on="1"/>
        <pt x="201" y="758" on="0"/>
        <pt x="199" y="759" on="0"/>
        <pt x="197" y="759" on="1"/>
        <pt x="186" y="759" on="0"/>
        <pt x="170" y="739" on="0"/>
        <pt x="170" y="729" on="1"/>
        <pt x="170" y="723" on="0"/>
        <pt x="178" y="714" on="0"/>
        <pt x="187" y="713" on="1"/>
        <pt x="194" y="714" on="0"/>
        <pt x="198" y="725" on="0"/>
        <pt x="199" y="738" on="0"/>
        <pt x="200" y="753" on="0"/>
      </contour>
    </TTGlyph>
    <TTGlyph name="E" xMin="78" yMin="-32" xMax="1202" yMax="1414">
      <contour>
        <pt x="1202" y="998" on="1"/>
        <pt x="1202" y="994" on="0"/>
        <pt x="1192" y="970" on="0"/>
        <pt x="1179" y="942" on="0"/>
        <pt x="1165" y="918" on="0"/>
        <pt x="1161" y="914" on="1"/>
        <pt x="1163" y="913" on="1"/>
        <pt x="1161" y="913" on="0"/>
        <pt x="1159" y="912" on="1"/>
        <pt x="1154" y="912" on="1"/>
        <pt x="1150" y="911" on="0"/>
        <pt x="1141" y="911" on="0"/>
        <pt x="1136" y="911" on="1"/>
        <pt x="1140" y="912" on="1"/>
        <pt x="1117" y="913" on="0"/>
        <pt x="1080" y="928" on="0"/>
        <pt x="1068" y="949" on="1"/>
        <pt x="1066" y="953" on="0"/>
        <pt x="1058" y="974" on="0"/>
        <pt x="1050" y="998" on="0"/>
        <pt x="1045" y="1019" on="0"/>
        <pt x="1045" y="1024" on="1"/>
        <pt x="1045" y="1032" on="0"/>
        <pt x="1048" y="1050" on="0"/>
        <pt x="1048" y="1058" on="1"/>
        <pt x="1048" y="1089" on="0"/>
        <pt x="1036" y="1149" on="0"/>
        <pt x="1036" y="1180" on="1"/>
        <pt x="1036" y="1200" on="0"/>
        <pt x="1046" y="1238" on="0"/>
        <pt x="1059" y="1254" on="1"/>
        <pt x="1054" y="1254" on="1"/>
        <pt x="1042" y="1254" on="0"/>
        <pt x="1028" y="1269" on="0"/>
        <pt x="1012" y="1269" on="1"/>
        <pt x="974" y="1269" on="0"/>
        <pt x="902" y="1251" on="0"/>
        <pt x="862" y="1251" on="1"/>
        <pt x="846" y="1251" on="0"/>
        <pt x="814" y="1252" on="0"/>
        <pt x="797" y="1252" on="1"/>
        <pt x="766" y="1252" on="0"/>
        <pt x="706" y="1238" on="0"/>
        <pt x="678" y="1238" on="1"/>
        <pt x="675" y="1238" on="0"/>
        <pt x="675" y="1239" on="1"/>
        <pt x="675" y="1241" on="0"/>
        <pt x="689" y="1248" on="0"/>
        <pt x="689" y="1250" on="1"/>
        <pt x="689" y="1254" on="0"/>
        <pt x="676" y="1254" on="0"/>
        <pt x="674" y="1254" on="1"/>
        <pt x="666" y="1254" on="0"/>
        <pt x="655" y="1238" on="0"/>
        <pt x="644" y="1235" on="1"/>
        <pt x="629" y="1231" on="0"/>
        <pt x="595" y="1231" on="0"/>
        <pt x="579" y="1231" on="1"/>
        <pt x="569" y="1231" on="0"/>
        <pt x="531" y="1233" on="0"/>
        <pt x="493" y="1240" on="0"/>
        <pt x="462" y="1255" on="0"/>
        <pt x="460" y="1269" on="1"/>
        <pt x="449" y="1266" on="0"/>
        <pt x="442" y="1251" on="0"/>
        <pt x="437" y="1235" on="0"/>
        <pt x="427" y="1222" on="0"/>
        <pt x="412" y="1221" on="1"/>
        <pt x="384" y="1219" on="0"/>
        <pt x="368" y="1187" on="0"/>
        <pt x="368" y="1167" on="1"/>
        <pt x="368" y="1156" on="0"/>
        <pt x="370" y="1134" on="0"/>
        <pt x="370" y="1123" on="1"/>
        <pt x="370" y="1083" on="0"/>
        <pt x="367" y="1004" on="0"/>
        <pt x="367" y="964" on="1"/>
        <pt x="367" y="947" on="0"/>
        <pt x="368" y="890" on="0"/>
        <pt x="375" y="835" on="0"/>
        <pt x="389" y="792" on="0"/>
        <pt x="402" y="789" on="1"/>
        <pt x="410" y="787" on="0"/>
        <pt x="428" y="786" on="0"/>
        <pt x="437" y="786" on="1"/>
        <pt x="472" y="786" on="0"/>
        <pt x="539" y="802" on="0"/>
        <pt x="574" y="802" on="1"/>
        <pt x="588" y="802" on="0"/>
        <pt x="613" y="794" on="0"/>
        <pt x="626" y="794" on="1"/>
        <pt x="645" y="794" on="0"/>
        <pt x="666" y="831" on="0"/>
        <pt x="675" y="880" on="0"/>
        <pt x="677" y="930" on="0"/>
        <pt x="677" y="942" on="1"/>
        <pt x="677" y="967" on="0"/>
        <pt x="674" y="1016" on="0"/>
        <pt x="674" y="1041" on="1"/>
        <pt x="680" y="1041" on="1"/>
        <pt x="705" y="1041" on="0"/>
        <pt x="749" y="1025" on="0"/>
        <pt x="773" y="1025" on="1"/>
        <pt x="783" y="1025" on="0"/>
        <pt x="788" y="1026" on="1"/>
        <pt x="788" y="1006" on="0"/>
        <pt x="802" y="966" on="0"/>
        <pt x="802" y="945" on="1"/>
        <pt x="802" y="919" on="0"/>
        <pt x="774" y="912" on="1"/>
        <pt x="782" y="898" on="0"/>
        <pt x="792" y="870" on="0"/>
        <pt x="792" y="855" on="1"/>
        <pt x="792" y="844" on="0"/>
        <pt x="788" y="823" on="0"/>
        <pt x="788" y="812" on="1"/>
        <pt x="788" y="802" on="0"/>
        <pt x="801" y="791" on="0"/>
        <pt x="801" y="784" on="1"/>
        <pt x="801" y="772" on="0"/>
        <pt x="782" y="736" on="0"/>
        <pt x="782" y="717" on="1"/>
        <pt x="782" y="695" on="0"/>
        <pt x="790" y="647" on="0"/>
        <pt x="800" y="595" on="0"/>
        <pt x="808" y="542" on="0"/>
        <pt x="808" y="515" on="1"/>
        <pt x="808" y="499" on="0"/>
        <pt x="805" y="465" on="0"/>
        <pt x="794" y="434" on="0"/>
        <pt x="775" y="408" on="0"/>
        <pt x="760" y="399" on="1"/>
        <pt x="741" y="401" on="0"/>
        <pt x="715" y="420" on="0"/>
        <pt x="698" y="447" on="0"/>
        <pt x="689" y="480" on="0"/>
        <pt x="687" y="497" on="1"/>
        <pt x="683" y="523" on="0"/>
        <pt x="683" y="567" on="0"/>
        <pt x="664" y="598" on="0"/>
        <pt x="611" y="616" on="0"/>
        <pt x="555" y="616" on="1"/>
        <pt x="539" y="616" on="0"/>
        <pt x="480" y="610" on="0"/>
        <pt x="422" y="595" on="0"/>
        <pt x="379" y="567" on="0"/>
        <pt x="379" y="546" on="1"/>
        <pt x="379" y="534" on="0"/>
        <pt x="384" y="511" on="0"/>
        <pt x="384" y="499" on="1"/>
        <pt x="384" y="489" on="0"/>
        <pt x="382" y="469" on="0"/>
        <pt x="382" y="458" on="1"/>
        <pt x="382" y="431" on="0"/>
        <pt x="388" y="378" on="0"/>
        <pt x="388" y="351" on="1"/>
        <pt x="388" y="322" on="0"/>
        <pt x="373" y="266" on="0"/>
        <pt x="373" y="237" on="1"/>
        <pt x="373" y="205" on="0"/>
        <pt x="404" y="168" on="0"/>
        <pt x="452" y="149" on="0"/>
        <pt x="508" y="143" on="0"/>
        <pt x="532" y="143" on="1"/>
        <pt x="580" y="143" on="0"/>
        <pt x="676" y="155" on="0"/>
        <pt x="724" y="155" on="1"/>
        <pt x="754" y="155" on="0"/>
        <pt x="814" y="149" on="0"/>
        <pt x="844" y="149" on="1"/>
        <pt x="867" y="149" on="0"/>
        <pt x="923" y="152" on="0"/>
        <pt x="974" y="168" on="0"/>
        <pt x="1011" y="199" on="0"/>
        <pt x="1016" y="228" on="1"/>
        <pt x="1017" y="236" on="0"/>
        <pt x="1026" y="243" on="0"/>
        <pt x="1037" y="248" on="0"/>
        <pt x="1045" y="254" on="0"/>
        <pt x="1045" y="261" on="1"/>
        <pt x="1045" y="269" on="0"/>
        <pt x="1033" y="290" on="0"/>
        <pt x="1031" y="299" on="1"/>
        <pt x="1027" y="318" on="0"/>
        <pt x="1026" y="357" on="0"/>
        <pt x="1026" y="376" on="1"/>
        <pt x="1026" y="406" on="0"/>
        <pt x="1045" y="451" on="0"/>
        <pt x="1045" y="478" on="1"/>
        <pt x="1045" y="486" on="0"/>
        <pt x="1044" y="500" on="0"/>
        <pt x="1044" y="508" on="1"/>
        <pt x="1044" y="514" on="0"/>
        <pt x="1062" y="526" on="0"/>
        <pt x="1086" y="535" on="0"/>
        <pt x="1110" y="541" on="0"/>
        <pt x="1116" y="541" on="1"/>
        <pt x="1141" y="541" on="0"/>
        <pt x="1173" y="506" on="0"/>
        <pt x="1190" y="456" on="0"/>
        <pt x="1196" y="402" on="0"/>
        <pt x="1196" y="383" on="1"/>
        <pt x="1196" y="352" on="0"/>
        <pt x="1186" y="274" on="0"/>
        <pt x="1169" y="192" on="0"/>
        <pt x="1147" y="115" on="0"/>
        <pt x="1136" y="86" on="1"/>
        <pt x="1130" y="72" on="0"/>
        <pt x="1119" y="58" on="0"/>
        <pt x="1106" y="49" on="0"/>
        <pt x="1091" y="40" on="0"/>
        <pt x="1082" y="30" on="1"/>
        <pt x="1074" y="21" on="0"/>
        <pt x="1029" y="15" on="0"/>
        <pt x="1004" y="15" on="1"/>
        <pt x="985" y="15" on="0"/>
        <pt x="951" y="17" on="0"/>
        <pt x="942" y="17" on="1"/>
        <pt x="909" y="17" on="0"/>
        <pt x="868" y="1" on="0"/>
        <pt x="850" y="1" on="1"/>
        <pt x="837" y="1" on="0"/>
        <pt x="829" y="12" on="0"/>
        <pt x="821" y="12" on="1"/>
        <pt x="814" y="12" on="0"/>
        <pt x="802" y="0" on="0"/>
        <pt x="790" y="0" on="1"/>
        <pt x="778" y="0" on="0"/>
        <pt x="753" y="1" on="0"/>
        <pt x="740" y="1" on="1"/>
        <pt x="665" y="1" on="0"/>
        <pt x="517" y="-8" on="0"/>
        <pt x="442" y="-10" on="1"/>
        <pt x="391" y="-12" on="0"/>
        <pt x="291" y="-32" on="0"/>
        <pt x="240" y="-32" on="1"/>
        <pt x="222" y="-32" on="0"/>
        <pt x="176" y="-25" on="0"/>
        <pt x="135" y="-7" on="0"/>
        <pt x="107" y="24" on="0"/>
        <pt x="107" y="47" on="1"/>
        <pt x="107" y="69" on="0"/>
        <pt x="139" y="109" on="0"/>
        <pt x="184" y="143" on="0"/>
        <pt x="232" y="172" on="0"/>
        <pt x="247" y="185" on="1"/>
        <pt x="246" y="193" on="0"/>
        <pt x="246" y="207" on="0"/>
        <pt x="246" y="214" on="1"/>
        <pt x="246" y="229" on="0"/>
        <pt x="247" y="259" on="0"/>
        <pt x="252" y="274" on="1"/>
        <pt x="254" y="283" on="0"/>
        <pt x="271" y="308" on="0"/>
        <pt x="271" y="317" on="1"/>
        <pt x="271" y="324" on="0"/>
        <pt x="266" y="336" on="0"/>
        <pt x="264" y="343" on="1"/>
        <pt x="253" y="370" on="0"/>
        <pt x="244" y="412" on="0"/>
        <pt x="244" y="442" on="1"/>
        <pt x="244" y="460" on="0"/>
        <pt x="245" y="487" on="0"/>
        <pt x="248" y="512" on="0"/>
        <pt x="255" y="539" on="0"/>
        <pt x="261" y="556" on="1"/>
        <pt x="257" y="563" on="0"/>
        <pt x="247" y="591" on="0"/>
        <pt x="247" y="599" on="1"/>
        <pt x="261" y="741" on="1"/>
        <pt x="260" y="744" on="0"/>
        <pt x="260" y="751" on="1"/>
        <pt x="260" y="760" on="0"/>
        <pt x="266" y="778" on="0"/>
        <pt x="266" y="788" on="1"/>
        <pt x="266" y="811" on="0"/>
        <pt x="250" y="856" on="0"/>
        <pt x="250" y="879" on="1"/>
        <pt x="250" y="887" on="0"/>
        <pt x="258" y="909" on="0"/>
        <pt x="267" y="935" on="0"/>
        <pt x="275" y="966" on="0"/>
        <pt x="275" y="984" on="1"/>
        <pt x="275" y="998" on="0"/>
        <pt x="262" y="1018" on="0"/>
        <pt x="262" y="1031" on="1"/>
        <pt x="262" y="1043" on="0"/>
        <pt x="274" y="1067" on="0"/>
        <pt x="274" y="1081" on="1"/>
        <pt x="274" y="1101" on="0"/>
        <pt x="259" y="1138" on="0"/>
        <pt x="251" y="1155" on="1"/>
        <pt x="239" y="1180" on="0"/>
        <pt x="226" y="1211" on="0"/>
        <pt x="208" y="1230" on="0"/>
        <pt x="177" y="1239" on="0"/>
        <pt x="148" y="1241" on="1"/>
        <pt x="134" y="1242" on="0"/>
        <pt x="109" y="1257" on="0"/>
        <pt x="90" y="1281" on="0"/>
        <pt x="78" y="1309" on="0"/>
        <pt x="78" y="1322" on="1"/>
        <pt x="78" y="1340" on="0"/>
        <pt x="110" y="1365" on="0"/>
        <pt x="160" y="1380" on="0"/>
        <pt x="222" y="1389" on="0"/>
        <pt x="281" y="1394" on="0"/>
        <pt x="330" y="1396" on="0"/>
        <pt x="343" y="1398" on="1"/>
        <pt x="363" y="1401" on="0"/>
        <pt x="401" y="1403" on="0"/>
        <pt x="421" y="1403" on="1"/>
        <pt x="460" y="1403" on="0"/>
        <pt x="539" y="1398" on="0"/>
        <pt x="578" y="1398" on="1"/>
        <pt x="620" y="1398" on="0"/>
        <pt x="701" y="1414" on="0"/>
        <pt x="743" y="1414" on="1"/>
        <pt x="781" y="1414" on="0"/>
        <pt x="855" y="1397" on="0"/>
        <pt x="891" y="1397" on="1"/>
        <pt x="926" y="1397" on="0"/>
        <pt x="994" y="1414" on="0"/>
        <pt x="1029" y="1414" on="1"/>
        <pt x="1044" y="1414" on="0"/>
        <pt x="1059" y="1411" on="1"/>
        <pt x="1081" y="1387" on="0"/>
        <pt x="1118" y="1355" on="0"/>
        <pt x="1145" y="1322" on="0"/>
        <pt x="1162" y="1278" on="0"/>
        <pt x="1165" y="1242" on="1"/>
        <pt x="1166" y="1229" on="0"/>
        <pt x="1166" y="1192" on="0"/>
        <pt x="1168" y="1157" on="0"/>
        <pt x="1177" y="1129" on="0"/>
        <pt x="1187" y="1126" on="1"/>
        <pt x="1187" y="1112" on="0"/>
        <pt x="1173" y="1112" on="1"/>
        <pt x="1174" y="1098" on="0"/>
        <pt x="1184" y="1069" on="0"/>
        <pt x="1194" y="1040" on="0"/>
        <pt x="1202" y="1011" on="0"/>
      </contour>
      <contour>
        <pt x="336" y="752" on="1"/>
        <pt x="330" y="752" on="0"/>
        <pt x="320" y="748" on="0"/>
        <pt x="318" y="741" on="1"/>
        <pt x="356" y="719" on="0"/>
        <pt x="401" y="680" on="0"/>
        <pt x="426" y="656" on="0"/>
        <pt x="438" y="653" on="0"/>
        <pt x="444" y="667" on="1"/>
        <pt x="452" y="685" on="0"/>
        <pt x="431" y="717" on="0"/>
        <pt x="394" y="739" on="0"/>
        <pt x="351" y="752" on="0"/>
      </contour>
    </TTGlyph>
    <TTGlyph name="Eacute" xMin="78" yMin="-32" xMax="1202" yMax="1806">
      <component glyphName="E" x="0" y="0" flags="0x204"/>
      <component glyphName="acute" x="586" y="319" flags="0x4"/>
    </TTGlyph>
    <TTGlyph name="Ebreve" xMin="78" yMin="-32" xMax="1202" yMax="1794">
      <component glyphName="E" x="0" y="0" flags="0x204"/>
      <component glyphName="breve" x="365" y="268" flags="0x4"/>
    </TTGlyph>
    <TTGlyph name="Ecaron" xMin="78" yMin="-32" xMax="1202" yMax="1868">
      <component glyphName="E" x="0" y="0" flags="0x204"/>
      <component glyphName="caron" x="415" y="342" flags="0x4"/>
    </TTGlyph>
    <TTGlyph name="Ecircumflex" xMin="78" yMin="-32" xMax="1202" yMax="1817">
      <component glyphName="E" x="0" y="0" flags="0x204"/>
      <component glyphName="circumflex" x="351" y="291" flags="0x4"/>
    </TTGlyph>
    <TTGlyph name="Edieresis" xMin="78" yMin="-32" xMax="1202" yMax="1749">
      <component glyphName="E" x="0" y="0" flags="0x204"/>
      <component glyphName="dieresis" x="320" y="213" flags="0x4"/>
    </TTGlyph>
    <TTGlyph name="Edotaccent" xMin="78" yMin="-32" xMax="1202" yMax="1736">
      <component glyphName="E" x="0" y="0" flags="0x204"/>
      <component glyphName="dotaccent" x="519" y="245" flags="0x4"/>
    </TTGlyph>
    <TTGlyph name="Egrave" xMin="78" yMin="-32" xMax="1202" yMax="1814">
      <component glyphName="E" x="0" y="0" flags="0x204"/>
      <component glyphName="grave" x="274" y="278" flags="0x4"/>
    </TTGlyph>
    <TTGlyph name="Emacron" xMin="78" yMin="-32" xMax="1202" yMax="1633">
      <component glyphName="E" x="0" y="0" flags="0x204"/>
      <component glyphName="macron" x="400" y="205" flags="0x4"/>
    </TTGlyph>
    <TTGlyph name="Eng" xMin="84" yMin="-654" xMax="1217" yMax="1433">
      <contour>
        <pt x="1217" y="1314" on="1"/>
        <pt x="1217" y="1305" on="0"/>
        <pt x="1208" y="1283" on="0"/>
        <pt x="1197" y="1283" on="1"/>
        <pt x="1193" y="1283" on="0"/>
        <pt x="1186" y="1291" on="0"/>
        <pt x="1180" y="1301" on="0"/>
        <pt x="1173" y="1309" on="0"/>
        <pt x="1169" y="1310" on="1"/>
        <pt x="1170" y="1291" on="0"/>
        <pt x="1168" y="1271" on="0"/>
        <pt x="1164" y="1262" on="0"/>
        <pt x="1157" y="1261" on="0"/>
        <pt x="1153" y="1261" on="1"/>
        <pt x="1145" y="1261" on="0"/>
        <pt x="1131" y="1259" on="0"/>
        <pt x="1124" y="1257" on="1"/>
        <pt x="1101" y="1252" on="0"/>
        <pt x="1078" y="1249" on="0"/>
        <pt x="1068" y="1239" on="0"/>
        <pt x="1066" y="1217" on="0"/>
        <pt x="1064" y="1193" on="1"/>
        <pt x="1062" y="1175" on="0"/>
        <pt x="1060" y="1140" on="0"/>
        <pt x="1060" y="1122" on="1"/>
        <pt x="1060" y="1074" on="0"/>
        <pt x="1069" y="982" on="0"/>
        <pt x="1069" y="934" on="1"/>
        <pt x="1069" y="911" on="0"/>
        <pt x="1062" y="867" on="0"/>
        <pt x="1062" y="844" on="1"/>
        <pt x="1062" y="824" on="0"/>
        <pt x="1079" y="785" on="0"/>
        <pt x="1079" y="768" on="1"/>
        <pt x="1079" y="763" on="0"/>
        <pt x="1072" y="754" on="0"/>
        <pt x="1063" y="744" on="0"/>
        <pt x="1056" y="732" on="0"/>
        <pt x="1056" y="724" on="1"/>
        <pt x="1056" y="703" on="0"/>
        <pt x="1071" y="664" on="0"/>
        <pt x="1071" y="643" on="1"/>
        <pt x="1071" y="611" on="0"/>
        <pt x="1063" y="547" on="0"/>
        <pt x="1054" y="483" on="0"/>
        <pt x="1046" y="419" on="0"/>
        <pt x="1046" y="387" on="1"/>
        <pt x="1046" y="361" on="0"/>
        <pt x="1053" y="314" on="0"/>
        <pt x="1062" y="291" on="1"/>
        <pt x="1064" y="286" on="0"/>
        <pt x="1068" y="274" on="0"/>
        <pt x="1068" y="269" on="1"/>
        <pt x="1068" y="256" on="0"/>
        <pt x="1055" y="239" on="0"/>
        <pt x="1055" y="233" on="1"/>
        <pt x="1055" y="228" on="0"/>
        <pt x="1068" y="214" on="0"/>
        <pt x="1070" y="208" on="1"/>
        <pt x="1077" y="185" on="0"/>
        <pt x="1085" y="130" on="0"/>
        <pt x="1085" y="106" on="1"/>
        <pt x="1085" y="77" on="0"/>
        <pt x="1073" y="22" on="0"/>
        <pt x="1073" y="-9" on="1"/>
        <pt x="1073" y="-62" on="0"/>
        <pt x="1087" y="-165" on="0"/>
        <pt x="1087" y="-218" on="1"/>
        <pt x="1087" y="-233" on="0"/>
        <pt x="1079" y="-291" on="0"/>
        <pt x="1066" y="-354" on="0"/>
        <pt x="1051" y="-409" on="0"/>
        <pt x="1044" y="-420" on="1"/>
        <pt x="1034" y="-436" on="0"/>
        <pt x="1000" y="-450" on="0"/>
        <pt x="987" y="-463" on="1"/>
        <pt x="979" y="-470" on="0"/>
        <pt x="959" y="-498" on="0"/>
        <pt x="938" y="-527" on="0"/>
        <pt x="916" y="-550" on="0"/>
        <pt x="907" y="-552" on="1"/>
        <pt x="900" y="-560" on="0"/>
        <pt x="887" y="-577" on="0"/>
        <pt x="879" y="-585" on="1"/>
        <pt x="869" y="-594" on="0"/>
        <pt x="863" y="-605" on="0"/>
        <pt x="857" y="-612" on="0"/>
        <pt x="846" y="-615" on="0"/>
        <pt x="831" y="-616" on="1"/>
        <pt x="809" y="-618" on="0"/>
        <pt x="768" y="-630" on="0"/>
        <pt x="727" y="-643" on="0"/>
        <pt x="686" y="-654" on="0"/>
        <pt x="664" y="-654" on="1"/>
        <pt x="622" y="-654" on="0"/>
        <pt x="548" y="-629" on="0"/>
        <pt x="511" y="-609" on="1"/>
        <pt x="498" y="-602" on="0"/>
        <pt x="481" y="-595" on="0"/>
        <pt x="467" y="-588" on="0"/>
        <pt x="452" y="-575" on="0"/>
        <pt x="442" y="-563" on="1"/>
        <pt x="421" y="-537" on="0"/>
        <pt x="371" y="-501" on="0"/>
        <pt x="344" y="-481" on="1"/>
        <pt x="330" y="-471" on="0"/>
        <pt x="314" y="-438" on="0"/>
        <pt x="305" y="-400" on="0"/>
        <pt x="302" y="-361" on="0"/>
        <pt x="302" y="-345" on="1"/>
        <pt x="302" y="-326" on="0"/>
        <pt x="305" y="-281" on="0"/>
        <pt x="313" y="-236" on="0"/>
        <pt x="326" y="-194" on="0"/>
        <pt x="336" y="-177" on="1"/>
        <pt x="348" y="-158" on="0"/>
        <pt x="367" y="-129" on="0"/>
        <pt x="391" y="-111" on="0"/>
        <pt x="423" y="-102" on="0"/>
        <pt x="448" y="-102" on="1"/>
        <pt x="484" y="-102" on="0"/>
        <pt x="535" y="-110" on="0"/>
        <pt x="573" y="-134" on="0"/>
        <pt x="599" y="-178" on="0"/>
        <pt x="610" y="-214" on="1"/>
        <pt x="615" y="-231" on="0"/>
        <pt x="621" y="-266" on="0"/>
        <pt x="621" y="-283" on="1"/>
        <pt x="621" y="-302" on="0"/>
        <pt x="608" y="-342" on="0"/>
        <pt x="588" y="-349" on="1"/>
        <pt x="580" y="-359" on="0"/>
        <pt x="562" y="-380" on="0"/>
        <pt x="547" y="-403" on="0"/>
        <pt x="536" y="-428" on="0"/>
        <pt x="536" y="-441" on="1"/>
        <pt x="536" y="-468" on="0"/>
        <pt x="571" y="-499" on="0"/>
        <pt x="620" y="-514" on="0"/>
        <pt x="671" y="-517" on="0"/>
        <pt x="686" y="-517" on="1"/>
        <pt x="707" y="-517" on="0"/>
        <pt x="743" y="-497" on="0"/>
        <pt x="762" y="-490" on="1"/>
        <pt x="779" y="-484" on="0"/>
        <pt x="817" y="-475" on="0"/>
        <pt x="853" y="-464" on="0"/>
        <pt x="887" y="-448" on="0"/>
        <pt x="901" y="-434" on="1"/>
        <pt x="924" y="-356" on="0"/>
        <pt x="931" y="-191" on="0"/>
        <pt x="931" y="-110" on="1"/>
        <pt x="930" y="-92" on="0"/>
        <pt x="925" y="-81" on="0"/>
        <pt x="919" y="-76" on="0"/>
        <pt x="915" y="-70" on="0"/>
        <pt x="915" y="-58" on="1"/>
        <pt x="915" y="-33" on="0"/>
        <pt x="895" y="25" on="0"/>
        <pt x="866" y="84" on="0"/>
        <pt x="832" y="142" on="0"/>
        <pt x="817" y="169" on="1"/>
        <pt x="807" y="187" on="0"/>
        <pt x="796" y="220" on="0"/>
        <pt x="784" y="252" on="0"/>
        <pt x="766" y="283" on="0"/>
        <pt x="750" y="298" on="1"/>
        <pt x="737" y="310" on="0"/>
        <pt x="723" y="343" on="0"/>
        <pt x="714" y="380" on="0"/>
        <pt x="707" y="417" on="0"/>
        <pt x="703" y="433" on="1"/>
        <pt x="692" y="472" on="0"/>
        <pt x="662" y="548" on="0"/>
        <pt x="648" y="586" on="1"/>
        <pt x="643" y="598" on="0"/>
        <pt x="628" y="628" on="0"/>
        <pt x="612" y="658" on="0"/>
        <pt x="599" y="686" on="0"/>
        <pt x="598" y="698" on="1"/>
        <pt x="594" y="731" on="0"/>
        <pt x="568" y="784" on="0"/>
        <pt x="538" y="832" on="0"/>
        <pt x="510" y="882" on="0"/>
        <pt x="505" y="913" on="1"/>
        <pt x="503" y="923" on="0"/>
        <pt x="493" y="956" on="0"/>
        <pt x="477" y="989" on="0"/>
        <pt x="455" y="1013" on="0"/>
        <pt x="443" y="1013" on="1"/>
        <pt x="432" y="1013" on="0"/>
        <pt x="419" y="992" on="0"/>
        <pt x="411" y="963" on="0"/>
        <pt x="408" y="934" on="0"/>
        <pt x="408" y="927" on="1"/>
        <pt x="408" y="907" on="0"/>
        <pt x="413" y="867" on="0"/>
        <pt x="413" y="847" on="1"/>
        <pt x="413" y="832" on="0"/>
        <pt x="401" y="804" on="0"/>
        <pt x="401" y="790" on="1"/>
        <pt x="401" y="781" on="0"/>
        <pt x="414" y="769" on="0"/>
        <pt x="414" y="761" on="1"/>
        <pt x="414" y="753" on="0"/>
        <pt x="410" y="738" on="0"/>
        <pt x="410" y="730" on="1"/>
        <pt x="410" y="705" on="0"/>
        <pt x="415" y="657" on="0"/>
        <pt x="415" y="633" on="1"/>
        <pt x="415" y="616" on="0"/>
        <pt x="411" y="581" on="0"/>
        <pt x="399" y="551" on="0"/>
        <pt x="375" y="530" on="0"/>
        <pt x="356" y="527" on="1"/>
        <pt x="360" y="519" on="0"/>
        <pt x="373" y="514" on="0"/>
        <pt x="387" y="512" on="0"/>
        <pt x="397" y="508" on="0"/>
        <pt x="397" y="499" on="1"/>
        <pt x="397" y="494" on="0"/>
        <pt x="396" y="487" on="0"/>
        <pt x="396" y="483" on="1"/>
        <pt x="396" y="472" on="0"/>
        <pt x="405" y="458" on="0"/>
        <pt x="417" y="445" on="0"/>
        <pt x="426" y="432" on="0"/>
        <pt x="426" y="422" on="1"/>
        <pt x="426" y="410" on="0"/>
        <pt x="420" y="388" on="0"/>
        <pt x="420" y="377" on="1"/>
        <pt x="420" y="353" on="0"/>
        <pt x="432" y="308" on="0"/>
        <pt x="432" y="284" on="1"/>
        <pt x="432" y="271" on="0"/>
        <pt x="427" y="260" on="0"/>
        <pt x="420" y="254" on="0"/>
        <pt x="415" y="251" on="0"/>
        <pt x="415" y="245" on="1"/>
        <pt x="415" y="235" on="0"/>
        <pt x="421" y="218" on="0"/>
        <pt x="421" y="208" on="1"/>
        <pt x="421" y="202" on="0"/>
        <pt x="418" y="190" on="0"/>
        <pt x="413" y="185" on="1"/>
        <pt x="414" y="173" on="0"/>
        <pt x="428" y="163" on="0"/>
        <pt x="447" y="155" on="0"/>
        <pt x="465" y="146" on="0"/>
        <pt x="470" y="135" on="1"/>
        <pt x="474" y="126" on="0"/>
        <pt x="483" y="111" on="0"/>
        <pt x="494" y="111" on="1"/>
        <pt x="511" y="111" on="0"/>
        <pt x="539" y="126" on="0"/>
        <pt x="555" y="126" on="1"/>
        <pt x="581" y="126" on="0"/>
        <pt x="601" y="85" on="0"/>
        <pt x="601" y="63" on="1"/>
        <pt x="601" y="35" on="0"/>
        <pt x="582" y="12" on="0"/>
        <pt x="559" y="1" on="0"/>
        <pt x="540" y="-9" on="0"/>
        <pt x="540" y="-23" on="1"/>
        <pt x="540" y="-25" on="0"/>
        <pt x="541" y="-27" on="0"/>
        <pt x="541" y="-29" on="1"/>
        <pt x="527" y="-20" on="0"/>
        <pt x="496" y="-12" on="0"/>
        <pt x="479" y="-12" on="1"/>
        <pt x="449" y="-12" on="0"/>
        <pt x="390" y="-29" on="0"/>
        <pt x="360" y="-29" on="1"/>
        <pt x="338" y="-29" on="0"/>
        <pt x="296" y="-21" on="0"/>
        <pt x="274" y="-21" on="1"/>
        <pt x="260" y="-21" on="0"/>
        <pt x="233" y="-28" on="0"/>
        <pt x="219" y="-28" on="1"/>
        <pt x="205" y="-28" on="0"/>
        <pt x="159" y="-15" on="0"/>
        <pt x="115" y="6" on="0"/>
        <pt x="84" y="31" on="0"/>
        <pt x="84" y="42" on="1"/>
        <pt x="84" y="72" on="0"/>
        <pt x="124" y="121" on="0"/>
        <pt x="154" y="126" on="1"/>
        <pt x="169" y="129" on="0"/>
        <pt x="206" y="129" on="0"/>
        <pt x="242" y="132" on="0"/>
        <pt x="274" y="143" on="0"/>
        <pt x="285" y="157" on="1"/>
        <pt x="281" y="172" on="0"/>
        <pt x="281" y="191" on="1"/>
        <pt x="281" y="226" on="0"/>
        <pt x="299" y="292" on="0"/>
        <pt x="299" y="327" on="1"/>
        <pt x="299" y="341" on="0"/>
        <pt x="296" y="356" on="1"/>
        <pt x="284" y="425" on="0"/>
        <pt x="284" y="495" on="1"/>
        <pt x="284" y="515" on="0"/>
        <pt x="286" y="556" on="0"/>
        <pt x="286" y="576" on="1"/>
        <pt x="286" y="628" on="0"/>
        <pt x="271" y="730" on="0"/>
        <pt x="269" y="782" on="1"/>
        <pt x="267" y="837" on="0"/>
        <pt x="267" y="944" on="0"/>
        <pt x="256" y="998" on="1"/>
        <pt x="253" y="1012" on="0"/>
        <pt x="252" y="1038" on="0"/>
        <pt x="252" y="1052" on="1"/>
        <pt x="252" y="1088" on="1"/>
        <pt x="252" y="1130" on="0"/>
        <pt x="244" y="1172" on="0"/>
        <pt x="224" y="1191" on="0"/>
        <pt x="193" y="1196" on="0"/>
        <pt x="170" y="1199" on="1"/>
        <pt x="157" y="1201" on="0"/>
        <pt x="130" y="1223" on="0"/>
        <pt x="107" y="1253" on="0"/>
        <pt x="92" y="1285" on="0"/>
        <pt x="92" y="1298" on="1"/>
        <pt x="92" y="1320" on="1"/>
        <pt x="92" y="1360" on="0"/>
        <pt x="116" y="1403" on="0"/>
        <pt x="158" y="1424" on="0"/>
        <pt x="215" y="1428" on="0"/>
        <pt x="248" y="1428" on="1"/>
        <pt x="281" y="1428" on="0"/>
        <pt x="352" y="1423" on="0"/>
        <pt x="418" y="1406" on="0"/>
        <pt x="472" y="1373" on="0"/>
        <pt x="489" y="1345" on="1"/>
        <pt x="500" y="1326" on="0"/>
        <pt x="516" y="1285" on="0"/>
        <pt x="530" y="1243" on="0"/>
        <pt x="544" y="1202" on="0"/>
        <pt x="555" y="1183" on="1"/>
        <pt x="560" y="1174" on="0"/>
        <pt x="565" y="1153" on="0"/>
        <pt x="570" y="1132" on="0"/>
        <pt x="576" y="1113" on="0"/>
        <pt x="582" y="1104" on="1"/>
        <pt x="589" y="1096" on="0"/>
        <pt x="608" y="1079" on="0"/>
        <pt x="613" y="1069" on="1"/>
        <pt x="622" y="1049" on="0"/>
        <pt x="629" y="1006" on="0"/>
        <pt x="635" y="963" on="0"/>
        <pt x="642" y="920" on="0"/>
        <pt x="651" y="900" on="1"/>
        <pt x="657" y="888" on="0"/>
        <pt x="668" y="872" on="0"/>
        <pt x="677" y="857" on="0"/>
        <pt x="684" y="838" on="0"/>
        <pt x="686" y="823" on="1"/>
        <pt x="688" y="801" on="0"/>
        <pt x="692" y="758" on="0"/>
        <pt x="700" y="737" on="1"/>
        <pt x="706" y="722" on="0"/>
        <pt x="726" y="696" on="0"/>
        <pt x="747" y="671" on="0"/>
        <pt x="767" y="645" on="0"/>
        <pt x="772" y="629" on="1"/>
        <pt x="782" y="599" on="0"/>
        <pt x="800" y="547" on="0"/>
        <pt x="826" y="527" on="1"/>
        <pt x="820" y="518" on="0"/>
        <pt x="811" y="497" on="0"/>
        <pt x="811" y="486" on="1"/>
        <pt x="811" y="465" on="0"/>
        <pt x="832" y="424" on="0"/>
        <pt x="840" y="405" on="1"/>
        <pt x="846" y="390" on="0"/>
        <pt x="859" y="368" on="0"/>
        <pt x="875" y="360" on="1"/>
        <pt x="889" y="353" on="0"/>
        <pt x="899" y="342" on="0"/>
        <pt x="901" y="329" on="0"/>
        <pt x="900" y="312" on="0"/>
        <pt x="903" y="299" on="1"/>
        <pt x="904" y="293" on="0"/>
        <pt x="910" y="276" on="0"/>
        <pt x="919" y="259" on="0"/>
        <pt x="931" y="247" on="0"/>
        <pt x="938" y="247" on="1"/>
        <pt x="944" y="247" on="0"/>
        <pt x="950" y="256" on="0"/>
        <pt x="954" y="268" on="0"/>
        <pt x="955" y="281" on="0"/>
        <pt x="955" y="285" on="1"/>
        <pt x="955" y="299" on="0"/>
        <pt x="970" y="322" on="0"/>
        <pt x="970" y="337" on="1"/>
        <pt x="970" y="354" on="0"/>
        <pt x="955" y="382" on="0"/>
        <pt x="955" y="399" on="1"/>
        <pt x="955" y="413" on="0"/>
        <pt x="966" y="436" on="0"/>
        <pt x="966" y="450" on="1"/>
        <pt x="966" y="460" on="0"/>
        <pt x="951" y="474" on="0"/>
        <pt x="951" y="481" on="1"/>
        <pt x="951" y="484" on="0"/>
        <pt x="957" y="485" on="0"/>
        <pt x="963" y="487" on="0"/>
        <pt x="969" y="492" on="0"/>
        <pt x="969" y="499" on="1"/>
        <pt x="969" y="523" on="0"/>
        <pt x="958" y="568" on="0"/>
        <pt x="944" y="614" on="0"/>
        <pt x="933" y="661" on="0"/>
        <pt x="933" y="685" on="1"/>
        <pt x="933" y="709" on="0"/>
        <pt x="953" y="745" on="0"/>
        <pt x="953" y="751" on="1"/>
        <pt x="953" y="764" on="0"/>
        <pt x="940" y="785" on="0"/>
        <pt x="940" y="798" on="1"/>
        <pt x="940" y="813" on="0"/>
        <pt x="955" y="840" on="0"/>
        <pt x="955" y="855" on="1"/>
        <pt x="955" y="864" on="0"/>
        <pt x="947" y="881" on="0"/>
        <pt x="937" y="899" on="0"/>
        <pt x="928" y="918" on="0"/>
        <pt x="926" y="927" on="1"/>
        <pt x="923" y="942" on="0"/>
        <pt x="922" y="974" on="0"/>
        <pt x="922" y="990" on="1"/>
        <pt x="922" y="1033" on="1"/>
        <pt x="922" y="1060" on="0"/>
        <pt x="917" y="1111" on="0"/>
        <pt x="910" y="1137" on="1"/>
        <pt x="904" y="1161" on="0"/>
        <pt x="902" y="1201" on="0"/>
        <pt x="892" y="1231" on="0"/>
        <pt x="864" y="1250" on="0"/>
        <pt x="832" y="1252" on="1"/>
        <pt x="809" y="1254" on="0"/>
        <pt x="763" y="1255" on="0"/>
        <pt x="740" y="1261" on="1"/>
        <pt x="725" y="1265" on="0"/>
        <pt x="710" y="1291" on="0"/>
        <pt x="704" y="1323" on="0"/>
        <pt x="704" y="1356" on="0"/>
        <pt x="704" y="1366" on="1"/>
        <pt x="704" y="1385" on="0"/>
        <pt x="741" y="1410" on="0"/>
        <pt x="792" y="1426" on="0"/>
        <pt x="844" y="1433" on="0"/>
        <pt x="858" y="1433" on="1"/>
        <pt x="867" y="1433" on="0"/>
        <pt x="913" y="1431" on="0"/>
        <pt x="969" y="1425" on="0"/>
        <pt x="1029" y="1416" on="0"/>
        <pt x="1079" y="1401" on="0"/>
        <pt x="1111" y="1381" on="0"/>
        <pt x="1111" y="1368" on="1"/>
        <pt x="1120" y="1378" on="0"/>
        <pt x="1142" y="1392" on="0"/>
        <pt x="1156" y="1392" on="1"/>
        <pt x="1169" y="1392" on="0"/>
        <pt x="1192" y="1377" on="0"/>
        <pt x="1208" y="1353" on="0"/>
        <pt x="1217" y="1326" on="0"/>
      </contour>
      <contour>
        <pt x="272" y="68" on="1"/>
        <pt x="272" y="77" on="0"/>
        <pt x="262" y="86" on="0"/>
        <pt x="247" y="90" on="0"/>
        <pt x="232" y="95" on="0"/>
        <pt x="228" y="100" on="1"/>
        <pt x="227" y="97" on="0"/>
        <pt x="226" y="92" on="0"/>
        <pt x="226" y="89" on="1"/>
        <pt x="226" y="80" on="0"/>
        <pt x="236" y="71" on="0"/>
        <pt x="251" y="67" on="0"/>
        <pt x="265" y="62" on="0"/>
        <pt x="270" y="57" on="1"/>
        <pt x="271" y="60" on="0"/>
        <pt x="272" y="65" on="0"/>
      </contour>
    </TTGlyph>
    <TTGlyph name="Eogonek" xMin="78" yMin="-230" xMax="1248" yMax="1414">
      <contour>
        <pt x="1248" y="-85" on="1"/>
        <pt x="1248" y="-105" on="0"/>
        <pt x="1226" y="-130" on="0"/>
        <pt x="1193" y="-146" on="0"/>
        <pt x="1156" y="-157" on="0"/>
        <pt x="1141" y="-162" on="1"/>
        <pt x="1112" y="-173" on="0"/>
        <pt x="1076" y="-197" on="0"/>
        <pt x="1040" y="-217" on="0"/>
        <pt x="996" y="-230" on="0"/>
        <pt x="959" y="-230" on="1"/>
        <pt x="948" y="-230" on="0"/>
        <pt x="935" y="-225" on="0"/>
        <pt x="925" y="-218" on="0"/>
        <pt x="914" y="-209" on="0"/>
        <pt x="906" y="-205" on="1"/>
        <pt x="898" y="-202" on="0"/>
        <pt x="881" y="-200" on="0"/>
        <pt x="873" y="-195" on="1"/>
        <pt x="863" y="-190" on="0"/>
        <pt x="842" y="-168" on="0"/>
        <pt x="825" y="-141" on="0"/>
        <pt x="814" y="-113" on="0"/>
        <pt x="814" y="-101" on="1"/>
        <pt x="814" y="-85" on="0"/>
        <pt x="820" y="-57" on="0"/>
        <pt x="820" y="-41" on="1"/>
        <pt x="816" y="-21" on="0"/>
        <pt x="816" y="2" on="1"/>
        <pt x="816" y="8" on="0"/>
        <pt x="817" y="11" on="1"/>
        <pt x="812" y="9" on="0"/>
        <pt x="800" y="0" on="0"/>
        <pt x="790" y="0" on="1"/>
        <pt x="778" y="0" on="0"/>
        <pt x="753" y="1" on="0"/>
        <pt x="740" y="1" on="1"/>
        <pt x="665" y="1" on="0"/>
        <pt x="517" y="-8" on="0"/>
        <pt x="442" y="-10" on="1"/>
        <pt x="391" y="-12" on="0"/>
        <pt x="291" y="-32" on="0"/>
        <pt x="240" y="-32" on="1"/>
        <pt x="222" y="-32" on="0"/>
        <pt x="176" y="-25" on="0"/>
        <pt x="135" y="-7" on="0"/>
        <pt x="107" y="24" on="0"/>
        <pt x="107" y="47" on="1"/>
        <pt x="107" y="69" on="0"/>
        <pt x="139" y="109" on="0"/>
        <pt x="184" y="143" on="0"/>
        <pt x="232" y="172" on="0"/>
        <pt x="247" y="185" on="1"/>
        <pt x="246" y="193" on="0"/>
        <pt x="246" y="207" on="0"/>
        <pt x="246" y="214" on="1"/>
        <pt x="246" y="229" on="0"/>
        <pt x="247" y="259" on="0"/>
        <pt x="252" y="274" on="1"/>
        <pt x="254" y="283" on="0"/>
        <pt x="271" y="308" on="0"/>
        <pt x="271" y="317" on="1"/>
        <pt x="271" y="324" on="0"/>
        <pt x="266" y="336" on="0"/>
        <pt x="264" y="343" on="1"/>
        <pt x="253" y="370" on="0"/>
        <pt x="244" y="412" on="0"/>
        <pt x="244" y="442" on="1"/>
        <pt x="244" y="460" on="0"/>
        <pt x="245" y="487" on="0"/>
        <pt x="248" y="512" on="0"/>
        <pt x="255" y="539" on="0"/>
        <pt x="261" y="556" on="1"/>
        <pt x="257" y="563" on="0"/>
        <pt x="247" y="591" on="0"/>
        <pt x="247" y="599" on="1"/>
        <pt x="261" y="741" on="1"/>
        <pt x="260" y="744" on="0"/>
        <pt x="260" y="751" on="1"/>
        <pt x="260" y="760" on="0"/>
        <pt x="266" y="778" on="0"/>
        <pt x="266" y="788" on="1"/>
        <pt x="266" y="811" on="0"/>
        <pt x="250" y="856" on="0"/>
        <pt x="250" y="879" on="1"/>
        <pt x="250" y="887" on="0"/>
        <pt x="258" y="909" on="0"/>
        <pt x="267" y="935" on="0"/>
        <pt x="275" y="966" on="0"/>
        <pt x="275" y="984" on="1"/>
        <pt x="275" y="998" on="0"/>
        <pt x="262" y="1018" on="0"/>
        <pt x="262" y="1031" on="1"/>
        <pt x="262" y="1043" on="0"/>
        <pt x="274" y="1067" on="0"/>
        <pt x="274" y="1081" on="1"/>
        <pt x="274" y="1101" on="0"/>
        <pt x="259" y="1138" on="0"/>
        <pt x="251" y="1155" on="1"/>
        <pt x="239" y="1180" on="0"/>
        <pt x="226" y="1211" on="0"/>
        <pt x="208" y="1230" on="0"/>
        <pt x="177" y="1239" on="0"/>
        <pt x="148" y="1241" on="1"/>
        <pt x="134" y="1242" on="0"/>
        <pt x="109" y="1257" on="0"/>
        <pt x="90" y="1281" on="0"/>
        <pt x="78" y="1309" on="0"/>
        <pt x="78" y="1322" on="1"/>
        <pt x="78" y="1340" on="0"/>
        <pt x="110" y="1365" on="0"/>
        <pt x="160" y="1380" on="0"/>
        <pt x="222" y="1389" on="0"/>
        <pt x="281" y="1394" on="0"/>
        <pt x="330" y="1396" on="0"/>
        <pt x="343" y="1398" on="1"/>
        <pt x="363" y="1401" on="0"/>
        <pt x="401" y="1403" on="0"/>
        <pt x="421" y="1403" on="1"/>
        <pt x="460" y="1403" on="0"/>
        <pt x="539" y="1398" on="0"/>
        <pt x="578" y="1398" on="1"/>
        <pt x="620" y="1398" on="0"/>
        <pt x="701" y="1414" on="0"/>
        <pt x="743" y="1414" on="1"/>
        <pt x="781" y="1414" on="0"/>
        <pt x="855" y="1397" on="0"/>
        <pt x="891" y="1397" on="1"/>
        <pt x="926" y="1397" on="0"/>
        <pt x="994" y="1414" on="0"/>
        <pt x="1029" y="1414" on="1"/>
        <pt x="1044" y="1414" on="0"/>
        <pt x="1059" y="1411" on="1"/>
        <pt x="1081" y="1387" on="0"/>
        <pt x="1118" y="1355" on="0"/>
        <pt x="1145" y="1322" on="0"/>
        <pt x="1162" y="1278" on="0"/>
        <pt x="1165" y="1242" on="1"/>
        <pt x="1166" y="1229" on="0"/>
        <pt x="1166" y="1192" on="0"/>
        <pt x="1168" y="1157" on="0"/>
        <pt x="1177" y="1129" on="0"/>
        <pt x="1187" y="1126" on="1"/>
        <pt x="1187" y="1112" on="0"/>
        <pt x="1173" y="1112" on="1"/>
        <pt x="1174" y="1098" on="0"/>
        <pt x="1184" y="1069" on="0"/>
        <pt x="1194" y="1040" on="0"/>
        <pt x="1202" y="1011" on="0"/>
        <pt x="1202" y="998" on="1"/>
        <pt x="1202" y="994" on="0"/>
        <pt x="1192" y="970" on="0"/>
        <pt x="1179" y="942" on="0"/>
        <pt x="1165" y="918" on="0"/>
        <pt x="1161" y="914" on="1"/>
        <pt x="1163" y="913" on="1"/>
        <pt x="1161" y="913" on="0"/>
        <pt x="1159" y="912" on="1"/>
        <pt x="1154" y="912" on="1"/>
        <pt x="1150" y="911" on="0"/>
        <pt x="1141" y="911" on="0"/>
        <pt x="1136" y="911" on="1"/>
        <pt x="1140" y="912" on="1"/>
        <pt x="1117" y="913" on="0"/>
        <pt x="1080" y="928" on="0"/>
        <pt x="1068" y="949" on="1"/>
        <pt x="1066" y="953" on="0"/>
        <pt x="1058" y="974" on="0"/>
        <pt x="1050" y="998" on="0"/>
        <pt x="1045" y="1019" on="0"/>
        <pt x="1045" y="1024" on="1"/>
        <pt x="1045" y="1032" on="0"/>
        <pt x="1048" y="1050" on="0"/>
        <pt x="1048" y="1058" on="1"/>
        <pt x="1048" y="1089" on="0"/>
        <pt x="1036" y="1149" on="0"/>
        <pt x="1036" y="1180" on="1"/>
        <pt x="1036" y="1200" on="0"/>
        <pt x="1046" y="1238" on="0"/>
        <pt x="1059" y="1254" on="1"/>
        <pt x="1054" y="1254" on="1"/>
        <pt x="1042" y="1254" on="0"/>
        <pt x="1028" y="1269" on="0"/>
        <pt x="1012" y="1269" on="1"/>
        <pt x="974" y="1269" on="0"/>
        <pt x="902" y="1251" on="0"/>
        <pt x="862" y="1251" on="1"/>
        <pt x="846" y="1251" on="0"/>
        <pt x="814" y="1252" on="0"/>
        <pt x="797" y="1252" on="1"/>
        <pt x="766" y="1252" on="0"/>
        <pt x="706" y="1238" on="0"/>
        <pt x="678" y="1238" on="1"/>
        <pt x="675" y="1238" on="0"/>
        <pt x="675" y="1239" on="1"/>
        <pt x="675" y="1241" on="0"/>
        <pt x="689" y="1248" on="0"/>
        <pt x="689" y="1250" on="1"/>
        <pt x="689" y="1254" on="0"/>
        <pt x="676" y="1254" on="0"/>
        <pt x="674" y="1254" on="1"/>
        <pt x="666" y="1254" on="0"/>
        <pt x="655" y="1238" on="0"/>
        <pt x="644" y="1235" on="1"/>
        <pt x="629" y="1231" on="0"/>
        <pt x="595" y="1231" on="0"/>
        <pt x="579" y="1231" on="1"/>
        <pt x="569" y="1231" on="0"/>
        <pt x="531" y="1233" on="0"/>
        <pt x="493" y="1240" on="0"/>
        <pt x="462" y="1255" on="0"/>
        <pt x="460" y="1269" on="1"/>
        <pt x="449" y="1266" on="0"/>
        <pt x="442" y="1251" on="0"/>
        <pt x="437" y="1235" on="0"/>
        <pt x="427" y="1222" on="0"/>
        <pt x="412" y="1221" on="1"/>
        <pt x="384" y="1219" on="0"/>
        <pt x="368" y="1187" on="0"/>
        <pt x="368" y="1167" on="1"/>
        <pt x="368" y="1156" on="0"/>
        <pt x="370" y="1134" on="0"/>
        <pt x="370" y="1123" on="1"/>
        <pt x="370" y="1083" on="0"/>
        <pt x="367" y="1004" on="0"/>
        <pt x="367" y="964" on="1"/>
        <pt x="367" y="947" on="0"/>
        <pt x="368" y="890" on="0"/>
        <pt x="375" y="835" on="0"/>
        <pt x="389" y="792" on="0"/>
        <pt x="402" y="789" on="1"/>
        <pt x="410" y="787" on="0"/>
        <pt x="428" y="786" on="0"/>
        <pt x="437" y="786" on="1"/>
        <pt x="472" y="786" on="0"/>
        <pt x="539" y="802" on="0"/>
        <pt x="574" y="802" on="1"/>
        <pt x="588" y="802" on="0"/>
        <pt x="613" y="794" on="0"/>
        <pt x="626" y="794" on="1"/>
        <pt x="645" y="794" on="0"/>
        <pt x="666" y="831" on="0"/>
        <pt x="675" y="880" on="0"/>
        <pt x="677" y="930" on="0"/>
        <pt x="677" y="942" on="1"/>
        <pt x="677" y="967" on="0"/>
        <pt x="674" y="1016" on="0"/>
        <pt x="674" y="1041" on="1"/>
        <pt x="680" y="1041" on="1"/>
        <pt x="705" y="1041" on="0"/>
        <pt x="749" y="1025" on="0"/>
        <pt x="773" y="1025" on="1"/>
        <pt x="783" y="1025" on="0"/>
        <pt x="788" y="1026" on="1"/>
        <pt x="788" y="1006" on="0"/>
        <pt x="802" y="966" on="0"/>
        <pt x="802" y="945" on="1"/>
        <pt x="802" y="919" on="0"/>
        <pt x="774" y="912" on="1"/>
        <pt x="782" y="898" on="0"/>
        <pt x="792" y="870" on="0"/>
        <pt x="792" y="855" on="1"/>
        <pt x="792" y="844" on="0"/>
        <pt x="788" y="823" on="0"/>
        <pt x="788" y="812" on="1"/>
        <pt x="788" y="802" on="0"/>
        <pt x="801" y="791" on="0"/>
        <pt x="801" y="784" on="1"/>
        <pt x="801" y="772" on="0"/>
        <pt x="782" y="736" on="0"/>
        <pt x="782" y="717" on="1"/>
        <pt x="782" y="695" on="0"/>
        <pt x="790" y="647" on="0"/>
        <pt x="800" y="595" on="0"/>
        <pt x="808" y="542" on="0"/>
        <pt x="808" y="515" on="1"/>
        <pt x="808" y="499" on="0"/>
        <pt x="805" y="465" on="0"/>
        <pt x="794" y="434" on="0"/>
        <pt x="775" y="408" on="0"/>
        <pt x="760" y="399" on="1"/>
        <pt x="741" y="401" on="0"/>
        <pt x="715" y="420" on="0"/>
        <pt x="698" y="447" on="0"/>
        <pt x="689" y="480" on="0"/>
        <pt x="687" y="497" on="1"/>
        <pt x="683" y="523" on="0"/>
        <pt x="683" y="567" on="0"/>
        <pt x="664" y="598" on="0"/>
        <pt x="611" y="616" on="0"/>
        <pt x="555" y="616" on="1"/>
        <pt x="539" y="616" on="0"/>
        <pt x="480" y="610" on="0"/>
        <pt x="422" y="595" on="0"/>
        <pt x="379" y="567" on="0"/>
        <pt x="379" y="546" on="1"/>
        <pt x="379" y="534" on="0"/>
        <pt x="384" y="511" on="0"/>
        <pt x="384" y="499" on="1"/>
        <pt x="384" y="489" on="0"/>
        <pt x="382" y="469" on="0"/>
        <pt x="382" y="458" on="1"/>
        <pt x="382" y="431" on="0"/>
        <pt x="388" y="378" on="0"/>
        <pt x="388" y="351" on="1"/>
        <pt x="388" y="322" on="0"/>
        <pt x="373" y="266" on="0"/>
        <pt x="373" y="237" on="1"/>
        <pt x="373" y="205" on="0"/>
        <pt x="404" y="168" on="0"/>
        <pt x="452" y="149" on="0"/>
        <pt x="508" y="143" on="0"/>
        <pt x="532" y="143" on="1"/>
        <pt x="580" y="143" on="0"/>
        <pt x="676" y="155" on="0"/>
        <pt x="724" y="155" on="1"/>
        <pt x="754" y="155" on="0"/>
        <pt x="814" y="149" on="0"/>
        <pt x="844" y="149" on="1"/>
        <pt x="867" y="149" on="0"/>
        <pt x="923" y="152" on="0"/>
        <pt x="974" y="168" on="0"/>
        <pt x="1011" y="199" on="0"/>
        <pt x="1016" y="228" on="1"/>
        <pt x="1017" y="236" on="0"/>
        <pt x="1026" y="243" on="0"/>
        <pt x="1037" y="248" on="0"/>
        <pt x="1045" y="254" on="0"/>
        <pt x="1045" y="261" on="1"/>
        <pt x="1045" y="269" on="0"/>
        <pt x="1033" y="290" on="0"/>
        <pt x="1031" y="299" on="1"/>
        <pt x="1027" y="318" on="0"/>
        <pt x="1026" y="357" on="0"/>
        <pt x="1026" y="376" on="1"/>
        <pt x="1026" y="406" on="0"/>
        <pt x="1045" y="451" on="0"/>
        <pt x="1045" y="478" on="1"/>
        <pt x="1045" y="486" on="0"/>
        <pt x="1044" y="500" on="0"/>
        <pt x="1044" y="508" on="1"/>
        <pt x="1044" y="514" on="0"/>
        <pt x="1062" y="526" on="0"/>
        <pt x="1086" y="535" on="0"/>
        <pt x="1110" y="541" on="0"/>
        <pt x="1116" y="541" on="1"/>
        <pt x="1141" y="541" on="0"/>
        <pt x="1173" y="506" on="0"/>
        <pt x="1190" y="456" on="0"/>
        <pt x="1196" y="402" on="0"/>
        <pt x="1196" y="383" on="1"/>
        <pt x="1196" y="352" on="0"/>
        <pt x="1186" y="274" on="0"/>
        <pt x="1169" y="192" on="0"/>
        <pt x="1147" y="115" on="0"/>
        <pt x="1136" y="86" on="1"/>
        <pt x="1130" y="72" on="0"/>
        <pt x="1119" y="58" on="0"/>
        <pt x="1106" y="49" on="0"/>
        <pt x="1091" y="40" on="0"/>
        <pt x="1082" y="30" on="1"/>
        <pt x="1074" y="21" on="0"/>
        <pt x="1029" y="15" on="0"/>
        <pt x="1004" y="15" on="1"/>
        <pt x="991" y="15" on="0"/>
        <pt x="968" y="16" on="0"/>
        <pt x="958" y="16" on="1"/>
        <pt x="947" y="7" on="0"/>
        <pt x="924" y="-16" on="0"/>
        <pt x="924" y="-37" on="1"/>
        <pt x="924" y="-49" on="0"/>
        <pt x="934" y="-60" on="0"/>
        <pt x="948" y="-65" on="0"/>
        <pt x="965" y="-67" on="0"/>
        <pt x="973" y="-70" on="1"/>
        <pt x="978" y="-72" on="0"/>
        <pt x="988" y="-78" on="0"/>
        <pt x="994" y="-78" on="1"/>
        <pt x="1008" y="-78" on="0"/>
        <pt x="1031" y="-63" on="0"/>
        <pt x="1045" y="-60" on="1"/>
        <pt x="1051" y="-58" on="0"/>
        <pt x="1064" y="-58" on="0"/>
        <pt x="1070" y="-56" on="1"/>
        <pt x="1086" y="-52" on="0"/>
        <pt x="1114" y="-36" on="0"/>
        <pt x="1143" y="-19" on="0"/>
        <pt x="1173" y="-7" on="0"/>
        <pt x="1191" y="-7" on="1"/>
        <pt x="1208" y="-7" on="0"/>
        <pt x="1230" y="-21" on="0"/>
        <pt x="1243" y="-43" on="0"/>
        <pt x="1248" y="-71" on="0"/>
      </contour>
      <contour>
        <pt x="336" y="752" on="1"/>
        <pt x="330" y="752" on="0"/>
        <pt x="320" y="748" on="0"/>
        <pt x="318" y="741" on="1"/>
        <pt x="356" y="719" on="0"/>
        <pt x="401" y="680" on="0"/>
        <pt x="426" y="656" on="0"/>
        <pt x="438" y="653" on="0"/>
        <pt x="444" y="667" on="1"/>
        <pt x="452" y="685" on="0"/>
        <pt x="431" y="717" on="0"/>
        <pt x="394" y="739" on="0"/>
        <pt x="351" y="752" on="0"/>
      </contour>
    </TTGlyph>
    <TTGlyph name="Eth" xMin="74" yMin="-33" xMax="1186" yMax="1459">
      <contour>
        <pt x="1186" y="643" on="1"/>
        <pt x="1186" y="613" on="0"/>
        <pt x="1174" y="534" on="0"/>
        <pt x="1153" y="447" on="0"/>
        <pt x="1126" y="355" on="0"/>
        <pt x="1096" y="270" on="0"/>
        <pt x="1065" y="197" on="0"/>
        <pt x="1051" y="172" on="1"/>
        <pt x="1045" y="162" on="0"/>
        <pt x="1020" y="140" on="0"/>
        <pt x="994" y="118" on="0"/>
        <pt x="974" y="96" on="0"/>
        <pt x="974" y="86" on="1"/>
        <pt x="966" y="85" on="0"/>
        <pt x="932" y="78" on="0"/>
        <pt x="895" y="67" on="0"/>
        <pt x="864" y="54" on="0"/>
        <pt x="861" y="48" on="1"/>
        <pt x="853" y="34" on="0"/>
        <pt x="847" y="19" on="0"/>
        <pt x="844" y="12" on="0"/>
        <pt x="840" y="11" on="0"/>
        <pt x="836" y="11" on="1"/>
        <pt x="832" y="11" on="0"/>
        <pt x="800" y="2" on="0"/>
        <pt x="758" y="-8" on="0"/>
        <pt x="715" y="-17" on="0"/>
        <pt x="699" y="-17" on="1"/>
        <pt x="677" y="-17" on="0"/>
        <pt x="636" y="-3" on="0"/>
        <pt x="614" y="-3" on="1"/>
        <pt x="600" y="-3" on="0"/>
        <pt x="589" y="-7" on="1"/>
        <pt x="552" y="-21" on="0"/>
        <pt x="485" y="-33" on="0"/>
        <pt x="445" y="-33" on="1"/>
        <pt x="304" y="-14" on="1"/>
        <pt x="288" y="-18" on="0"/>
        <pt x="256" y="-21" on="0"/>
        <pt x="240" y="-21" on="1"/>
        <pt x="220" y="-21" on="0"/>
        <pt x="181" y="-17" on="0"/>
        <pt x="161" y="-14" on="1"/>
        <pt x="158" y="1" on="0"/>
        <pt x="145" y="28" on="0"/>
        <pt x="133" y="56" on="0"/>
        <pt x="123" y="85" on="0"/>
        <pt x="123" y="100" on="1"/>
        <pt x="123" y="126" on="0"/>
        <pt x="149" y="149" on="0"/>
        <pt x="189" y="158" on="0"/>
        <pt x="234" y="163" on="0"/>
        <pt x="274" y="181" on="0"/>
        <pt x="300" y="219" on="0"/>
        <pt x="300" y="257" on="1"/>
        <pt x="300" y="280" on="0"/>
        <pt x="293" y="326" on="0"/>
        <pt x="284" y="373" on="0"/>
        <pt x="277" y="419" on="0"/>
        <pt x="277" y="442" on="1"/>
        <pt x="277" y="459" on="0"/>
        <pt x="283" y="492" on="0"/>
        <pt x="283" y="509" on="1"/>
        <pt x="283" y="536" on="0"/>
        <pt x="276" y="589" on="0"/>
        <pt x="274" y="616" on="1"/>
        <pt x="265" y="614" on="0"/>
        <pt x="259" y="600" on="0"/>
        <pt x="254" y="594" on="1"/>
        <pt x="237" y="597" on="0"/>
        <pt x="223" y="597" on="1"/>
        <pt x="208" y="597" on="0"/>
        <pt x="177" y="592" on="0"/>
        <pt x="158" y="588" on="1"/>
        <pt x="132" y="598" on="0"/>
        <pt x="100" y="636" on="0"/>
        <pt x="81" y="684" on="0"/>
        <pt x="74" y="737" on="0"/>
        <pt x="74" y="763" on="1"/>
        <pt x="74" y="780" on="1"/>
        <pt x="82" y="786" on="0"/>
        <pt x="104" y="792" on="0"/>
        <pt x="127" y="797" on="0"/>
        <pt x="148" y="805" on="0"/>
        <pt x="154" y="813" on="1"/>
        <pt x="169" y="796" on="0"/>
        <pt x="220" y="769" on="0"/>
        <pt x="244" y="769" on="1"/>
        <pt x="262" y="769" on="0"/>
        <pt x="293" y="790" on="0"/>
        <pt x="293" y="810" on="1"/>
        <pt x="293" y="821" on="0"/>
        <pt x="285" y="846" on="0"/>
        <pt x="276" y="871" on="0"/>
        <pt x="269" y="897" on="0"/>
        <pt x="269" y="909" on="1"/>
        <pt x="269" y="928" on="0"/>
        <pt x="271" y="966" on="0"/>
        <pt x="271" y="985" on="1"/>
        <pt x="271" y="1007" on="0"/>
        <pt x="267" y="1048" on="0"/>
        <pt x="261" y="1069" on="1"/>
        <pt x="254" y="1094" on="0"/>
        <pt x="252" y="1142" on="0"/>
        <pt x="242" y="1181" on="0"/>
        <pt x="214" y="1210" on="0"/>
        <pt x="181" y="1217" on="1"/>
        <pt x="170" y="1219" on="0"/>
        <pt x="159" y="1228" on="0"/>
        <pt x="149" y="1237" on="0"/>
        <pt x="134" y="1245" on="0"/>
        <pt x="119" y="1247" on="1"/>
        <pt x="75" y="1253" on="0"/>
        <pt x="75" y="1296" on="1"/>
        <pt x="75" y="1332" on="0"/>
        <pt x="119" y="1391" on="0"/>
        <pt x="180" y="1432" on="0"/>
        <pt x="247" y="1454" on="0"/>
        <pt x="271" y="1454" on="1"/>
        <pt x="314" y="1454" on="1"/>
        <pt x="343" y="1454" on="0"/>
        <pt x="400" y="1459" on="0"/>
        <pt x="429" y="1459" on="1"/>
        <pt x="446" y="1459" on="0"/>
        <pt x="481" y="1455" on="0"/>
        <pt x="498" y="1450" on="1"/>
        <pt x="507" y="1447" on="0"/>
        <pt x="524" y="1440" on="0"/>
        <pt x="533" y="1440" on="1"/>
        <pt x="547" y="1440" on="0"/>
        <pt x="567" y="1457" on="0"/>
        <pt x="575" y="1457" on="1"/>
        <pt x="577" y="1457" on="0"/>
        <pt x="577" y="1455" on="1"/>
        <pt x="577" y="1453" on="0"/>
        <pt x="576" y="1448" on="0"/>
        <pt x="576" y="1446" on="1"/>
        <pt x="576" y="1440" on="0"/>
        <pt x="584" y="1440" on="1"/>
        <pt x="589" y="1440" on="0"/>
        <pt x="594" y="1452" on="0"/>
        <pt x="603" y="1454" on="1"/>
        <pt x="610" y="1451" on="0"/>
        <pt x="618" y="1444" on="0"/>
        <pt x="625" y="1438" on="0"/>
        <pt x="636" y="1434" on="0"/>
        <pt x="645" y="1434" on="1"/>
        <pt x="666" y="1434" on="0"/>
        <pt x="708" y="1441" on="0"/>
        <pt x="729" y="1441" on="1"/>
        <pt x="756" y="1441" on="0"/>
        <pt x="802" y="1423" on="0"/>
        <pt x="843" y="1396" on="0"/>
        <pt x="881" y="1362" on="0"/>
        <pt x="900" y="1346" on="1"/>
        <pt x="914" y="1334" on="0"/>
        <pt x="943" y="1321" on="0"/>
        <pt x="969" y="1308" on="0"/>
        <pt x="993" y="1289" on="0"/>
        <pt x="1002" y="1270" on="1"/>
        <pt x="1012" y="1249" on="0"/>
        <pt x="1039" y="1210" on="0"/>
        <pt x="1066" y="1173" on="0"/>
        <pt x="1092" y="1134" on="0"/>
        <pt x="1102" y="1112" on="1"/>
        <pt x="1127" y="1055" on="0"/>
        <pt x="1148" y="930" on="0"/>
        <pt x="1159" y="869" on="1"/>
        <pt x="1164" y="843" on="0"/>
        <pt x="1176" y="790" on="0"/>
        <pt x="1176" y="764" on="1"/>
        <pt x="1176" y="750" on="0"/>
        <pt x="1166" y="724" on="0"/>
        <pt x="1166" y="710" on="1"/>
        <pt x="1166" y="701" on="0"/>
        <pt x="1172" y="687" on="0"/>
        <pt x="1180" y="673" on="0"/>
        <pt x="1186" y="655" on="0"/>
      </contour>
      <contour>
        <pt x="779" y="639" on="1"/>
        <pt x="776" y="633" on="0"/>
        <pt x="762" y="612" on="0"/>
        <pt x="746" y="592" on="0"/>
        <pt x="731" y="578" on="0"/>
        <pt x="727" y="578" on="1"/>
        <pt x="721" y="578" on="0"/>
        <pt x="701" y="582" on="0"/>
        <pt x="678" y="588" on="0"/>
        <pt x="654" y="592" on="0"/>
        <pt x="644" y="592" on="1"/>
        <pt x="631" y="592" on="0"/>
        <pt x="626" y="587" on="1"/>
        <pt x="587" y="593" on="0"/>
        <pt x="522" y="620" on="0"/>
        <pt x="499" y="620" on="1"/>
        <pt x="479" y="620" on="0"/>
        <pt x="458" y="584" on="0"/>
        <pt x="458" y="533" on="1"/>
        <pt x="458" y="476" on="0"/>
        <pt x="443" y="364" on="0"/>
        <pt x="443" y="306" on="1"/>
        <pt x="443" y="288" on="0"/>
        <pt x="446" y="252" on="0"/>
        <pt x="456" y="220" on="0"/>
        <pt x="477" y="195" on="0"/>
        <pt x="495" y="189" on="1"/>
        <pt x="526" y="178" on="0"/>
        <pt x="587" y="157" on="0"/>
        <pt x="621" y="157" on="1"/>
        <pt x="641" y="157" on="0"/>
        <pt x="679" y="176" on="0"/>
        <pt x="699" y="182" on="1"/>
        <pt x="712" y="186" on="0"/>
        <pt x="745" y="193" on="0"/>
        <pt x="777" y="202" on="0"/>
        <pt x="806" y="217" on="0"/>
        <pt x="816" y="228" on="1"/>
        <pt x="831" y="245" on="0"/>
        <pt x="859" y="271" on="0"/>
        <pt x="884" y="276" on="1"/>
        <pt x="896" y="278" on="0"/>
        <pt x="903" y="291" on="0"/>
        <pt x="906" y="308" on="0"/>
        <pt x="912" y="327" on="0"/>
        <pt x="922" y="334" on="1"/>
        <pt x="938" y="346" on="0"/>
        <pt x="955" y="378" on="0"/>
        <pt x="963" y="414" on="0"/>
        <pt x="968" y="451" on="0"/>
        <pt x="973" y="469" on="1"/>
        <pt x="984" y="509" on="0"/>
        <pt x="1013" y="591" on="0"/>
        <pt x="1013" y="633" on="1"/>
        <pt x="1013" y="644" on="0"/>
        <pt x="1003" y="661" on="0"/>
        <pt x="1003" y="672" on="1"/>
        <pt x="1003" y="678" on="0"/>
        <pt x="1008" y="681" on="0"/>
        <pt x="1014" y="686" on="0"/>
        <pt x="1019" y="696" on="0"/>
        <pt x="1019" y="710" on="1"/>
        <pt x="1019" y="749" on="0"/>
        <pt x="997" y="823" on="0"/>
        <pt x="974" y="855" on="1"/>
        <pt x="985" y="866" on="0"/>
        <pt x="991" y="896" on="0"/>
        <pt x="991" y="910" on="1"/>
        <pt x="991" y="925" on="0"/>
        <pt x="988" y="955" on="0"/>
        <pt x="988" y="969" on="1"/>
        <pt x="988" y="977" on="0"/>
        <pt x="977" y="989" on="0"/>
        <pt x="964" y="1000" on="0"/>
        <pt x="950" y="1011" on="0"/>
        <pt x="947" y="1019" on="1"/>
        <pt x="943" y="1029" on="0"/>
        <pt x="940" y="1044" on="0"/>
        <pt x="938" y="1058" on="0"/>
        <pt x="932" y="1074" on="0"/>
        <pt x="925" y="1085" on="1"/>
        <pt x="920" y="1093" on="0"/>
        <pt x="914" y="1108" on="0"/>
        <pt x="914" y="1119" on="1"/>
        <pt x="914" y="1129" on="0"/>
        <pt x="917" y="1140" on="1"/>
        <pt x="913" y="1148" on="0"/>
        <pt x="895" y="1159" on="0"/>
        <pt x="884" y="1162" on="1"/>
        <pt x="872" y="1166" on="0"/>
        <pt x="857" y="1168" on="1"/>
        <pt x="842" y="1168" on="0"/>
        <pt x="809" y="1186" on="0"/>
        <pt x="773" y="1208" on="0"/>
        <pt x="736" y="1226" on="0"/>
        <pt x="717" y="1226" on="1"/>
        <pt x="688" y="1226" on="0"/>
        <pt x="632" y="1216" on="0"/>
        <pt x="603" y="1212" on="1"/>
        <pt x="581" y="1209" on="0"/>
        <pt x="529" y="1208" on="0"/>
        <pt x="484" y="1198" on="0"/>
        <pt x="454" y="1171" on="0"/>
        <pt x="454" y="1142" on="1"/>
        <pt x="454" y="1107" on="0"/>
        <pt x="463" y="1035" on="0"/>
        <pt x="463" y="997" on="1"/>
        <pt x="463" y="978" on="0"/>
        <pt x="454" y="938" on="0"/>
        <pt x="442" y="897" on="0"/>
        <pt x="433" y="856" on="0"/>
        <pt x="433" y="838" on="1"/>
        <pt x="433" y="813" on="0"/>
        <pt x="460" y="772" on="0"/>
        <pt x="498" y="772" on="1"/>
        <pt x="515" y="772" on="0"/>
        <pt x="554" y="777" on="0"/>
        <pt x="571" y="777" on="1"/>
        <pt x="584" y="777" on="0"/>
        <pt x="595" y="774" on="1"/>
        <pt x="600" y="787" on="0"/>
        <pt x="617" y="803" on="0"/>
        <pt x="628" y="809" on="1"/>
        <pt x="647" y="800" on="0"/>
        <pt x="692" y="787" on="0"/>
        <pt x="732" y="770" on="0"/>
        <pt x="763" y="745" on="0"/>
        <pt x="769" y="723" on="1"/>
        <pt x="766" y="713" on="0"/>
        <pt x="761" y="713" on="1"/>
        <pt x="756" y="713" on="0"/>
        <pt x="746" y="719" on="0"/>
        <pt x="738" y="719" on="1"/>
        <pt x="734" y="719" on="1"/>
        <pt x="734" y="711" on="0"/>
        <pt x="744" y="706" on="0"/>
        <pt x="757" y="704" on="0"/>
        <pt x="768" y="702" on="0"/>
        <pt x="769" y="696" on="1"/>
        <pt x="768" y="692" on="0"/>
        <pt x="768" y="685" on="0"/>
        <pt x="768" y="682" on="1"/>
        <pt x="768" y="656" on="0"/>
      </contour>
      <contour>
        <pt x="203" y="758" on="1"/>
        <pt x="201" y="758" on="0"/>
        <pt x="199" y="759" on="0"/>
        <pt x="197" y="759" on="1"/>
        <pt x="186" y="759" on="0"/>
        <pt x="170" y="739" on="0"/>
        <pt x="170" y="729" on="1"/>
        <pt x="170" y="723" on="0"/>
        <pt x="178" y="714" on="0"/>
        <pt x="187" y="713" on="1"/>
        <pt x="194" y="714" on="0"/>
        <pt x="198" y="725" on="0"/>
        <pt x="199" y="738" on="0"/>
        <pt x="200" y="753" on="0"/>
      </contour>
    </TTGlyph>
    <TTGlyph name="Euro" xMin="63" yMin="146" xMax="1398" yMax="1208">
      <contour>
        <pt x="1398" y="396" on="1"/>
        <pt x="1398" y="386" on="0"/>
        <pt x="1383" y="378" on="0"/>
        <pt x="1376" y="374" on="1"/>
        <pt x="1365" y="368" on="0"/>
        <pt x="1351" y="352" on="0"/>
        <pt x="1339" y="333" on="0"/>
        <pt x="1329" y="312" on="0"/>
        <pt x="1323" y="303" on="1"/>
        <pt x="1309" y="282" on="0"/>
        <pt x="1260" y="266" on="0"/>
        <pt x="1212" y="252" on="0"/>
        <pt x="1173" y="227" on="0"/>
        <pt x="1168" y="197" on="1"/>
        <pt x="1163" y="197" on="1"/>
        <pt x="1140" y="197" on="0"/>
        <pt x="1101" y="181" on="0"/>
        <pt x="1062" y="162" on="0"/>
        <pt x="1022" y="146" on="0"/>
        <pt x="1000" y="146" on="1"/>
        <pt x="988" y="146" on="0"/>
        <pt x="967" y="154" on="0"/>
        <pt x="946" y="164" on="0"/>
        <pt x="925" y="172" on="0"/>
        <pt x="913" y="172" on="1"/>
        <pt x="897" y="172" on="0"/>
        <pt x="867" y="168" on="0"/>
        <pt x="852" y="168" on="1"/>
        <pt x="841" y="168" on="0"/>
        <pt x="811" y="173" on="0"/>
        <pt x="785" y="185" on="0"/>
        <pt x="767" y="204" on="0"/>
        <pt x="767" y="218" on="1"/>
        <pt x="767" y="223" on="0"/>
        <pt x="768" y="226" on="1"/>
        <pt x="763" y="221" on="0"/>
        <pt x="751" y="218" on="0"/>
        <pt x="745" y="218" on="1"/>
        <pt x="715" y="218" on="0"/>
        <pt x="664" y="245" on="0"/>
        <pt x="619" y="284" on="0"/>
        <pt x="580" y="329" on="0"/>
        <pt x="561" y="348" on="1"/>
        <pt x="538" y="370" on="0"/>
        <pt x="514" y="426" on="0"/>
        <pt x="499" y="453" on="1"/>
        <pt x="467" y="455" on="0"/>
        <pt x="446" y="465" on="1"/>
        <pt x="435" y="464" on="0"/>
        <pt x="428" y="469" on="0"/>
        <pt x="425" y="475" on="0"/>
        <pt x="421" y="481" on="0"/>
        <pt x="412" y="481" on="1"/>
        <pt x="400" y="481" on="0"/>
        <pt x="388" y="477" on="0"/>
        <pt x="379" y="471" on="0"/>
        <pt x="369" y="467" on="0"/>
        <pt x="358" y="467" on="1"/>
        <pt x="339" y="467" on="0"/>
        <pt x="330" y="462" on="0"/>
        <pt x="313" y="455" on="0"/>
        <pt x="272" y="450" on="0"/>
        <pt x="222" y="450" on="1"/>
        <pt x="218" y="451" on="0"/>
        <pt x="203" y="456" on="0"/>
        <pt x="186" y="462" on="0"/>
        <pt x="171" y="466" on="0"/>
        <pt x="168" y="466" on="1"/>
        <pt x="154" y="466" on="0"/>
        <pt x="125" y="461" on="0"/>
        <pt x="108" y="458" on="1"/>
        <pt x="88" y="466" on="0"/>
        <pt x="68" y="497" on="0"/>
        <pt x="63" y="535" on="0"/>
        <pt x="69" y="578" on="0"/>
        <pt x="75" y="599" on="1"/>
        <pt x="95" y="627" on="0"/>
        <pt x="159" y="637" on="0"/>
        <pt x="189" y="633" on="1"/>
        <pt x="224" y="628" on="0"/>
        <pt x="263" y="611" on="1"/>
        <pt x="284" y="620" on="0"/>
        <pt x="323" y="625" on="0"/>
        <pt x="340" y="625" on="1"/>
        <pt x="348" y="625" on="0"/>
        <pt x="360" y="619" on="0"/>
        <pt x="371" y="613" on="0"/>
        <pt x="382" y="607" on="0"/>
        <pt x="389" y="607" on="1"/>
        <pt x="398" y="607" on="0"/>
        <pt x="423" y="624" on="0"/>
        <pt x="431" y="625" on="1"/>
        <pt x="433" y="623" on="0"/>
        <pt x="441" y="619" on="0"/>
        <pt x="446" y="617" on="1"/>
        <pt x="444" y="637" on="0"/>
        <pt x="444" y="679" on="0"/>
        <pt x="444" y="701" on="1"/>
        <pt x="444" y="710" on="0"/>
        <pt x="445" y="735" on="0"/>
        <pt x="448" y="743" on="1"/>
        <pt x="441" y="744" on="0"/>
        <pt x="429" y="744" on="0"/>
        <pt x="422" y="744" on="1"/>
        <pt x="392" y="744" on="0"/>
        <pt x="331" y="739" on="0"/>
        <pt x="293" y="731" on="1"/>
        <pt x="293" y="732" on="0"/>
        <pt x="292" y="734" on="0"/>
        <pt x="293" y="736" on="1"/>
        <pt x="298" y="746" on="1"/>
        <pt x="299" y="754" on="0"/>
        <pt x="284" y="754" on="1"/>
        <pt x="274" y="754" on="0"/>
        <pt x="265" y="741" on="0"/>
        <pt x="260" y="736" on="1"/>
        <pt x="253" y="738" on="0"/>
        <pt x="240" y="738" on="0"/>
        <pt x="235" y="738" on="1"/>
        <pt x="223" y="738" on="0"/>
        <pt x="198" y="734" on="0"/>
        <pt x="182" y="731" on="1"/>
        <pt x="164" y="739" on="0"/>
        <pt x="147" y="769" on="0"/>
        <pt x="143" y="807" on="0"/>
        <pt x="149" y="849" on="0"/>
        <pt x="155" y="870" on="1"/>
        <pt x="159" y="883" on="1"/>
        <pt x="167" y="888" on="0"/>
        <pt x="186" y="892" on="0"/>
        <pt x="205" y="897" on="0"/>
        <pt x="223" y="903" on="0"/>
        <pt x="230" y="910" on="1"/>
        <pt x="238" y="897" on="0"/>
        <pt x="271" y="889" on="0"/>
        <pt x="309" y="887" on="0"/>
        <pt x="347" y="883" on="0"/>
        <pt x="362" y="874" on="1"/>
        <pt x="382" y="883" on="0"/>
        <pt x="416" y="887" on="0"/>
        <pt x="433" y="887" on="1"/>
        <pt x="447" y="887" on="0"/>
        <pt x="471" y="886" on="0"/>
        <pt x="484" y="886" on="1"/>
        <pt x="497" y="886" on="1"/>
        <pt x="503" y="907" on="0"/>
        <pt x="513" y="961" on="0"/>
        <pt x="528" y="1009" on="0"/>
        <pt x="549" y="1043" on="0"/>
        <pt x="565" y="1043" on="1"/>
        <pt x="579" y="1043" on="0"/>
        <pt x="603" y="1035" on="0"/>
        <pt x="617" y="1035" on="1"/>
        <pt x="629" y="1035" on="0"/>
        <pt x="640" y="1038" on="1"/>
        <pt x="641" y="1046" on="1"/>
        <pt x="641" y="1058" on="0"/>
        <pt x="626" y="1064" on="0"/>
        <pt x="609" y="1066" on="0"/>
        <pt x="594" y="1069" on="0"/>
        <pt x="594" y="1078" on="1"/>
        <pt x="594" y="1084" on="0"/>
        <pt x="605" y="1093" on="0"/>
        <pt x="620" y="1100" on="0"/>
        <pt x="636" y="1106" on="0"/>
        <pt x="640" y="1109" on="1"/>
        <pt x="650" y="1117" on="0"/>
        <pt x="658" y="1132" on="0"/>
        <pt x="665" y="1146" on="0"/>
        <pt x="679" y="1156" on="0"/>
        <pt x="695" y="1160" on="1"/>
        <pt x="709" y="1163" on="0"/>
        <pt x="737" y="1164" on="0"/>
        <pt x="765" y="1165" on="0"/>
        <pt x="793" y="1167" on="0"/>
        <pt x="807" y="1171" on="1"/>
        <pt x="797" y="1181" on="1"/>
        <pt x="802" y="1190" on="0"/>
        <pt x="820" y="1201" on="0"/>
        <pt x="843" y="1207" on="0"/>
        <pt x="866" y="1208" on="0"/>
        <pt x="875" y="1208" on="1"/>
        <pt x="910" y="1208" on="0"/>
        <pt x="976" y="1190" on="0"/>
        <pt x="1009" y="1190" on="1"/>
        <pt x="1023" y="1190" on="0"/>
        <pt x="1050" y="1197" on="0"/>
        <pt x="1064" y="1197" on="1"/>
        <pt x="1085" y="1197" on="0"/>
        <pt x="1122" y="1176" on="0"/>
        <pt x="1139" y="1167" on="1"/>
        <pt x="1143" y="1166" on="1"/>
        <pt x="1152" y="1166" on="0"/>
        <pt x="1164" y="1180" on="0"/>
        <pt x="1170" y="1180" on="1"/>
        <pt x="1175" y="1180" on="0"/>
        <pt x="1181" y="1171" on="0"/>
        <pt x="1184" y="1167" on="1"/>
        <pt x="1192" y="1158" on="0"/>
        <pt x="1219" y="1153" on="0"/>
        <pt x="1224" y="1145" on="1"/>
        <pt x="1231" y="1133" on="0"/>
        <pt x="1249" y="1124" on="0"/>
        <pt x="1267" y="1120" on="0"/>
        <pt x="1287" y="1116" on="0"/>
        <pt x="1296" y="1109" on="1"/>
        <pt x="1296" y="1081" on="1"/>
        <pt x="1316" y="1055" on="0"/>
        <pt x="1351" y="1028" on="0"/>
        <pt x="1378" y="999" on="0"/>
        <pt x="1393" y="956" on="0"/>
        <pt x="1393" y="915" on="1"/>
        <pt x="1393" y="871" on="0"/>
        <pt x="1378" y="805" on="0"/>
        <pt x="1341" y="760" on="0"/>
        <pt x="1279" y="737" on="0"/>
        <pt x="1233" y="738" on="1"/>
        <pt x="1168" y="739" on="1"/>
        <pt x="1160" y="752" on="0"/>
        <pt x="1130" y="799" on="0"/>
        <pt x="1100" y="850" on="0"/>
        <pt x="1077" y="895" on="0"/>
        <pt x="1077" y="907" on="1"/>
        <pt x="1077" y="922" on="0"/>
        <pt x="1082" y="952" on="0"/>
        <pt x="1082" y="967" on="1"/>
        <pt x="1075" y="986" on="0"/>
        <pt x="1052" y="1010" on="0"/>
        <pt x="1022" y="1023" on="0"/>
        <pt x="987" y="1027" on="0"/>
        <pt x="969" y="1027" on="1"/>
        <pt x="943" y="1027" on="0"/>
        <pt x="892" y="1019" on="0"/>
        <pt x="868" y="1010" on="1"/>
        <pt x="868" y="1019" on="0"/>
        <pt x="859" y="1034" on="0"/>
        <pt x="848" y="1034" on="1"/>
        <pt x="834" y="1034" on="0"/>
        <pt x="794" y="1013" on="0"/>
        <pt x="753" y="983" on="0"/>
        <pt x="719" y="950" on="0"/>
        <pt x="711" y="938" on="1"/>
        <pt x="704" y="929" on="0"/>
        <pt x="685" y="894" on="0"/>
        <pt x="673" y="875" on="1"/>
        <pt x="685" y="875" on="1"/>
        <pt x="710" y="875" on="0"/>
        <pt x="766" y="889" on="0"/>
        <pt x="792" y="889" on="1"/>
        <pt x="818" y="889" on="0"/>
        <pt x="838" y="879" on="1"/>
        <pt x="844" y="889" on="0"/>
        <pt x="861" y="901" on="0"/>
        <pt x="871" y="906" on="1"/>
        <pt x="884" y="899" on="0"/>
        <pt x="917" y="889" on="0"/>
        <pt x="945" y="876" on="0"/>
        <pt x="963" y="856" on="0"/>
        <pt x="963" y="838" on="1"/>
        <pt x="960" y="830" on="0"/>
        <pt x="955" y="830" on="1"/>
        <pt x="951" y="830" on="0"/>
        <pt x="945" y="835" on="0"/>
        <pt x="938" y="835" on="1"/>
        <pt x="935" y="835" on="1"/>
        <pt x="933" y="829" on="0"/>
        <pt x="940" y="825" on="0"/>
        <pt x="949" y="823" on="0"/>
        <pt x="957" y="821" on="0"/>
        <pt x="957" y="817" on="1"/>
        <pt x="954" y="806" on="1"/>
        <pt x="948" y="784" on="0"/>
        <pt x="952" y="772" on="1"/>
        <pt x="941" y="755" on="0"/>
        <pt x="912" y="735" on="0"/>
        <pt x="900" y="723" on="1"/>
        <pt x="890" y="721" on="0"/>
        <pt x="858" y="720" on="0"/>
        <pt x="846" y="710" on="1"/>
        <pt x="828" y="717" on="0"/>
        <pt x="782" y="721" on="0"/>
        <pt x="736" y="725" on="0"/>
        <pt x="693" y="734" on="0"/>
        <pt x="678" y="746" on="1"/>
        <pt x="650" y="750" on="0"/>
        <pt x="631" y="726" on="0"/>
        <pt x="630" y="688" on="0"/>
        <pt x="639" y="648" on="0"/>
        <pt x="639" y="637" on="1"/>
        <pt x="639" y="629" on="0"/>
        <pt x="641" y="614" on="0"/>
        <pt x="643" y="606" on="1"/>
        <pt x="648" y="605" on="0"/>
        <pt x="658" y="605" on="0"/>
        <pt x="663" y="605" on="1"/>
        <pt x="671" y="605" on="0"/>
        <pt x="712" y="613" on="0"/>
        <pt x="762" y="622" on="0"/>
        <pt x="815" y="628" on="0"/>
        <pt x="856" y="624" on="0"/>
        <pt x="879" y="606" on="0"/>
        <pt x="874" y="587" on="1"/>
        <pt x="871" y="581" on="0"/>
        <pt x="865" y="577" on="0"/>
        <pt x="862" y="566" on="0"/>
        <pt x="862" y="543" on="0"/>
        <pt x="864" y="519" on="1"/>
        <pt x="853" y="503" on="0"/>
        <pt x="820" y="482" on="0"/>
        <pt x="806" y="470" on="1"/>
        <pt x="795" y="468" on="0"/>
        <pt x="760" y="466" on="0"/>
        <pt x="747" y="457" on="1"/>
        <pt x="726" y="464" on="0"/>
        <pt x="707" y="462" on="0"/>
        <pt x="693" y="458" on="0"/>
        <pt x="677" y="461" on="0"/>
        <pt x="659" y="473" on="1"/>
        <pt x="657" y="472" on="0"/>
        <pt x="651" y="470" on="0"/>
        <pt x="647" y="469" on="1"/>
        <pt x="651" y="458" on="0"/>
        <pt x="669" y="454" on="1"/>
        <pt x="685" y="449" on="0"/>
        <pt x="698" y="425" on="0"/>
        <pt x="707" y="400" on="0"/>
        <pt x="720" y="382" on="0"/>
        <pt x="737" y="382" on="1"/>
        <pt x="742" y="382" on="1"/>
        <pt x="754" y="383" on="1"/>
        <pt x="766" y="367" on="0"/>
        <pt x="771" y="327" on="0"/>
        <pt x="783" y="311" on="1"/>
        <pt x="790" y="312" on="0"/>
        <pt x="794" y="322" on="0"/>
        <pt x="798" y="332" on="0"/>
        <pt x="807" y="340" on="0"/>
        <pt x="819" y="340" on="1"/>
        <pt x="830" y="340" on="0"/>
        <pt x="844" y="328" on="0"/>
        <pt x="856" y="313" on="0"/>
        <pt x="869" y="301" on="0"/>
        <pt x="879" y="301" on="1"/>
        <pt x="896" y="301" on="0"/>
        <pt x="937" y="314" on="0"/>
        <pt x="980" y="331" on="0"/>
        <pt x="1022" y="349" on="0"/>
        <pt x="1039" y="354" on="1"/>
        <pt x="1080" y="366" on="0"/>
        <pt x="1152" y="412" on="0"/>
        <pt x="1174" y="450" on="1"/>
        <pt x="1185" y="470" on="0"/>
        <pt x="1216" y="504" on="0"/>
        <pt x="1225" y="525" on="1"/>
        <pt x="1235" y="525" on="0"/>
        <pt x="1255" y="527" on="0"/>
        <pt x="1266" y="527" on="1"/>
        <pt x="1269" y="527" on="0"/>
        <pt x="1282" y="527" on="0"/>
        <pt x="1296" y="525" on="0"/>
        <pt x="1307" y="521" on="0"/>
        <pt x="1307" y="518" on="1"/>
        <pt x="1307" y="509" on="0"/>
        <pt x="1294" y="498" on="0"/>
        <pt x="1279" y="489" on="0"/>
        <pt x="1267" y="478" on="0"/>
        <pt x="1267" y="468" on="1"/>
        <pt x="1278" y="469" on="1"/>
        <pt x="1290" y="469" on="0"/>
        <pt x="1330" y="457" on="0"/>
        <pt x="1369" y="436" on="0"/>
        <pt x="1398" y="410" on="0"/>
      </contour>
      <contour>
        <pt x="1163" y="351" on="1"/>
        <pt x="1159" y="351" on="1"/>
        <pt x="1140" y="351" on="0"/>
        <pt x="1115" y="328" on="0"/>
        <pt x="1106" y="312" on="1"/>
        <pt x="1111" y="317" on="0"/>
        <pt x="1117" y="317" on="1"/>
        <pt x="1117" y="312" on="0"/>
        <pt x="1110" y="308" on="0"/>
        <pt x="1106" y="307" on="1"/>
        <pt x="1117" y="307" on="0"/>
        <pt x="1140" y="304" on="0"/>
        <pt x="1152" y="304" on="1"/>
        <pt x="1161" y="304" on="0"/>
        <pt x="1171" y="313" on="0"/>
        <pt x="1175" y="327" on="0"/>
        <pt x="1175" y="343" on="0"/>
        <pt x="1175" y="350" on="1"/>
      </contour>
      <contour>
        <pt x="756" y="515" on="1"/>
        <pt x="746" y="515" on="0"/>
        <pt x="729" y="521" on="0"/>
        <pt x="727" y="513" on="1"/>
        <pt x="726" y="511" on="0"/>
        <pt x="726" y="500" on="0"/>
        <pt x="728" y="488" on="0"/>
        <pt x="732" y="478" on="0"/>
        <pt x="736" y="478" on="1"/>
        <pt x="742" y="479" on="0"/>
        <pt x="749" y="488" on="0"/>
        <pt x="753" y="499" on="0"/>
        <pt x="758" y="511" on="0"/>
        <pt x="762" y="515" on="1"/>
      </contour>
      <contour>
        <pt x="1326" y="340" on="1"/>
        <pt x="1326" y="346" on="0"/>
        <pt x="1317" y="355" on="0"/>
        <pt x="1311" y="355" on="1"/>
        <pt x="1304" y="355" on="0"/>
        <pt x="1294" y="337" on="0"/>
        <pt x="1294" y="332" on="1"/>
        <pt x="1294" y="326" on="0"/>
        <pt x="1308" y="327" on="0"/>
        <pt x="1310" y="327" on="1"/>
        <pt x="1315" y="327" on="0"/>
        <pt x="1326" y="332" on="0"/>
      </contour>
      <contour>
        <pt x="256" y="866" on="1"/>
        <pt x="254" y="866" on="0"/>
        <pt x="254" y="867" on="0"/>
        <pt x="252" y="867" on="1"/>
        <pt x="243" y="867" on="0"/>
        <pt x="225" y="851" on="0"/>
        <pt x="223" y="843" on="1"/>
        <pt x="222" y="838" on="0"/>
        <pt x="226" y="831" on="0"/>
        <pt x="234" y="830" on="1"/>
        <pt x="240" y="831" on="0"/>
        <pt x="245" y="840" on="0"/>
        <pt x="249" y="850" on="0"/>
        <pt x="253" y="862" on="0"/>
      </contour>
    </TTGlyph>
    <TTGlyph name="F" xMin="60" yMin="-17" xMax="1218" yMax="1450">
      <contour>
        <pt x="1218" y="1037" on="1"/>
        <pt x="1218" y="994" on="0"/>
        <pt x="1169" y="946" on="0"/>
        <pt x="1127" y="946" on="1"/>
        <pt x="1113" y="946" on="0"/>
        <pt x="1087" y="951" on="0"/>
        <pt x="1074" y="955" on="1"/>
        <pt x="1057" y="978" on="0"/>
        <pt x="1042" y="1043" on="0"/>
        <pt x="1031" y="1112" on="0"/>
        <pt x="1017" y="1179" on="0"/>
        <pt x="988" y="1232" on="0"/>
        <pt x="937" y="1265" on="0"/>
        <pt x="894" y="1265" on="1"/>
        <pt x="867" y="1265" on="0"/>
        <pt x="814" y="1254" on="0"/>
        <pt x="786" y="1254" on="1"/>
        <pt x="772" y="1254" on="0"/>
        <pt x="734" y="1255" on="0"/>
        <pt x="695" y="1260" on="0"/>
        <pt x="659" y="1268" on="0"/>
        <pt x="647" y="1276" on="1"/>
        <pt x="644" y="1278" on="0"/>
        <pt x="631" y="1280" on="0"/>
        <pt x="616" y="1281" on="0"/>
        <pt x="601" y="1281" on="0"/>
        <pt x="598" y="1281" on="1"/>
        <pt x="568" y="1281" on="0"/>
        <pt x="533" y="1275" on="0"/>
        <pt x="506" y="1265" on="0"/>
        <pt x="477" y="1252" on="0"/>
        <pt x="451" y="1245" on="1"/>
        <pt x="432" y="1240" on="0"/>
        <pt x="415" y="1226" on="0"/>
        <pt x="409" y="1207" on="0"/>
        <pt x="410" y="1181" on="0"/>
        <pt x="409" y="1164" on="1"/>
        <pt x="408" y="1152" on="0"/>
        <pt x="407" y="1129" on="0"/>
        <pt x="407" y="1117" on="1"/>
        <pt x="407" y="1081" on="0"/>
        <pt x="411" y="1009" on="0"/>
        <pt x="411" y="972" on="1"/>
        <pt x="411" y="949" on="0"/>
        <pt x="402" y="905" on="0"/>
        <pt x="402" y="882" on="1"/>
        <pt x="402" y="861" on="0"/>
        <pt x="420" y="845" on="0"/>
        <pt x="442" y="837" on="0"/>
        <pt x="461" y="827" on="0"/>
        <pt x="461" y="812" on="1"/>
        <pt x="468" y="811" on="0"/>
        <pt x="481" y="810" on="0"/>
        <pt x="488" y="810" on="1"/>
        <pt x="521" y="810" on="0"/>
        <pt x="587" y="829" on="0"/>
        <pt x="619" y="837" on="1"/>
        <pt x="639" y="842" on="0"/>
        <pt x="657" y="890" on="0"/>
        <pt x="663" y="951" on="0"/>
        <pt x="663" y="1011" on="0"/>
        <pt x="666" y="1027" on="1"/>
        <pt x="668" y="1040" on="0"/>
        <pt x="683" y="1064" on="0"/>
        <pt x="705" y="1082" on="0"/>
        <pt x="731" y="1093" on="0"/>
        <pt x="744" y="1093" on="1"/>
        <pt x="758" y="1093" on="0"/>
        <pt x="769" y="1087" on="1"/>
        <pt x="791" y="1076" on="0"/>
        <pt x="810" y="1043" on="0"/>
        <pt x="816" y="1003" on="0"/>
        <pt x="815" y="961" on="0"/>
        <pt x="817" y="941" on="1"/>
        <pt x="820" y="914" on="0"/>
        <pt x="820" y="888" on="1"/>
        <pt x="820" y="840" on="0"/>
        <pt x="811" y="748" on="0"/>
        <pt x="811" y="700" on="1"/>
        <pt x="811" y="674" on="0"/>
        <pt x="817" y="624" on="0"/>
        <pt x="825" y="599" on="1"/>
        <pt x="830" y="581" on="0"/>
        <pt x="830" y="566" on="1"/>
        <pt x="830" y="549" on="0"/>
        <pt x="823" y="517" on="0"/>
        <pt x="823" y="500" on="1"/>
        <pt x="823" y="490" on="0"/>
        <pt x="826" y="473" on="0"/>
        <pt x="826" y="463" on="1"/>
        <pt x="826" y="448" on="0"/>
        <pt x="811" y="415" on="0"/>
        <pt x="789" y="388" on="0"/>
        <pt x="760" y="370" on="0"/>
        <pt x="747" y="370" on="1"/>
        <pt x="729" y="370" on="0"/>
        <pt x="698" y="399" on="0"/>
        <pt x="674" y="435" on="0"/>
        <pt x="661" y="467" on="0"/>
        <pt x="661" y="470" on="1"/>
        <pt x="661" y="475" on="0"/>
        <pt x="670" y="480" on="0"/>
        <pt x="680" y="485" on="0"/>
        <pt x="689" y="492" on="0"/>
        <pt x="689" y="499" on="1"/>
        <pt x="689" y="504" on="0"/>
        <pt x="680" y="509" on="0"/>
        <pt x="669" y="514" on="0"/>
        <pt x="660" y="523" on="0"/>
        <pt x="660" y="532" on="1"/>
        <pt x="660" y="539" on="0"/>
        <pt x="664" y="546" on="0"/>
        <pt x="670" y="550" on="0"/>
        <pt x="674" y="554" on="0"/>
        <pt x="674" y="557" on="1"/>
        <pt x="674" y="565" on="0"/>
        <pt x="660" y="590" on="0"/>
        <pt x="639" y="614" on="0"/>
        <pt x="614" y="631" on="0"/>
        <pt x="604" y="631" on="1"/>
        <pt x="589" y="631" on="0"/>
        <pt x="560" y="620" on="0"/>
        <pt x="544" y="620" on="1"/>
        <pt x="531" y="620" on="0"/>
        <pt x="508" y="630" on="0"/>
        <pt x="497" y="630" on="1"/>
        <pt x="487" y="630" on="0"/>
        <pt x="463" y="613" on="0"/>
        <pt x="440" y="590" on="0"/>
        <pt x="419" y="567" on="0"/>
        <pt x="413" y="560" on="1"/>
        <pt x="405" y="552" on="0"/>
        <pt x="403" y="521" on="0"/>
        <pt x="403" y="510" on="1"/>
        <pt x="403" y="475" on="0"/>
        <pt x="412" y="408" on="0"/>
        <pt x="412" y="373" on="1"/>
        <pt x="412" y="358" on="0"/>
        <pt x="411" y="328" on="0"/>
        <pt x="411" y="313" on="1"/>
        <pt x="411" y="301" on="0"/>
        <pt x="412" y="263" on="0"/>
        <pt x="420" y="225" on="0"/>
        <pt x="436" y="195" on="0"/>
        <pt x="450" y="191" on="1"/>
        <pt x="471" y="184" on="0"/>
        <pt x="497" y="186" on="1"/>
        <pt x="517" y="186" on="1"/>
        <pt x="543" y="186" on="0"/>
        <pt x="589" y="176" on="0"/>
        <pt x="601" y="155" on="1"/>
        <pt x="611" y="138" on="0"/>
        <pt x="620" y="97" on="0"/>
        <pt x="620" y="77" on="1"/>
        <pt x="620" y="65" on="0"/>
        <pt x="615" y="35" on="0"/>
        <pt x="602" y="10" on="0"/>
        <pt x="581" y="-7" on="0"/>
        <pt x="566" y="-7" on="1"/>
        <pt x="537" y="-7" on="0"/>
        <pt x="472" y="6" on="0"/>
        <pt x="440" y="6" on="1"/>
        <pt x="415" y="6" on="0"/>
        <pt x="391" y="0" on="1"/>
        <pt x="352" y="-11" on="0"/>
        <pt x="274" y="-17" on="0"/>
        <pt x="232" y="-17" on="1"/>
        <pt x="213" y="-17" on="0"/>
        <pt x="161" y="-15" on="0"/>
        <pt x="114" y="-4" on="0"/>
        <pt x="81" y="17" on="0"/>
        <pt x="81" y="36" on="1"/>
        <pt x="81" y="57" on="0"/>
        <pt x="87" y="105" on="0"/>
        <pt x="106" y="145" on="0"/>
        <pt x="140" y="171" on="0"/>
        <pt x="168" y="171" on="1"/>
        <pt x="176" y="171" on="0"/>
        <pt x="194" y="169" on="0"/>
        <pt x="203" y="169" on="1"/>
        <pt x="222" y="169" on="0"/>
        <pt x="240" y="182" on="0"/>
        <pt x="252" y="198" on="0"/>
        <pt x="264" y="212" on="0"/>
        <pt x="276" y="214" on="1"/>
        <pt x="274" y="246" on="0"/>
        <pt x="267" y="307" on="0"/>
        <pt x="267" y="339" on="1"/>
        <pt x="267" y="366" on="0"/>
        <pt x="277" y="418" on="0"/>
        <pt x="290" y="442" on="1"/>
        <pt x="280" y="453" on="0"/>
        <pt x="270" y="507" on="0"/>
        <pt x="267" y="563" on="0"/>
        <pt x="267" y="604" on="0"/>
        <pt x="267" y="603" on="1"/>
        <pt x="267" y="620" on="0"/>
        <pt x="278" y="653" on="0"/>
        <pt x="278" y="670" on="1"/>
        <pt x="278" y="678" on="0"/>
        <pt x="275" y="691" on="0"/>
        <pt x="275" y="699" on="1"/>
        <pt x="275" y="711" on="0"/>
        <pt x="279" y="721" on="0"/>
        <pt x="285" y="725" on="0"/>
        <pt x="289" y="730" on="0"/>
        <pt x="289" y="738" on="1"/>
        <pt x="289" y="763" on="0"/>
        <pt x="276" y="812" on="0"/>
        <pt x="276" y="838" on="1"/>
        <pt x="276" y="861" on="0"/>
        <pt x="285" y="906" on="0"/>
        <pt x="285" y="929" on="1"/>
        <pt x="285" y="974" on="0"/>
        <pt x="276" y="1063" on="0"/>
        <pt x="276" y="1109" on="1"/>
        <pt x="276" y="1132" on="0"/>
        <pt x="268" y="1189" on="0"/>
        <pt x="246" y="1239" on="0"/>
        <pt x="208" y="1273" on="0"/>
        <pt x="179" y="1273" on="1"/>
        <pt x="165" y="1273" on="0"/>
        <pt x="138" y="1270" on="0"/>
        <pt x="124" y="1270" on="1"/>
        <pt x="111" y="1270" on="0"/>
        <pt x="87" y="1275" on="0"/>
        <pt x="76" y="1283" on="1"/>
        <pt x="74" y="1302" on="0"/>
        <pt x="60" y="1338" on="0"/>
        <pt x="60" y="1357" on="1"/>
        <pt x="60" y="1371" on="0"/>
        <pt x="83" y="1389" on="0"/>
        <pt x="119" y="1399" on="0"/>
        <pt x="164" y="1403" on="0"/>
        <pt x="187" y="1403" on="1"/>
        <pt x="216" y="1403" on="0"/>
        <pt x="267" y="1400" on="0"/>
        <pt x="280" y="1400" on="1"/>
        <pt x="294" y="1400" on="0"/>
        <pt x="335" y="1402" on="0"/>
        <pt x="376" y="1409" on="0"/>
        <pt x="410" y="1425" on="0"/>
        <pt x="418" y="1440" on="1"/>
        <pt x="430" y="1440" on="0"/>
        <pt x="448" y="1431" on="0"/>
        <pt x="466" y="1420" on="0"/>
        <pt x="484" y="1411" on="0"/>
        <pt x="495" y="1411" on="1"/>
        <pt x="509" y="1411" on="0"/>
        <pt x="534" y="1424" on="0"/>
        <pt x="548" y="1424" on="1"/>
        <pt x="561" y="1424" on="0"/>
        <pt x="581" y="1413" on="0"/>
        <pt x="594" y="1413" on="1"/>
        <pt x="621" y="1413" on="0"/>
        <pt x="674" y="1425" on="0"/>
        <pt x="728" y="1438" on="0"/>
        <pt x="781" y="1450" on="0"/>
        <pt x="808" y="1450" on="1"/>
        <pt x="827" y="1450" on="0"/>
        <pt x="860" y="1439" on="0"/>
        <pt x="874" y="1425" on="1"/>
        <pt x="915" y="1442" on="0"/>
        <pt x="964" y="1442" on="1"/>
        <pt x="970" y="1442" on="0"/>
        <pt x="1010" y="1438" on="0"/>
        <pt x="1054" y="1433" on="0"/>
        <pt x="1090" y="1427" on="0"/>
        <pt x="1092" y="1424" on="1"/>
        <pt x="1098" y="1419" on="0"/>
        <pt x="1104" y="1395" on="0"/>
        <pt x="1109" y="1368" on="0"/>
        <pt x="1115" y="1343" on="0"/>
        <pt x="1121" y="1337" on="1"/>
        <pt x="1125" y="1333" on="0"/>
        <pt x="1138" y="1330" on="0"/>
        <pt x="1150" y="1326" on="0"/>
        <pt x="1159" y="1319" on="0"/>
        <pt x="1160" y="1311" on="1"/>
        <pt x="1162" y="1287" on="0"/>
        <pt x="1164" y="1242" on="0"/>
        <pt x="1171" y="1218" on="1"/>
        <pt x="1177" y="1197" on="0"/>
        <pt x="1193" y="1151" on="0"/>
        <pt x="1208" y="1105" on="0"/>
        <pt x="1218" y="1059" on="0"/>
      </contour>
      <contour>
        <pt x="163" y="72" on="1"/>
        <pt x="163" y="88" on="0"/>
        <pt x="150" y="112" on="0"/>
        <pt x="133" y="114" on="1"/>
        <pt x="133" y="110" on="0"/>
        <pt x="132" y="103" on="0"/>
        <pt x="132" y="99" on="1"/>
        <pt x="132" y="83" on="0"/>
        <pt x="145" y="59" on="0"/>
        <pt x="162" y="57" on="1"/>
        <pt x="162" y="61" on="0"/>
        <pt x="163" y="68" on="0"/>
      </contour>
    </TTGlyph>
</ttFont>
